<svg width="520" height="451" viewBox="0 0 520 451" fill="none" xmlns="http://www.w3.org/2000/svg">
<g filter="url(#filter0_ddd)">
<path d="M20 23C20 18.5817 23.5817 15 28 15H492C496.418 15 500 18.5817 500 23V413C500 417.418 496.418 421 492 421H28C23.5817 421 20 417.418 20 413V23Z" fill="url(#paint0_linear)"/>
</g>
<g filter="url(#filter1_ddd)">
<path d="M40 361C40 344.431 53.4315 331 70 331H450C466.569 331 480 344.431 480 361C480 377.569 466.569 391 450 391H70C53.4315 391 40 377.569 40 361Z" fill="#330DF2"/>
</g>
<path d="M240.635 366V354.8H244.811C246.55 354.8 247.974 355.333 249.083 356.4C250.203 357.456 250.763 358.779 250.763 360.368V360.4C250.763 362 250.203 363.333 249.083 364.4C247.974 365.467 246.55 366 244.811 366H240.635ZM244.811 356.592H242.603V364.208H244.811C245.974 364.208 246.913 363.856 247.627 363.152C248.342 362.448 248.699 361.541 248.699 360.432V360.4C248.699 359.291 248.342 358.379 247.627 357.664C246.913 356.949 245.974 356.592 244.811 356.592Z" fill="white"/>
<path d="M256.943 366.192C255.663 366.192 254.596 365.771 253.743 364.928C252.89 364.075 252.463 363.04 252.463 361.824V361.792C252.463 360.565 252.895 359.525 253.759 358.672C254.623 357.808 255.695 357.376 256.975 357.376C258.266 357.376 259.338 357.803 260.191 358.656C261.044 359.499 261.471 360.533 261.471 361.76V361.792C261.471 362.997 261.039 364.032 260.175 364.896C259.311 365.76 258.234 366.192 256.943 366.192ZM256.975 364.496C257.743 364.496 258.362 364.24 258.831 363.728C259.3 363.205 259.535 362.571 259.535 361.824V361.792C259.535 361.035 259.29 360.395 258.799 359.872C258.308 359.339 257.69 359.072 256.943 359.072C256.186 359.072 255.572 359.333 255.103 359.856C254.634 360.368 254.399 361.003 254.399 361.76V361.792C254.399 362.539 254.644 363.179 255.135 363.712C255.626 364.235 256.239 364.496 256.975 364.496Z" fill="white"/>
<path d="M263.427 366V357.552H265.379V358.848C266.083 357.867 266.963 357.376 268.019 357.376C268.968 357.376 269.704 357.669 270.227 358.256C270.76 358.832 271.027 359.616 271.027 360.608V366H269.091V361.2C269.091 360.539 268.931 360.032 268.611 359.68C268.301 359.317 267.859 359.136 267.283 359.136C266.707 359.136 266.243 359.323 265.891 359.696C265.549 360.069 265.379 360.581 265.379 361.232V366H263.427Z" fill="white"/>
<path d="M277.236 366.192C275.999 366.192 274.964 365.787 274.132 364.976C273.311 364.155 272.9 363.099 272.9 361.808V361.776C272.9 360.539 273.29 359.499 274.068 358.656C274.847 357.803 275.834 357.376 277.028 357.376C278.308 357.376 279.3 357.813 280.004 358.688C280.719 359.552 281.076 360.629 281.076 361.92C281.076 362.027 281.066 362.208 281.044 362.464H274.836C274.943 363.147 275.215 363.675 275.652 364.048C276.09 364.421 276.628 364.608 277.268 364.608C278.09 364.608 278.852 364.272 279.556 363.6L280.692 364.608C279.796 365.664 278.644 366.192 277.236 366.192ZM274.82 361.184H279.156C279.092 360.533 278.874 360 278.5 359.584C278.127 359.168 277.631 358.96 277.012 358.96C276.415 358.96 275.919 359.163 275.524 359.568C275.14 359.973 274.906 360.512 274.82 361.184Z" fill="white"/>
<g filter="url(#filter2_ddd)">
<path d="M40 267C40 263.686 42.6863 261 46 261H474C477.314 261 480 263.686 480 267V305C480 308.314 477.314 311 474 311H46C42.6863 311 40 308.314 40 305V267Z" fill="#F20D59"/>
</g>
<path d="M77 286C77 292.627 71.6274 298 65 298C58.3726 298 53 292.627 53 286C53 279.373 58.3726 274 65 274C71.6274 274 77 279.373 77 286Z" fill="white"/>
<path fill-rule="evenodd" clip-rule="evenodd" d="M71.698 282.716L62.7896 291.396L58.3022 287.024L59.698 285.591L62.7896 288.604L70.3023 281.284L71.698 282.716Z" fill="#F20D59"/>
<path d="M91.1699 291V281.9H94.5629C95.9756 281.9 97.1326 282.333 98.0339 283.2C98.9439 284.058 99.3989 285.133 99.3989 286.424V286.45C99.3989 287.75 98.9439 288.833 98.0339 289.7C97.1326 290.567 95.9756 291 94.5629 291H91.1699ZM94.5629 283.356H92.7689V289.544H94.5629C95.5076 289.544 96.2703 289.258 96.8509 288.686C97.4316 288.114 97.7219 287.377 97.7219 286.476V286.45C97.7219 285.549 97.4316 284.808 96.8509 284.227C96.2703 283.646 95.5076 283.356 94.5629 283.356Z" fill="white"/>
<path d="M104.303 291.156C103.298 291.156 102.457 290.827 101.781 290.168C101.114 289.501 100.78 288.643 100.78 287.594V287.568C100.78 286.563 101.096 285.718 101.729 285.033C102.362 284.34 103.163 283.993 104.134 283.993C105.174 283.993 105.98 284.348 106.552 285.059C107.133 285.761 107.423 286.636 107.423 287.685C107.423 287.772 107.414 287.919 107.397 288.127H102.353C102.44 288.682 102.661 289.111 103.016 289.414C103.371 289.717 103.809 289.869 104.329 289.869C104.996 289.869 105.616 289.596 106.188 289.05L107.111 289.869C106.383 290.727 105.447 291.156 104.303 291.156ZM102.34 287.087H105.863C105.811 286.558 105.633 286.125 105.33 285.787C105.027 285.449 104.624 285.28 104.121 285.28C103.636 285.28 103.233 285.445 102.912 285.774C102.6 286.103 102.409 286.541 102.34 287.087Z" fill="white"/>
<path d="M108.99 291V284.136H110.576V285.189C111.148 284.392 111.863 283.993 112.721 283.993C113.492 283.993 114.09 284.231 114.515 284.708C114.948 285.176 115.165 285.813 115.165 286.619V291H113.592V287.1C113.592 286.563 113.462 286.151 113.202 285.865C112.95 285.57 112.591 285.423 112.123 285.423C111.655 285.423 111.278 285.575 110.992 285.878C110.714 286.181 110.576 286.597 110.576 287.126V291H108.99Z" fill="white"/>
<path d="M119.838 289.232L121.632 284.136H123.27L120.54 291.182C120.262 291.893 119.955 292.391 119.617 292.677C119.279 292.972 118.832 293.119 118.278 293.119C117.697 293.119 117.155 292.976 116.653 292.69L117.186 291.533C117.515 291.706 117.823 291.793 118.109 291.793C118.343 291.793 118.529 291.732 118.668 291.611C118.815 291.498 118.954 291.299 119.084 291.013L116.224 284.136H117.914L119.838 289.232Z" fill="white"/>
<path d="M130.491 291.143C129.807 291.143 129.226 290.957 128.749 290.584C128.281 290.211 128.047 289.691 128.047 289.024V288.998C128.047 288.27 128.303 287.72 128.814 287.347C129.334 286.974 130.028 286.788 130.894 286.788C131.527 286.788 132.142 286.883 132.74 287.074V286.905C132.74 285.908 132.173 285.41 131.037 285.41C130.413 285.41 129.759 285.553 129.074 285.839L128.645 284.604C129.521 284.231 130.387 284.045 131.245 284.045C132.268 284.045 133.026 284.301 133.52 284.812C134.014 285.306 134.261 286.012 134.261 286.931V291H132.727V290.142C132.173 290.809 131.427 291.143 130.491 291.143ZM130.933 289.999C131.462 289.999 131.9 289.865 132.246 289.596C132.593 289.319 132.766 288.963 132.766 288.53V288.062C132.298 287.88 131.778 287.789 131.206 287.789C130.695 287.789 130.296 287.889 130.01 288.088C129.733 288.287 129.594 288.569 129.594 288.933V288.959C129.594 289.28 129.72 289.535 129.971 289.726C130.223 289.908 130.543 289.999 130.933 289.999Z" fill="white"/>
<path d="M139.317 291.156C138.303 291.156 137.458 290.814 136.782 290.129C136.106 289.436 135.768 288.595 135.768 287.607V287.581C135.768 286.593 136.106 285.748 136.782 285.046C137.467 284.344 138.32 283.993 139.343 283.993C140.426 283.993 141.341 284.387 142.086 285.176L141.098 286.229C140.552 285.657 139.963 285.371 139.33 285.371C138.767 285.371 138.294 285.583 137.913 286.008C137.532 286.433 137.341 286.948 137.341 287.555V287.581C137.341 288.196 137.532 288.716 137.913 289.141C138.303 289.566 138.797 289.778 139.395 289.778C140.019 289.778 140.613 289.496 141.176 288.933L142.125 289.869C141.752 290.285 141.349 290.606 140.916 290.831C140.483 291.048 139.95 291.156 139.317 291.156Z" fill="white"/>
<path d="M146.553 291.156C145.539 291.156 144.694 290.814 144.018 290.129C143.342 289.436 143.004 288.595 143.004 287.607V287.581C143.004 286.593 143.342 285.748 144.018 285.046C144.703 284.344 145.557 283.993 146.579 283.993C147.663 283.993 148.577 284.387 149.322 285.176L148.334 286.229C147.788 285.657 147.199 285.371 146.566 285.371C146.003 285.371 145.531 285.583 145.149 286.008C144.768 286.433 144.577 286.948 144.577 287.555V287.581C144.577 288.196 144.768 288.716 145.149 289.141C145.539 289.566 146.033 289.778 146.631 289.778C147.255 289.778 147.849 289.496 148.412 288.933L149.361 289.869C148.989 290.285 148.586 290.606 148.152 290.831C147.719 291.048 147.186 291.156 146.553 291.156Z" fill="white"/>
<path d="M153.764 291.156C152.758 291.156 151.918 290.827 151.242 290.168C150.574 289.501 150.241 288.643 150.241 287.594V287.568C150.241 286.563 150.557 285.718 151.19 285.033C151.822 284.34 152.624 283.993 153.595 283.993C154.635 283.993 155.441 284.348 156.013 285.059C156.593 285.761 156.884 286.636 156.884 287.685C156.884 287.772 156.875 287.919 156.858 288.127H151.814C151.9 288.682 152.121 289.111 152.477 289.414C152.832 289.717 153.27 289.869 153.79 289.869C154.457 289.869 155.077 289.596 155.649 289.05L156.572 289.869C155.844 290.727 154.908 291.156 153.764 291.156ZM151.801 287.087H155.324C155.272 286.558 155.094 286.125 154.791 285.787C154.487 285.449 154.084 285.28 153.582 285.28C153.096 285.28 152.693 285.445 152.373 285.774C152.061 286.103 151.87 286.541 151.801 287.087Z" fill="white"/>
<path d="M160.816 291.13C159.742 291.13 158.771 290.788 157.904 290.103L158.606 289.037C159.378 289.6 160.127 289.882 160.855 289.882C161.193 289.882 161.453 289.817 161.635 289.687C161.826 289.548 161.921 289.366 161.921 289.141V289.115C161.921 288.994 161.891 288.89 161.83 288.803C161.77 288.716 161.648 288.63 161.466 288.543C161.284 288.456 161.15 288.4 161.063 288.374C160.985 288.339 160.799 288.279 160.504 288.192C160.452 288.175 160.413 288.162 160.387 288.153C160.084 288.075 159.824 287.993 159.607 287.906C159.399 287.819 159.178 287.702 158.944 287.555C158.719 287.399 158.546 287.204 158.424 286.97C158.303 286.736 158.242 286.463 158.242 286.151V286.125C158.242 285.484 158.472 284.972 158.931 284.591C159.399 284.21 159.984 284.019 160.686 284.019C161.579 284.019 162.42 284.279 163.208 284.799L162.584 285.917C161.874 285.484 161.228 285.267 160.647 285.267C160.353 285.267 160.119 285.332 159.945 285.462C159.772 285.592 159.685 285.752 159.685 285.943V285.969C159.685 286.125 159.768 286.268 159.932 286.398C160.097 286.519 160.266 286.615 160.439 286.684C160.621 286.753 160.886 286.84 161.232 286.944C161.536 287.039 161.791 287.135 161.999 287.23C162.207 287.317 162.424 287.438 162.649 287.594C162.883 287.75 163.061 287.941 163.182 288.166C163.304 288.391 163.364 288.651 163.364 288.946V288.972C163.364 289.665 163.126 290.198 162.649 290.571C162.173 290.944 161.562 291.13 160.816 291.13Z" fill="white"/>
<path d="M167.202 291.13C166.128 291.13 165.157 290.788 164.29 290.103L164.992 289.037C165.764 289.6 166.513 289.882 167.241 289.882C167.579 289.882 167.839 289.817 168.021 289.687C168.212 289.548 168.307 289.366 168.307 289.141V289.115C168.307 288.994 168.277 288.89 168.216 288.803C168.156 288.716 168.034 288.63 167.852 288.543C167.67 288.456 167.536 288.4 167.449 288.374C167.371 288.339 167.185 288.279 166.89 288.192C166.838 288.175 166.799 288.162 166.773 288.153C166.47 288.075 166.21 287.993 165.993 287.906C165.785 287.819 165.564 287.702 165.33 287.555C165.105 287.399 164.932 287.204 164.81 286.97C164.689 286.736 164.628 286.463 164.628 286.151V286.125C164.628 285.484 164.858 284.972 165.317 284.591C165.785 284.21 166.37 284.019 167.072 284.019C167.965 284.019 168.806 284.279 169.594 284.799L168.97 285.917C168.26 285.484 167.614 285.267 167.033 285.267C166.739 285.267 166.505 285.332 166.331 285.462C166.158 285.592 166.071 285.752 166.071 285.943V285.969C166.071 286.125 166.154 286.268 166.318 286.398C166.483 286.519 166.652 286.615 166.825 286.684C167.007 286.753 167.272 286.84 167.618 286.944C167.922 287.039 168.177 287.135 168.385 287.23C168.593 287.317 168.81 287.438 169.035 287.594C169.269 287.75 169.447 287.941 169.568 288.166C169.69 288.391 169.75 288.651 169.75 288.946V288.972C169.75 289.665 169.512 290.198 169.035 290.571C168.559 290.944 167.948 291.13 167.202 291.13Z" fill="white"/>
<path d="M176.91 291.052L174.674 284.136H176.299L177.677 288.842L179.198 284.11H180.55L182.071 288.842L183.475 284.136H185.061L182.812 291.052H181.395L179.861 286.359L178.314 291.052H176.91Z" fill="white"/>
<path d="M186.444 291V281.51H188.03V285.189C188.602 284.392 189.317 283.993 190.175 283.993C190.946 283.993 191.544 284.231 191.969 284.708C192.402 285.176 192.619 285.813 192.619 286.619V291H191.046V287.1C191.046 286.563 190.916 286.151 190.656 285.865C190.404 285.57 190.045 285.423 189.577 285.423C189.109 285.423 188.732 285.575 188.446 285.878C188.168 286.181 188.03 286.597 188.03 287.126V291H186.444Z" fill="white"/>
<path d="M197.664 291.156C196.659 291.156 195.818 290.827 195.142 290.168C194.475 289.501 194.141 288.643 194.141 287.594V287.568C194.141 286.563 194.457 285.718 195.09 285.033C195.723 284.34 196.524 283.993 197.495 283.993C198.535 283.993 199.341 284.348 199.913 285.059C200.494 285.761 200.784 286.636 200.784 287.685C200.784 287.772 200.776 287.919 200.758 288.127H195.714C195.801 288.682 196.022 289.111 196.377 289.414C196.732 289.717 197.17 289.869 197.69 289.869C198.358 289.869 198.977 289.596 199.549 289.05L200.472 289.869C199.744 290.727 198.808 291.156 197.664 291.156ZM195.701 287.087H199.224C199.172 286.558 198.994 286.125 198.691 285.787C198.388 285.449 197.985 285.28 197.482 285.28C196.997 285.28 196.594 285.445 196.273 285.774C195.961 286.103 195.771 286.541 195.701 287.087Z" fill="white"/>
<path d="M202.351 291V284.136H203.937V285.189C204.509 284.392 205.224 283.993 206.082 283.993C206.853 283.993 207.451 284.231 207.876 284.708C208.309 285.176 208.526 285.813 208.526 286.619V291H206.953V287.1C206.953 286.563 206.823 286.151 206.563 285.865C206.312 285.57 205.952 285.423 205.484 285.423C205.016 285.423 204.639 285.575 204.353 285.878C204.076 286.181 203.937 286.597 203.937 287.126V291H202.351Z" fill="white"/>
<path d="M214.349 283.083V281.588H216.039V283.083H214.349ZM214.401 291V284.136H215.987V291H214.401Z" fill="white"/>
<path d="M220.396 291.13C219.321 291.13 218.35 290.788 217.484 290.103L218.186 289.037C218.957 289.6 219.707 289.882 220.435 289.882C220.773 289.882 221.033 289.817 221.215 289.687C221.405 289.548 221.501 289.366 221.501 289.141V289.115C221.501 288.994 221.47 288.89 221.41 288.803C221.349 288.716 221.228 288.63 221.046 288.543C220.864 288.456 220.729 288.4 220.643 288.374C220.565 288.339 220.378 288.279 220.084 288.192C220.032 288.175 219.993 288.162 219.967 288.153C219.663 288.075 219.403 287.993 219.187 287.906C218.979 287.819 218.758 287.702 218.524 287.555C218.298 287.399 218.125 287.204 218.004 286.97C217.882 286.736 217.822 286.463 217.822 286.151V286.125C217.822 285.484 218.051 284.972 218.511 284.591C218.979 284.21 219.564 284.019 220.266 284.019C221.158 284.019 221.999 284.279 222.788 284.799L222.164 285.917C221.453 285.484 220.807 285.267 220.227 285.267C219.932 285.267 219.698 285.332 219.525 285.462C219.351 285.592 219.265 285.752 219.265 285.943V285.969C219.265 286.125 219.347 286.268 219.512 286.398C219.676 286.519 219.845 286.615 220.019 286.684C220.201 286.753 220.465 286.84 220.812 286.944C221.115 287.039 221.371 287.135 221.579 287.23C221.787 287.317 222.003 287.438 222.229 287.594C222.463 287.75 222.64 287.941 222.762 288.166C222.883 288.391 222.944 288.651 222.944 288.946V288.972C222.944 289.665 222.705 290.198 222.229 290.571C221.752 290.944 221.141 291.13 220.396 291.13Z" fill="white"/>
<path d="M228.44 291V284.136H230.026V285.683C230.511 284.513 231.321 283.954 232.457 284.006V285.67H232.366C231.646 285.67 231.074 285.904 230.65 286.372C230.234 286.831 230.026 287.503 230.026 288.387V291H228.44Z" fill="white"/>
<path d="M236.74 291.156C235.735 291.156 234.894 290.827 234.218 290.168C233.551 289.501 233.217 288.643 233.217 287.594V287.568C233.217 286.563 233.534 285.718 234.166 285.033C234.799 284.34 235.601 283.993 236.571 283.993C237.611 283.993 238.417 284.348 238.989 285.059C239.57 285.761 239.86 286.636 239.86 287.685C239.86 287.772 239.852 287.919 239.834 288.127H234.79C234.877 288.682 235.098 289.111 235.453 289.414C235.809 289.717 236.246 289.869 236.766 289.869C237.434 289.869 238.053 289.596 238.625 289.05L239.548 289.869C238.82 290.727 237.884 291.156 236.74 291.156ZM234.777 287.087H238.3C238.248 286.558 238.071 286.125 237.767 285.787C237.464 285.449 237.061 285.28 236.558 285.28C236.073 285.28 235.67 285.445 235.349 285.774C235.037 286.103 234.847 286.541 234.777 287.087Z" fill="white"/>
<path d="M243.416 291.143C242.731 291.143 242.151 290.957 241.674 290.584C241.206 290.211 240.972 289.691 240.972 289.024V288.998C240.972 288.27 241.228 287.72 241.739 287.347C242.259 286.974 242.952 286.788 243.819 286.788C244.452 286.788 245.067 286.883 245.665 287.074V286.905C245.665 285.908 245.097 285.41 243.962 285.41C243.338 285.41 242.684 285.553 241.999 285.839L241.57 284.604C242.445 284.231 243.312 284.045 244.17 284.045C245.193 284.045 245.951 284.301 246.445 284.812C246.939 285.306 247.186 286.012 247.186 286.931V291H245.652V290.142C245.097 290.809 244.352 291.143 243.416 291.143ZM243.858 289.999C244.387 289.999 244.824 289.865 245.171 289.596C245.518 289.319 245.691 288.963 245.691 288.53V288.062C245.223 287.88 244.703 287.789 244.131 287.789C243.62 287.789 243.221 287.889 242.935 288.088C242.658 288.287 242.519 288.569 242.519 288.933V288.959C242.519 289.28 242.645 289.535 242.896 289.726C243.147 289.908 243.468 289.999 243.858 289.999Z" fill="white"/>
<path d="M252.242 291.156C251.228 291.156 250.383 290.814 249.707 290.129C249.031 289.436 248.693 288.595 248.693 287.607V287.581C248.693 286.593 249.031 285.748 249.707 285.046C250.392 284.344 251.245 283.993 252.268 283.993C253.351 283.993 254.266 284.387 255.011 285.176L254.023 286.229C253.477 285.657 252.888 285.371 252.255 285.371C251.692 285.371 251.219 285.583 250.838 286.008C250.457 286.433 250.266 286.948 250.266 287.555V287.581C250.266 288.196 250.457 288.716 250.838 289.141C251.228 289.566 251.722 289.778 252.32 289.778C252.944 289.778 253.538 289.496 254.101 288.933L255.05 289.869C254.677 290.285 254.274 290.606 253.841 290.831C253.408 291.048 252.875 291.156 252.242 291.156Z" fill="white"/>
<path d="M256.484 291V281.51H258.07V285.189C258.642 284.392 259.357 283.993 260.215 283.993C260.986 283.993 261.584 284.231 262.009 284.708C262.442 285.176 262.659 285.813 262.659 286.619V291H261.086V287.1C261.086 286.563 260.956 286.151 260.696 285.865C260.444 285.57 260.085 285.423 259.617 285.423C259.149 285.423 258.772 285.575 258.486 285.878C258.208 286.181 258.07 286.597 258.07 287.126V291H256.484Z" fill="white"/>
<path d="M267.704 291.156C266.699 291.156 265.858 290.827 265.182 290.168C264.515 289.501 264.181 288.643 264.181 287.594V287.568C264.181 286.563 264.498 285.718 265.13 285.033C265.763 284.34 266.565 283.993 267.535 283.993C268.575 283.993 269.381 284.348 269.953 285.059C270.534 285.761 270.824 286.636 270.824 287.685C270.824 287.772 270.816 287.919 270.798 288.127H265.754C265.841 288.682 266.062 289.111 266.417 289.414C266.773 289.717 267.21 289.869 267.73 289.869C268.398 289.869 269.017 289.596 269.589 289.05L270.512 289.869C269.784 290.727 268.848 291.156 267.704 291.156ZM265.741 287.087H269.264C269.212 286.558 269.035 286.125 268.731 285.787C268.428 285.449 268.025 285.28 267.522 285.28C267.037 285.28 266.634 285.445 266.313 285.774C266.001 286.103 265.811 286.541 265.741 287.087Z" fill="white"/>
<path d="M275.238 291.143C274.38 291.143 273.635 290.822 273.002 290.181C272.369 289.54 272.053 288.673 272.053 287.581V287.555C272.053 286.463 272.365 285.596 272.989 284.955C273.622 284.314 274.371 283.993 275.238 283.993C276.2 283.993 276.98 284.396 277.578 285.202V281.51H279.151V291H277.578V289.856C276.971 290.714 276.191 291.143 275.238 291.143ZM275.615 289.778C276.161 289.778 276.629 289.574 277.019 289.167C277.409 288.751 277.604 288.222 277.604 287.581V287.555C277.604 286.914 277.409 286.389 277.019 285.982C276.629 285.566 276.161 285.358 275.615 285.358C275.06 285.358 274.592 285.562 274.211 285.969C273.83 286.368 273.639 286.896 273.639 287.555V287.581C273.639 288.231 273.83 288.76 274.211 289.167C274.592 289.574 275.06 289.778 275.615 289.778Z" fill="white"/>
<g filter="url(#filter3_ddd)">
<path d="M40 187C40 183.686 42.6863 181 46 181H474C477.314 181 480 183.686 480 187V235C480 238.314 477.314 241 474 241H46C42.6863 241 40 238.314 40 235V187Z" fill="white"/>
</g>
<path d="M60.4199 216L64.7319 206.13H66.3279L70.6399 216H68.8199L67.8259 213.634H63.1919L62.1839 216H60.4199ZM63.8219 212.108H67.1959L65.5019 208.188L63.8219 212.108Z" fill="#0F0449"/>
<path d="M72.2085 216V205.78H73.9165V216H72.2085Z" fill="#0F0449"/>
<path d="M79.5183 216.168C78.4357 216.168 77.5303 215.813 76.8023 215.104C76.0837 214.385 75.7243 213.461 75.7243 212.332V212.304C75.7243 211.221 76.065 210.311 76.7463 209.574C77.4277 208.827 78.291 208.454 79.3363 208.454C80.4563 208.454 81.3243 208.837 81.9403 209.602C82.5657 210.358 82.8783 211.301 82.8783 212.43C82.8783 212.523 82.869 212.682 82.8503 212.906H77.4183C77.5117 213.503 77.7497 213.965 78.1323 214.292C78.515 214.619 78.9863 214.782 79.5463 214.782C80.265 214.782 80.9323 214.488 81.5483 213.9L82.5423 214.782C81.7583 215.706 80.7503 216.168 79.5183 216.168ZM77.4043 211.786H81.1983C81.1423 211.217 80.951 210.75 80.6243 210.386C80.2977 210.022 79.8637 209.84 79.3223 209.84C78.7997 209.84 78.3657 210.017 78.0203 210.372C77.6843 210.727 77.479 211.198 77.4043 211.786Z" fill="#0F0449"/>
<path d="M84.5655 216V208.608H86.2735V210.274C86.7962 209.014 87.6689 208.412 88.8915 208.468V210.26H88.7935C88.0189 210.26 87.4029 210.512 86.9455 211.016C86.4975 211.511 86.2735 212.234 86.2735 213.186V216H84.5655Z" fill="#0F0449"/>
<path d="M92.8407 216.126C91.4221 216.126 90.7127 215.403 90.7127 213.956V210.064H89.7747V208.608H90.7127V206.578H92.4067V208.608H94.3947V210.064H92.4067V213.69C92.4067 214.306 92.7101 214.614 93.3167 214.614C93.6807 214.614 94.0307 214.53 94.3667 214.362V215.748C93.9094 216 93.4007 216.126 92.8407 216.126Z" fill="#0F0449"/>
<path d="M103.83 216.168C102.71 216.168 101.777 215.799 101.03 215.062C100.283 214.315 99.9099 213.41 99.9099 212.346V212.318C99.9099 211.245 100.288 210.335 101.044 209.588C101.8 208.832 102.738 208.454 103.858 208.454C104.987 208.454 105.925 208.827 106.672 209.574C107.419 210.311 107.792 211.217 107.792 212.29V212.318C107.792 213.373 107.414 214.278 106.658 215.034C105.902 215.79 104.959 216.168 103.83 216.168ZM103.858 214.684C104.53 214.684 105.071 214.46 105.482 214.012C105.893 213.555 106.098 212.999 106.098 212.346V212.318C106.098 211.655 105.883 211.095 105.454 210.638C105.025 210.171 104.483 209.938 103.83 209.938C103.167 209.938 102.631 210.167 102.22 210.624C101.809 211.072 101.604 211.627 101.604 212.29V212.318C101.604 212.971 101.819 213.531 102.248 213.998C102.677 214.455 103.214 214.684 103.858 214.684Z" fill="#0F0449"/>
<path d="M109.503 216V208.608H111.211V209.742C111.827 208.883 112.597 208.454 113.521 208.454C114.352 208.454 114.996 208.711 115.453 209.224C115.92 209.728 116.153 210.414 116.153 211.282V216H114.459V211.8C114.459 211.221 114.319 210.778 114.039 210.47C113.768 210.153 113.381 209.994 112.877 209.994C112.373 209.994 111.967 210.157 111.659 210.484C111.36 210.811 111.211 211.259 111.211 211.828V216H109.503Z" fill="#0F0449"/>
<path d="M125.91 216.168C124.79 216.168 123.857 215.799 123.11 215.062C122.363 214.315 121.99 213.41 121.99 212.346V212.318C121.99 211.245 122.368 210.335 123.124 209.588C123.88 208.832 124.818 208.454 125.938 208.454C127.067 208.454 128.005 208.827 128.752 209.574C129.499 210.311 129.872 211.217 129.872 212.29V212.318C129.872 213.373 129.494 214.278 128.738 215.034C127.982 215.79 127.039 216.168 125.91 216.168ZM125.938 214.684C126.61 214.684 127.151 214.46 127.562 214.012C127.973 213.555 128.178 212.999 128.178 212.346V212.318C128.178 211.655 127.963 211.095 127.534 210.638C127.105 210.171 126.563 209.938 125.91 209.938C125.247 209.938 124.711 210.167 124.3 210.624C123.889 211.072 123.684 211.627 123.684 212.29V212.318C123.684 212.971 123.899 213.531 124.328 213.998C124.757 214.455 125.294 214.684 125.938 214.684Z" fill="#0F0449"/>
<path d="M135.013 216.168C133.921 216.168 133.011 215.799 132.283 215.062C131.555 214.315 131.191 213.41 131.191 212.346V212.318C131.191 211.254 131.555 210.344 132.283 209.588C133.02 208.832 133.94 208.454 135.041 208.454C136.208 208.454 137.192 208.879 137.995 209.728L136.931 210.862C136.343 210.246 135.708 209.938 135.027 209.938C134.42 209.938 133.912 210.167 133.501 210.624C133.09 211.081 132.885 211.637 132.885 212.29V212.318C132.885 212.981 133.09 213.541 133.501 213.998C133.921 214.455 134.453 214.684 135.097 214.684C135.769 214.684 136.408 214.381 137.015 213.774L138.037 214.782C137.636 215.23 137.202 215.575 136.735 215.818C136.268 216.051 135.694 216.168 135.013 216.168Z" fill="#0F0449"/>
<path d="M142.806 216.168C141.714 216.168 140.804 215.799 140.076 215.062C139.348 214.315 138.984 213.41 138.984 212.346V212.318C138.984 211.254 139.348 210.344 140.076 209.588C140.813 208.832 141.733 208.454 142.834 208.454C144.001 208.454 144.985 208.879 145.788 209.728L144.724 210.862C144.136 210.246 143.501 209.938 142.82 209.938C142.213 209.938 141.705 210.167 141.294 210.624C140.883 211.081 140.678 211.637 140.678 212.29V212.318C140.678 212.981 140.883 213.541 141.294 213.998C141.714 214.455 142.246 214.684 142.89 214.684C143.562 214.684 144.201 214.381 144.808 213.774L145.83 214.782C145.429 215.23 144.995 215.575 144.528 215.818C144.061 216.051 143.487 216.168 142.806 216.168Z" fill="#0F0449"/>
<path d="M149.922 216.154C149.092 216.154 148.443 215.902 147.976 215.398C147.519 214.885 147.29 214.189 147.29 213.312V208.608H148.984V212.808C148.984 213.387 149.12 213.83 149.39 214.138C149.67 214.446 150.062 214.6 150.566 214.6C151.07 214.6 151.472 214.441 151.77 214.124C152.078 213.797 152.232 213.349 152.232 212.78V208.608H153.94V216H152.232V214.852C151.635 215.72 150.865 216.154 149.922 216.154Z" fill="#0F0449"/>
<path d="M156.042 218.24V208.608H157.75V209.84C158.403 208.916 159.243 208.454 160.27 208.454C161.194 208.454 161.997 208.799 162.678 209.49C163.359 210.181 163.7 211.114 163.7 212.29V212.318C163.7 213.494 163.359 214.427 162.678 215.118C162.006 215.809 161.203 216.154 160.27 216.154C159.243 216.154 158.403 215.72 157.75 214.852V218.24H156.042ZM158.338 214.026C158.758 214.465 159.267 214.684 159.864 214.684C160.461 214.684 160.961 214.469 161.362 214.04C161.773 213.601 161.978 213.027 161.978 212.318V212.29C161.978 211.59 161.773 211.021 161.362 210.582C160.951 210.143 160.452 209.924 159.864 209.924C159.267 209.924 158.758 210.148 158.338 210.596C157.918 211.035 157.708 211.599 157.708 212.29V212.318C157.708 213.009 157.918 213.578 158.338 214.026Z" fill="#0F0449"/>
<path d="M167.577 216.154C166.839 216.154 166.214 215.953 165.701 215.552C165.197 215.151 164.945 214.591 164.945 213.872V213.844C164.945 213.06 165.22 212.467 165.771 212.066C166.331 211.665 167.077 211.464 168.011 211.464C168.692 211.464 169.355 211.567 169.999 211.772V211.59C169.999 210.517 169.387 209.98 168.165 209.98C167.493 209.98 166.788 210.134 166.051 210.442L165.589 209.112C166.531 208.711 167.465 208.51 168.389 208.51C169.49 208.51 170.307 208.785 170.839 209.336C171.371 209.868 171.637 210.629 171.637 211.618V216H169.985V215.076C169.387 215.795 168.585 216.154 167.577 216.154ZM168.053 214.922C168.622 214.922 169.093 214.777 169.467 214.488C169.84 214.189 170.027 213.807 170.027 213.34V212.836C169.523 212.64 168.963 212.542 168.347 212.542C167.796 212.542 167.367 212.649 167.059 212.864C166.76 213.079 166.611 213.382 166.611 213.774V213.802C166.611 214.147 166.746 214.423 167.017 214.628C167.287 214.824 167.633 214.922 168.053 214.922Z" fill="#0F0449"/>
<path d="M173.651 216V208.608H175.359V209.742C175.975 208.883 176.745 208.454 177.669 208.454C178.5 208.454 179.144 208.711 179.601 209.224C180.068 209.728 180.301 210.414 180.301 211.282V216H178.607V211.8C178.607 211.221 178.467 210.778 178.187 210.47C177.917 210.153 177.529 209.994 177.025 209.994C176.521 209.994 176.115 210.157 175.807 210.484C175.509 210.811 175.359 211.259 175.359 211.828V216H173.651Z" fill="#0F0449"/>
<path d="M185.763 216.168C184.671 216.168 183.761 215.799 183.033 215.062C182.305 214.315 181.941 213.41 181.941 212.346V212.318C181.941 211.254 182.305 210.344 183.033 209.588C183.77 208.832 184.69 208.454 185.791 208.454C186.958 208.454 187.942 208.879 188.745 209.728L187.681 210.862C187.093 210.246 186.458 209.938 185.777 209.938C185.17 209.938 184.662 210.167 184.251 210.624C183.84 211.081 183.635 211.637 183.635 212.29V212.318C183.635 212.981 183.84 213.541 184.251 213.998C184.671 214.455 185.203 214.684 185.847 214.684C186.519 214.684 187.158 214.381 187.765 213.774L188.787 214.782C188.386 215.23 187.952 215.575 187.485 215.818C187.018 216.051 186.444 216.168 185.763 216.168Z" fill="#0F0449"/>
<path d="M193.469 214.096L195.401 208.608H197.165L194.225 216.196C193.926 216.962 193.595 217.498 193.231 217.806C192.867 218.124 192.386 218.282 191.789 218.282C191.163 218.282 190.58 218.128 190.039 217.82L190.613 216.574C190.967 216.761 191.299 216.854 191.607 216.854C191.859 216.854 192.059 216.789 192.209 216.658C192.367 216.537 192.517 216.322 192.657 216.014L189.577 208.608H191.397L193.469 214.096Z" fill="#0F0449"/>
<path d="M202.898 216V205.78H204.606V216H202.898Z" fill="#0F0449"/>
<path d="M206.848 207.474V205.864H208.668V207.474H206.848ZM206.904 216V208.608H208.612V216H206.904Z" fill="#0F0449"/>
<path d="M210.812 216V208.608H212.52V209.728C213.136 208.879 213.887 208.454 214.774 208.454C215.819 208.454 216.556 208.888 216.986 209.756C217.648 208.888 218.479 208.454 219.478 208.454C220.29 208.454 220.924 208.701 221.382 209.196C221.839 209.691 222.068 210.386 222.068 211.282V216H220.374V211.8C220.374 211.212 220.243 210.764 219.982 210.456C219.72 210.148 219.352 209.994 218.876 209.994C218.4 209.994 218.017 210.157 217.728 210.484C217.438 210.801 217.294 211.249 217.294 211.828V216H215.6V211.786C215.6 211.207 215.469 210.764 215.208 210.456C214.946 210.148 214.578 209.994 214.102 209.994C213.626 209.994 213.243 210.162 212.954 210.498C212.664 210.825 212.52 211.268 212.52 211.828V216H210.812Z" fill="#0F0449"/>
<path d="M224.143 207.474V205.864H225.963V207.474H224.143ZM224.199 216V208.608H225.907V216H224.199Z" fill="#0F0449"/>
<path d="M230.599 216.126C229.18 216.126 228.471 215.403 228.471 213.956V210.064H227.533V208.608H228.471V206.578H230.165V208.608H232.153V210.064H230.165V213.69C230.165 214.306 230.468 214.614 231.075 214.614C231.439 214.614 231.789 214.53 232.125 214.362V215.748C231.667 216 231.159 216.126 230.599 216.126Z" fill="#0F0449"/>
<path d="M390 197C390 193.686 392.686 191 396 191H464C467.314 191 470 193.686 470 197V225C470 228.314 467.314 231 464 231H396C392.686 231 390 228.314 390 225V197Z" fill="#F1F1F9"/>
<path d="M419.586 216V207.88L417.822 208.37L417.458 206.97L420.104 206.13H421.294V216H419.586Z" fill="#0F0449"/>
<path d="M430.779 214.712C429.985 215.683 428.959 216.168 427.699 216.168C426.439 216.168 425.412 215.687 424.619 214.726C423.835 213.755 423.443 212.556 423.443 211.128V211.1C423.443 209.672 423.839 208.473 424.633 207.502C425.435 206.522 426.467 206.032 427.727 206.032C428.987 206.032 430.009 206.518 430.793 207.488C431.586 208.449 431.983 209.644 431.983 211.072V211.1C431.983 212.528 431.581 213.732 430.779 214.712ZM427.727 214.614C428.464 214.614 429.061 214.278 429.519 213.606C429.976 212.934 430.205 212.108 430.205 211.128V211.1C430.205 210.111 429.971 209.28 429.505 208.608C429.038 207.927 428.436 207.586 427.699 207.586C426.961 207.586 426.364 207.922 425.907 208.594C425.449 209.257 425.221 210.083 425.221 211.072V211.1C425.221 212.089 425.449 212.925 425.907 213.606C426.373 214.278 426.98 214.614 427.727 214.614Z" fill="#0F0449"/>
<path d="M440.909 214.712C440.116 215.683 439.089 216.168 437.829 216.168C436.569 216.168 435.543 215.687 434.749 214.726C433.965 213.755 433.573 212.556 433.573 211.128V211.1C433.573 209.672 433.97 208.473 434.763 207.502C435.566 206.522 436.597 206.032 437.857 206.032C439.117 206.032 440.139 206.518 440.923 207.488C441.717 208.449 442.113 209.644 442.113 211.072V211.1C442.113 212.528 441.712 213.732 440.909 214.712ZM437.857 214.614C438.595 214.614 439.192 214.278 439.649 213.606C440.107 212.934 440.335 212.108 440.335 211.128V211.1C440.335 210.111 440.102 209.28 439.635 208.608C439.169 207.927 438.567 207.586 437.829 207.586C437.092 207.586 436.495 207.922 436.037 208.594C435.58 209.257 435.351 210.083 435.351 211.072V211.1C435.351 212.089 435.58 212.925 436.037 213.606C436.504 214.278 437.111 214.614 437.857 214.614Z" fill="#0F0449"/>
<g filter="url(#filter4_ddd)">
<path d="M40 107C40 103.686 42.6863 101 46 101H474C477.314 101 480 103.686 480 107V155C480 158.314 477.314 161 474 161H46C42.6863 161 40 158.314 40 155V107Z" fill="white"/>
</g>
<path d="M73.9059 136.07L70.5039 126.2H72.3659L74.7039 133.466L77.1119 126.172H78.5679L80.9759 133.466L83.3139 126.2H85.1199L81.7179 136.07H80.2199L77.8119 129.028L75.4039 136.07H73.9059Z" fill="#0F0449"/>
<path d="M86.5401 136V125.78H88.2481V129.742C88.8641 128.883 89.6341 128.454 90.5581 128.454C91.3888 128.454 92.0328 128.711 92.4901 129.224C92.9568 129.728 93.1901 130.414 93.1901 131.282V136H91.4961V131.8C91.4961 131.221 91.3561 130.778 91.0761 130.47C90.8055 130.153 90.4181 129.994 89.9141 129.994C89.4101 129.994 89.0041 130.157 88.6961 130.484C88.3975 130.811 88.2481 131.259 88.2481 131.828V136H86.5401Z" fill="#0F0449"/>
<path d="M97.3638 136.154C96.6264 136.154 96.0011 135.953 95.4878 135.552C94.9838 135.151 94.7318 134.591 94.7318 133.872V133.844C94.7318 133.06 95.0071 132.467 95.5578 132.066C96.1178 131.665 96.8644 131.464 97.7978 131.464C98.4791 131.464 99.1418 131.567 99.7858 131.772V131.59C99.7858 130.517 99.1744 129.98 97.9518 129.98C97.2798 129.98 96.5751 130.134 95.8378 130.442L95.3758 129.112C96.3184 128.711 97.2518 128.51 98.1758 128.51C99.2771 128.51 100.094 128.785 100.626 129.336C101.158 129.868 101.424 130.629 101.424 131.618V136H99.7718V135.076C99.1744 135.795 98.3718 136.154 97.3638 136.154ZM97.8398 134.922C98.4091 134.922 98.8804 134.777 99.2538 134.488C99.6271 134.189 99.8138 133.807 99.8138 133.34V132.836C99.3098 132.64 98.7498 132.542 98.1338 132.542C97.5831 132.542 97.1538 132.649 96.8458 132.864C96.5471 133.079 96.3978 133.382 96.3978 133.774V133.802C96.3978 134.147 96.5331 134.423 96.8038 134.628C97.0744 134.824 97.4198 134.922 97.8398 134.922Z" fill="#0F0449"/>
<path d="M105.862 136.126C104.444 136.126 103.734 135.403 103.734 133.956V130.064H102.796V128.608H103.734V126.578H105.428V128.608H107.416V130.064H105.428V133.69C105.428 134.306 105.732 134.614 106.338 134.614C106.702 134.614 107.052 134.53 107.388 134.362V135.748C106.931 136 106.422 136.126 105.862 136.126Z" fill="#0F0449"/>
<path d="M111.674 136.14C110.517 136.14 109.471 135.771 108.538 135.034L109.294 133.886C110.125 134.493 110.932 134.796 111.716 134.796C112.08 134.796 112.36 134.726 112.556 134.586C112.761 134.437 112.864 134.241 112.864 133.998V133.97C112.864 133.839 112.831 133.727 112.766 133.634C112.701 133.541 112.57 133.447 112.374 133.354C112.178 133.261 112.033 133.2 111.94 133.172C111.856 133.135 111.655 133.069 111.338 132.976C111.282 132.957 111.24 132.943 111.212 132.934C110.885 132.85 110.605 132.761 110.372 132.668C110.148 132.575 109.91 132.449 109.658 132.29C109.415 132.122 109.229 131.912 109.098 131.66C108.967 131.408 108.902 131.114 108.902 130.778V130.75C108.902 130.059 109.149 129.509 109.644 129.098C110.148 128.687 110.778 128.482 111.534 128.482C112.495 128.482 113.401 128.762 114.25 129.322L113.578 130.526C112.813 130.059 112.117 129.826 111.492 129.826C111.175 129.826 110.923 129.896 110.736 130.036C110.549 130.176 110.456 130.349 110.456 130.554V130.582C110.456 130.75 110.545 130.904 110.722 131.044C110.899 131.175 111.081 131.277 111.268 131.352C111.464 131.427 111.749 131.52 112.122 131.632C112.449 131.735 112.724 131.837 112.948 131.94C113.172 132.033 113.405 132.164 113.648 132.332C113.9 132.5 114.091 132.705 114.222 132.948C114.353 133.191 114.418 133.471 114.418 133.788V133.816C114.418 134.563 114.161 135.137 113.648 135.538C113.135 135.939 112.477 136.14 111.674 136.14Z" fill="#0F0449"/>
<path d="M122.829 136.126C121.41 136.126 120.701 135.403 120.701 133.956V130.064H119.763V128.608H120.701V126.578H122.395V128.608H124.383V130.064H122.395V133.69C122.395 134.306 122.698 134.614 123.305 134.614C123.669 134.614 124.019 134.53 124.355 134.362V135.748C123.898 136 123.389 136.126 122.829 136.126Z" fill="#0F0449"/>
<path d="M126.093 136V125.78H127.801V129.742C128.417 128.883 129.187 128.454 130.111 128.454C130.942 128.454 131.586 128.711 132.043 129.224C132.51 129.728 132.743 130.414 132.743 131.282V136H131.049V131.8C131.049 131.221 130.909 130.778 130.629 130.47C130.358 130.153 129.971 129.994 129.467 129.994C128.963 129.994 128.557 130.157 128.249 130.484C127.95 130.811 127.801 131.259 127.801 131.828V136H126.093Z" fill="#0F0449"/>
<path d="M138.177 136.168C137.094 136.168 136.189 135.813 135.461 135.104C134.742 134.385 134.383 133.461 134.383 132.332V132.304C134.383 131.221 134.723 130.311 135.405 129.574C136.086 128.827 136.949 128.454 137.995 128.454C139.115 128.454 139.983 128.837 140.599 129.602C141.224 130.358 141.537 131.301 141.537 132.43C141.537 132.523 141.527 132.682 141.509 132.906H136.077C136.17 133.503 136.408 133.965 136.791 134.292C137.173 134.619 137.645 134.782 138.205 134.782C138.923 134.782 139.591 134.488 140.207 133.9L141.201 134.782C140.417 135.706 139.409 136.168 138.177 136.168ZM136.063 131.786H139.857C139.801 131.217 139.609 130.75 139.283 130.386C138.956 130.022 138.522 129.84 137.981 129.84C137.458 129.84 137.024 130.017 136.679 130.372C136.343 130.727 136.137 131.198 136.063 131.786Z" fill="#0F0449"/>
<path d="M147.421 136V128.608H149.129V129.728C149.745 128.879 150.496 128.454 151.383 128.454C152.428 128.454 153.166 128.888 153.595 129.756C154.258 128.888 155.088 128.454 156.087 128.454C156.899 128.454 157.534 128.701 157.991 129.196C158.448 129.691 158.677 130.386 158.677 131.282V136H156.983V131.8C156.983 131.212 156.852 130.764 156.591 130.456C156.33 130.148 155.961 129.994 155.485 129.994C155.009 129.994 154.626 130.157 154.337 130.484C154.048 130.801 153.903 131.249 153.903 131.828V136H152.209V131.786C152.209 131.207 152.078 130.764 151.817 130.456C151.556 130.148 151.187 129.994 150.711 129.994C150.235 129.994 149.852 130.162 149.563 130.498C149.274 130.825 149.129 131.268 149.129 131.828V136H147.421Z" fill="#0F0449"/>
<path d="M162.852 136.154C162.115 136.154 161.489 135.953 160.976 135.552C160.472 135.151 160.22 134.591 160.22 133.872V133.844C160.22 133.06 160.495 132.467 161.046 132.066C161.606 131.665 162.353 131.464 163.286 131.464C163.967 131.464 164.63 131.567 165.274 131.772V131.59C165.274 130.517 164.663 129.98 163.44 129.98C162.768 129.98 162.063 130.134 161.326 130.442L160.864 129.112C161.807 128.711 162.74 128.51 163.664 128.51C164.765 128.51 165.582 128.785 166.114 129.336C166.646 129.868 166.912 130.629 166.912 131.618V136H165.26V135.076C164.663 135.795 163.86 136.154 162.852 136.154ZM163.328 134.922C163.897 134.922 164.369 134.777 164.742 134.488C165.115 134.189 165.302 133.807 165.302 133.34V132.836C164.798 132.64 164.238 132.542 163.622 132.542C163.071 132.542 162.642 132.649 162.334 132.864C162.035 133.079 161.886 133.382 161.886 133.774V133.802C161.886 134.147 162.021 134.423 162.292 134.628C162.563 134.824 162.908 134.922 163.328 134.922Z" fill="#0F0449"/>
<path d="M170.243 128.608L171.937 131.086L173.659 128.608H175.465L172.861 132.22L175.577 136H173.729L171.909 133.368L170.103 136H168.297L170.999 132.234L168.395 128.608H170.243Z" fill="#0F0449"/>
<path d="M184.675 136.168C183.583 136.168 182.673 135.799 181.945 135.062C181.217 134.315 180.853 133.41 180.853 132.346V132.318C180.853 131.254 181.217 130.344 181.945 129.588C182.683 128.832 183.602 128.454 184.703 128.454C185.87 128.454 186.855 128.879 187.657 129.728L186.593 130.862C186.005 130.246 185.371 129.938 184.689 129.938C184.083 129.938 183.574 130.167 183.163 130.624C182.753 131.081 182.547 131.637 182.547 132.29V132.318C182.547 132.981 182.753 133.541 183.163 133.998C183.583 134.455 184.115 134.684 184.759 134.684C185.431 134.684 186.071 134.381 186.677 133.774L187.699 134.782C187.298 135.23 186.864 135.575 186.397 135.818C185.931 136.051 185.357 136.168 184.675 136.168Z" fill="#0F0449"/>
<path d="M191.385 136.154C190.648 136.154 190.023 135.953 189.509 135.552C189.005 135.151 188.753 134.591 188.753 133.872V133.844C188.753 133.06 189.029 132.467 189.579 132.066C190.139 131.665 190.886 131.464 191.819 131.464C192.501 131.464 193.163 131.567 193.807 131.772V131.59C193.807 130.517 193.196 129.98 191.973 129.98C191.301 129.98 190.597 130.134 189.859 130.442L189.397 129.112C190.34 128.711 191.273 128.51 192.197 128.51C193.299 128.51 194.115 128.785 194.647 129.336C195.179 129.868 195.445 130.629 195.445 131.618V136H193.793V135.076C193.196 135.795 192.393 136.154 191.385 136.154ZM191.861 134.922C192.431 134.922 192.902 134.777 193.275 134.488C193.649 134.189 193.835 133.807 193.835 133.34V132.836C193.331 132.64 192.771 132.542 192.155 132.542C191.605 132.542 191.175 132.649 190.867 132.864C190.569 133.079 190.419 133.382 190.419 133.774V133.802C190.419 134.147 190.555 134.423 190.825 134.628C191.096 134.824 191.441 134.922 191.861 134.922Z" fill="#0F0449"/>
<path d="M197.46 138.24V128.608H199.168V129.84C199.821 128.916 200.661 128.454 201.688 128.454C202.612 128.454 203.415 128.799 204.096 129.49C204.777 130.181 205.118 131.114 205.118 132.29V132.318C205.118 133.494 204.777 134.427 204.096 135.118C203.424 135.809 202.621 136.154 201.688 136.154C200.661 136.154 199.821 135.72 199.168 134.852V138.24H197.46ZM199.756 134.026C200.176 134.465 200.685 134.684 201.282 134.684C201.879 134.684 202.379 134.469 202.78 134.04C203.191 133.601 203.396 133.027 203.396 132.318V132.29C203.396 131.59 203.191 131.021 202.78 130.582C202.369 130.143 201.87 129.924 201.282 129.924C200.685 129.924 200.176 130.148 199.756 130.596C199.336 131.035 199.126 131.599 199.126 132.29V132.318C199.126 133.009 199.336 133.578 199.756 134.026Z" fill="#0F0449"/>
<path d="M208.995 136.154C208.257 136.154 207.632 135.953 207.119 135.552C206.615 135.151 206.363 134.591 206.363 133.872V133.844C206.363 133.06 206.638 132.467 207.189 132.066C207.749 131.665 208.495 131.464 209.429 131.464C210.11 131.464 210.773 131.567 211.417 131.772V131.59C211.417 130.517 210.805 129.98 209.583 129.98C208.911 129.98 208.206 130.134 207.469 130.442L207.007 129.112C207.949 128.711 208.883 128.51 209.807 128.51C210.908 128.51 211.725 128.785 212.257 129.336C212.789 129.868 213.055 130.629 213.055 131.618V136H211.403V135.076C210.805 135.795 210.003 136.154 208.995 136.154ZM209.471 134.922C210.04 134.922 210.511 134.777 210.885 134.488C211.258 134.189 211.445 133.807 211.445 133.34V132.836C210.941 132.64 210.381 132.542 209.765 132.542C209.214 132.542 208.785 132.649 208.477 132.864C208.178 133.079 208.029 133.382 208.029 133.774V133.802C208.029 134.147 208.164 134.423 208.435 134.628C208.705 134.824 209.051 134.922 209.471 134.922Z" fill="#0F0449"/>
<path d="M218.499 136.168C217.407 136.168 216.497 135.799 215.769 135.062C215.041 134.315 214.677 133.41 214.677 132.346V132.318C214.677 131.254 215.041 130.344 215.769 129.588C216.507 128.832 217.426 128.454 218.527 128.454C219.694 128.454 220.679 128.879 221.481 129.728L220.417 130.862C219.829 130.246 219.195 129.938 218.513 129.938C217.907 129.938 217.398 130.167 216.987 130.624C216.577 131.081 216.371 131.637 216.371 132.29V132.318C216.371 132.981 216.577 133.541 216.987 133.998C217.407 134.455 217.939 134.684 218.583 134.684C219.255 134.684 219.895 134.381 220.501 133.774L221.523 134.782C221.122 135.23 220.688 135.575 220.221 135.818C219.755 136.051 219.181 136.168 218.499 136.168Z" fill="#0F0449"/>
<path d="M223.109 127.474V125.864H224.929V127.474H223.109ZM223.165 136V128.608H224.873V136H223.165Z" fill="#0F0449"/>
<path d="M229.565 136.126C228.147 136.126 227.437 135.403 227.437 133.956V130.064H226.499V128.608H227.437V126.578H229.131V128.608H231.119V130.064H229.131V133.69C229.131 134.306 229.435 134.614 230.041 134.614C230.405 134.614 230.755 134.53 231.091 134.362V135.748C230.634 136 230.125 136.126 229.565 136.126Z" fill="#0F0449"/>
<path d="M236.035 134.096L237.967 128.608H239.731L236.791 136.196C236.493 136.962 236.161 137.498 235.797 137.806C235.433 138.124 234.953 138.282 234.355 138.282C233.73 138.282 233.147 138.128 232.605 137.82L233.179 136.574C233.534 136.761 233.865 136.854 234.173 136.854C234.425 136.854 234.626 136.789 234.775 136.658C234.934 136.537 235.083 136.322 235.223 136.014L232.143 128.608H233.963L236.035 134.096Z" fill="#0F0449"/>
<path d="M245.758 136V130.064H244.82V128.65H245.758V128.104C245.758 127.292 245.959 126.685 246.36 126.284C246.752 125.892 247.303 125.696 248.012 125.696C248.498 125.696 248.96 125.761 249.398 125.892V127.32C249.034 127.199 248.703 127.138 248.404 127.138C247.751 127.138 247.424 127.511 247.424 128.258V128.664H249.384V130.064H247.452V136H245.758Z" fill="#0F0449"/>
<path d="M254.021 136.168C252.901 136.168 251.968 135.799 251.221 135.062C250.475 134.315 250.101 133.41 250.101 132.346V132.318C250.101 131.245 250.479 130.335 251.235 129.588C251.991 128.832 252.929 128.454 254.049 128.454C255.179 128.454 256.117 128.827 256.863 129.574C257.61 130.311 257.983 131.217 257.983 132.29V132.318C257.983 133.373 257.605 134.278 256.849 135.034C256.093 135.79 255.151 136.168 254.021 136.168ZM254.049 134.684C254.721 134.684 255.263 134.46 255.673 134.012C256.084 133.555 256.289 132.999 256.289 132.346V132.318C256.289 131.655 256.075 131.095 255.645 130.638C255.216 130.171 254.675 129.938 254.021 129.938C253.359 129.938 252.822 130.167 252.411 130.624C252.001 131.072 251.795 131.627 251.795 132.29V132.318C251.795 132.971 252.01 133.531 252.439 133.998C252.869 134.455 253.405 134.684 254.049 134.684Z" fill="#0F0449"/>
<path d="M259.694 136V128.608H261.402V130.274C261.925 129.014 262.798 128.412 264.02 128.468V130.26H263.922C263.148 130.26 262.532 130.512 262.074 131.016C261.626 131.511 261.402 132.234 261.402 133.186V136H259.694Z" fill="#0F0449"/>
<path d="M272.167 136.126C270.748 136.126 270.039 135.403 270.039 133.956V130.064H269.101V128.608H270.039V126.578H271.733V128.608H273.721V130.064H271.733V133.69C271.733 134.306 272.036 134.614 272.643 134.614C273.007 134.614 273.357 134.53 273.693 134.362V135.748C273.236 136 272.727 136.126 272.167 136.126Z" fill="#0F0449"/>
<path d="M275.431 136V125.78H277.139V129.742C277.755 128.883 278.525 128.454 279.449 128.454C280.279 128.454 280.923 128.711 281.381 129.224C281.847 129.728 282.081 130.414 282.081 131.282V136H280.387V131.8C280.387 131.221 280.247 130.778 279.967 130.47C279.696 130.153 279.309 129.994 278.805 129.994C278.301 129.994 277.895 130.157 277.587 130.484C277.288 130.811 277.139 131.259 277.139 131.828V136H275.431Z" fill="#0F0449"/>
<path d="M284.154 127.474V125.864H285.974V127.474H284.154ZM284.21 136V128.608H285.918V136H284.21Z" fill="#0F0449"/>
<path d="M290.666 136.14C289.509 136.14 288.464 135.771 287.53 135.034L288.286 133.886C289.117 134.493 289.924 134.796 290.708 134.796C291.072 134.796 291.352 134.726 291.548 134.586C291.754 134.437 291.856 134.241 291.856 133.998V133.97C291.856 133.839 291.824 133.727 291.758 133.634C291.693 133.541 291.562 133.447 291.366 133.354C291.17 133.261 291.026 133.2 290.932 133.172C290.848 133.135 290.648 133.069 290.33 132.976C290.274 132.957 290.232 132.943 290.204 132.934C289.878 132.85 289.598 132.761 289.364 132.668C289.14 132.575 288.902 132.449 288.65 132.29C288.408 132.122 288.221 131.912 288.09 131.66C287.96 131.408 287.894 131.114 287.894 130.778V130.75C287.894 130.059 288.142 129.509 288.636 129.098C289.14 128.687 289.77 128.482 290.526 128.482C291.488 128.482 292.393 128.762 293.242 129.322L292.57 130.526C291.805 130.059 291.11 129.826 290.484 129.826C290.167 129.826 289.915 129.896 289.728 130.036C289.542 130.176 289.448 130.349 289.448 130.554V130.582C289.448 130.75 289.537 130.904 289.714 131.044C289.892 131.175 290.074 131.277 290.26 131.352C290.456 131.427 290.741 131.52 291.114 131.632C291.441 131.735 291.716 131.837 291.94 131.94C292.164 132.033 292.398 132.164 292.64 132.332C292.892 132.5 293.084 132.705 293.214 132.948C293.345 133.191 293.41 133.471 293.41 133.788V133.816C293.41 134.563 293.154 135.137 292.64 135.538C292.127 135.939 291.469 136.14 290.666 136.14Z" fill="#0F0449"/>
<path d="M301.877 136.14C300.72 136.14 299.675 135.771 298.741 135.034L299.497 133.886C300.328 134.493 301.135 134.796 301.919 134.796C302.283 134.796 302.563 134.726 302.759 134.586C302.965 134.437 303.067 134.241 303.067 133.998V133.97C303.067 133.839 303.035 133.727 302.969 133.634C302.904 133.541 302.773 133.447 302.577 133.354C302.381 133.261 302.237 133.2 302.143 133.172C302.059 133.135 301.859 133.069 301.541 132.976C301.485 132.957 301.443 132.943 301.415 132.934C301.089 132.85 300.809 132.761 300.575 132.668C300.351 132.575 300.113 132.449 299.861 132.29C299.619 132.122 299.432 131.912 299.301 131.66C299.171 131.408 299.105 131.114 299.105 130.778V130.75C299.105 130.059 299.353 129.509 299.847 129.098C300.351 128.687 300.981 128.482 301.737 128.482C302.699 128.482 303.604 128.762 304.453 129.322L303.781 130.526C303.016 130.059 302.321 129.826 301.695 129.826C301.378 129.826 301.126 129.896 300.939 130.036C300.753 130.176 300.659 130.349 300.659 130.554V130.582C300.659 130.75 300.748 130.904 300.925 131.044C301.103 131.175 301.285 131.277 301.471 131.352C301.667 131.427 301.952 131.52 302.325 131.632C302.652 131.735 302.927 131.837 303.151 131.94C303.375 132.033 303.609 132.164 303.851 132.332C304.103 132.5 304.295 132.705 304.425 132.948C304.556 133.191 304.621 133.471 304.621 133.788V133.816C304.621 134.563 304.365 135.137 303.851 135.538C303.338 135.939 302.68 136.14 301.877 136.14Z" fill="#0F0449"/>
<path d="M306.385 127.474V125.864H308.205V127.474H306.385ZM306.441 136V128.608H308.149V136H306.441Z" fill="#0F0449"/>
<path d="M312.841 136.126C311.422 136.126 310.713 135.403 310.713 133.956V130.064H309.775V128.608H310.713V126.578H312.407V128.608H314.395V130.064H312.407V133.69C312.407 134.306 312.71 134.614 313.317 134.614C313.681 134.614 314.031 134.53 314.367 134.362V135.748C313.909 136 313.401 136.126 312.841 136.126Z" fill="#0F0449"/>
<path d="M319.301 136.168C318.219 136.168 317.313 135.813 316.585 135.104C315.867 134.385 315.507 133.461 315.507 132.332V132.304C315.507 131.221 315.848 130.311 316.529 129.574C317.211 128.827 318.074 128.454 319.119 128.454C320.239 128.454 321.107 128.837 321.723 129.602C322.349 130.358 322.661 131.301 322.661 132.43C322.661 132.523 322.652 132.682 322.633 132.906H317.201C317.295 133.503 317.533 133.965 317.915 134.292C318.298 134.619 318.769 134.782 319.329 134.782C320.048 134.782 320.715 134.488 321.331 133.9L322.325 134.782C321.541 135.706 320.533 136.168 319.301 136.168ZM317.187 131.786H320.981C320.925 131.217 320.734 130.75 320.407 130.386C320.081 130.022 319.647 129.84 319.105 129.84C318.583 129.84 318.149 130.017 317.803 130.372C317.467 130.727 317.262 131.198 317.187 131.786Z" fill="#0F0449"/>
<path d="M325.636 132.892L325.356 130.624L325.426 130.554C327.143 130.498 328.002 129.98 328.002 129V128.972C328.002 128.571 327.857 128.249 327.568 128.006C327.288 127.763 326.901 127.642 326.406 127.642C325.575 127.642 324.815 128.011 324.124 128.748L323.074 127.628C323.989 126.592 325.113 126.074 326.448 126.074C327.437 126.074 328.231 126.33 328.828 126.844C329.435 127.357 329.738 128.048 329.738 128.916V128.944C329.738 129.775 329.477 130.419 328.954 130.876C328.441 131.333 327.759 131.632 326.91 131.772L326.77 132.892H325.636ZM325.23 136V134.068H327.106V136H325.23Z" fill="#0F0449"/>
<path d="M390 117C390 113.686 392.686 111 396 111H464C467.314 111 470 113.686 470 117V145C470 148.314 467.314 151 464 151H396C392.686 151 390 148.314 390 145V117Z" fill="#F1F1F9"/>
<path d="M425.059 136.168C423.929 136.168 423.019 135.823 422.329 135.132C421.937 134.74 421.638 134.255 421.433 133.676C421.237 133.097 421.139 132.337 421.139 131.394V131.366C421.139 129.807 421.503 128.529 422.231 127.53C422.968 126.532 424.004 126.032 425.339 126.032C426.431 126.032 427.429 126.396 428.335 127.124L427.411 128.468C427.037 128.17 426.692 127.95 426.375 127.81C426.057 127.67 425.693 127.6 425.283 127.6C424.741 127.6 424.289 127.773 423.925 128.118C423.561 128.463 423.309 128.86 423.169 129.308C423.029 129.747 422.949 130.218 422.931 130.722C423.565 130.059 424.349 129.728 425.283 129.728C426.272 129.728 427.089 130.003 427.733 130.554C428.377 131.105 428.699 131.856 428.699 132.808V132.836C428.699 133.807 428.349 134.605 427.649 135.23C426.958 135.855 426.095 136.168 425.059 136.168ZM423.547 134.18C423.92 134.507 424.41 134.67 425.017 134.67C425.623 134.67 426.099 134.507 426.445 134.18C426.799 133.844 426.977 133.419 426.977 132.906V132.878C426.977 132.374 426.795 131.963 426.431 131.646C426.067 131.329 425.581 131.17 424.975 131.17C424.377 131.17 423.897 131.338 423.533 131.674C423.169 132.001 422.987 132.407 422.987 132.892V132.92C422.987 133.433 423.173 133.853 423.547 134.18Z" fill="#0F0449"/>
<path d="M437.662 134.712C436.869 135.683 435.842 136.168 434.582 136.168C433.322 136.168 432.296 135.687 431.502 134.726C430.718 133.755 430.326 132.556 430.326 131.128V131.1C430.326 129.672 430.723 128.473 431.516 127.502C432.319 126.522 433.35 126.032 434.61 126.032C435.87 126.032 436.892 126.518 437.676 127.488C438.47 128.449 438.866 129.644 438.866 131.072V131.1C438.866 132.528 438.465 133.732 437.662 134.712ZM434.61 134.614C435.348 134.614 435.945 134.278 436.402 133.606C436.86 132.934 437.088 132.108 437.088 131.128V131.1C437.088 130.111 436.855 129.28 436.388 128.608C435.922 127.927 435.32 127.586 434.582 127.586C433.845 127.586 433.248 127.922 432.79 128.594C432.333 129.257 432.104 130.083 432.104 131.072V131.1C432.104 132.089 432.333 132.925 432.79 133.606C433.257 134.278 433.864 134.614 434.61 134.614Z" fill="#0F0449"/>
<path d="M199.962 65.2003C197.722 65.2003 195.775 64.4536 194.122 62.9603L195.602 61.2003C197.002 62.4136 198.475 63.0203 200.022 63.0203C200.782 63.0203 201.382 62.8603 201.822 62.5403C202.275 62.207 202.502 61.7803 202.502 61.2603V61.2203C202.502 60.7003 202.282 60.287 201.842 59.9803C201.415 59.6603 200.582 59.3603 199.342 59.0803C197.728 58.707 196.548 58.2203 195.802 57.6203C195.055 57.0203 194.682 56.1137 194.682 54.9004V54.8604C194.682 53.6604 195.128 52.687 196.022 51.9404C196.915 51.1804 198.062 50.8004 199.462 50.8004C201.368 50.8004 203.062 51.387 204.542 52.5604L203.222 54.4204C201.915 53.4604 200.648 52.9804 199.422 52.9804C198.715 52.9804 198.155 53.1404 197.742 53.4604C197.342 53.767 197.142 54.1604 197.142 54.6404V54.6804C197.142 55.227 197.362 55.6537 197.802 55.9603C198.255 56.2537 199.148 56.5603 200.482 56.8803C202.042 57.2803 203.175 57.787 203.882 58.4003C204.602 59.0003 204.962 59.8603 204.962 60.9803V61.0203C204.962 62.3136 204.502 63.3336 203.582 64.0803C202.662 64.8269 201.455 65.2003 199.962 65.2003Z" fill="#5C5C8A"/>
<path d="M212.415 65.2403C210.868 65.2403 209.575 64.7336 208.535 63.7203C207.508 62.6936 206.995 61.3736 206.995 59.7603V59.7203C206.995 58.1737 207.481 56.8737 208.455 55.8203C209.428 54.7537 210.661 54.2204 212.155 54.2204C213.755 54.2204 214.995 54.767 215.875 55.8603C216.768 56.9403 217.215 58.287 217.215 59.9003C217.215 60.0337 217.201 60.2603 217.175 60.5803H209.415C209.548 61.4336 209.888 62.0936 210.435 62.5603C210.981 63.027 211.655 63.2603 212.455 63.2603C213.481 63.2603 214.435 62.8403 215.315 62.0003L216.735 63.2603C215.615 64.5803 214.175 65.2403 212.415 65.2403ZM209.395 58.9803H214.815C214.735 58.167 214.461 57.5003 213.995 56.9803C213.528 56.4603 212.908 56.2003 212.135 56.2003C211.388 56.2003 210.768 56.4537 210.275 56.9603C209.795 57.467 209.501 58.1403 209.395 58.9803Z" fill="#5C5C8A"/>
<path d="M223.185 65.1803C221.158 65.1803 220.145 64.147 220.145 62.0803V56.5203H218.805V54.4404H220.145V51.5404H222.565V54.4404H225.405V56.5203H222.565V61.7003C222.565 62.5803 222.998 63.0203 223.865 63.0203C224.385 63.0203 224.885 62.9003 225.365 62.6603V64.6403C224.712 65.0003 223.985 65.1803 223.185 65.1803Z" fill="#5C5C8A"/>
<path d="M238.424 62.2803L241.184 54.4404H243.704L239.504 65.2803C239.077 66.3736 238.604 67.1403 238.084 67.5803C237.564 68.0336 236.877 68.2603 236.024 68.2603C235.13 68.2603 234.297 68.0403 233.524 67.6003L234.344 65.8203C234.85 66.0869 235.324 66.2203 235.764 66.2203C236.124 66.2203 236.41 66.1269 236.624 65.9403C236.85 65.7669 237.064 65.4603 237.264 65.0203L232.864 54.4404H235.464L238.424 62.2803Z" fill="#5C5C8A"/>
<path d="M250.192 65.2403C248.592 65.2403 247.259 64.7136 246.192 63.6603C245.126 62.5936 244.592 61.3003 244.592 59.7803V59.7403C244.592 58.207 245.132 56.907 246.212 55.8403C247.292 54.7604 248.632 54.2204 250.232 54.2204C251.846 54.2204 253.186 54.7537 254.252 55.8203C255.319 56.8737 255.852 58.167 255.852 59.7003V59.7403C255.852 61.247 255.312 62.5403 254.232 63.6203C253.152 64.7003 251.806 65.2403 250.192 65.2403ZM250.232 63.1203C251.192 63.1203 251.966 62.8003 252.552 62.1603C253.139 61.507 253.432 60.7136 253.432 59.7803V59.7403C253.432 58.7937 253.126 57.9937 252.512 57.3403C251.899 56.6737 251.126 56.3403 250.192 56.3403C249.246 56.3403 248.479 56.667 247.892 57.3203C247.306 57.9603 247.012 58.7537 247.012 59.7003V59.7403C247.012 60.6736 247.319 61.4736 247.932 62.1403C248.546 62.7936 249.312 63.1203 250.232 63.1203Z" fill="#5C5C8A"/>
<path d="M261.957 65.2203C260.77 65.2203 259.843 64.8603 259.177 64.1403C258.523 63.407 258.197 62.4136 258.197 61.1603V54.4404H260.617V60.4403C260.617 61.267 260.81 61.9003 261.197 62.3403C261.597 62.7803 262.157 63.0003 262.877 63.0003C263.597 63.0003 264.17 62.7736 264.597 62.3203C265.037 61.8536 265.257 61.2136 265.257 60.4003V54.4404H267.697V65.0003H265.257V63.3603C264.403 64.6003 263.303 65.2203 261.957 65.2203Z" fill="#5C5C8A"/>
<path d="M270.699 65.0003V54.4404H273.139V56.8203C273.886 55.0204 275.132 54.1604 276.879 54.2404V56.8003H276.739C275.632 56.8003 274.752 57.1603 274.099 57.8803C273.459 58.587 273.139 59.6203 273.139 60.9803V65.0003H270.699Z" fill="#5C5C8A"/>
<path d="M284.957 68.2003V54.4404H287.397V56.2003C288.33 54.8804 289.53 54.2204 290.997 54.2204C292.317 54.2204 293.464 54.7137 294.437 55.7003C295.41 56.687 295.897 58.0203 295.897 59.7003V59.7403C295.897 61.4203 295.41 62.7536 294.437 63.7403C293.477 64.7269 292.33 65.2203 290.997 65.2203C289.53 65.2203 288.33 64.6003 287.397 63.3603V68.2003H284.957ZM288.237 62.1803C288.837 62.807 289.564 63.1203 290.417 63.1203C291.27 63.1203 291.984 62.8136 292.557 62.2003C293.144 61.5736 293.437 60.7536 293.437 59.7403V59.7003C293.437 58.7003 293.144 57.887 292.557 57.2603C291.97 56.6337 291.257 56.3203 290.417 56.3203C289.564 56.3203 288.837 56.6403 288.237 57.2803C287.637 57.907 287.337 58.7137 287.337 59.7003V59.7403C287.337 60.727 287.637 61.5403 288.237 62.1803Z" fill="#5C5C8A"/>
<path d="M298.515 65.0003V50.4004H300.955V65.0003H298.515Z" fill="#5C5C8A"/>
<path d="M307.158 65.2203C306.104 65.2203 305.211 64.9336 304.478 64.3603C303.758 63.787 303.398 62.987 303.398 61.9603V61.9203C303.398 60.8003 303.791 59.9537 304.578 59.3803C305.378 58.807 306.444 58.5203 307.778 58.5203C308.751 58.5203 309.698 58.667 310.618 58.9603V58.7003C310.618 57.167 309.744 56.4003 307.998 56.4003C307.038 56.4003 306.031 56.6203 304.978 57.0603L304.318 55.1604C305.664 54.587 306.998 54.3004 308.318 54.3004C309.891 54.3004 311.058 54.6937 311.818 55.4804C312.578 56.2403 312.958 57.327 312.958 58.7403V65.0003H310.598V63.6803C309.744 64.7069 308.598 65.2203 307.158 65.2203ZM307.838 63.4603C308.651 63.4603 309.324 63.2536 309.858 62.8403C310.391 62.4136 310.658 61.867 310.658 61.2003V60.4803C309.938 60.2003 309.138 60.0603 308.258 60.0603C307.471 60.0603 306.858 60.2136 306.418 60.5203C305.991 60.827 305.778 61.2603 305.778 61.8203V61.8603C305.778 62.3536 305.971 62.747 306.358 63.0403C306.744 63.3203 307.238 63.4603 307.838 63.4603Z" fill="#5C5C8A"/>
<path d="M315.836 65.0003V54.4404H318.276V56.0603C319.156 54.8337 320.256 54.2204 321.576 54.2204C322.762 54.2204 323.682 54.587 324.336 55.3204C325.002 56.0403 325.336 57.0203 325.336 58.2603V65.0003H322.916V59.0003C322.916 58.1737 322.716 57.5403 322.316 57.1003C321.929 56.647 321.376 56.4203 320.656 56.4203C319.936 56.4203 319.356 56.6537 318.916 57.1203C318.489 57.587 318.276 58.227 318.276 59.0403V65.0003H315.836Z" fill="#5C5C8A"/>
<defs>
<filter id="filter0_ddd" x="0" y="0" width="520" height="446" filterUnits="userSpaceOnUse" color-interpolation-filters="sRGB">
<feFlood flood-opacity="0" result="BackgroundImageFix"/>
<feColorMatrix in="SourceAlpha" type="matrix" values="0 0 0 0 0 0 0 0 0 0 0 0 0 0 0 0 0 0 127 0"/>
<feOffset dy="10"/>
<feGaussianBlur stdDeviation="5"/>
<feColorMatrix type="matrix" values="0 0 0 0 0.0313726 0 0 0 0 0.109804 0 0 0 0 0.270588 0 0 0 0.05 0"/>
<feBlend mode="normal" in2="BackgroundImageFix" result="effect1_dropShadow"/>
<feColorMatrix in="SourceAlpha" type="matrix" values="0 0 0 0 0 0 0 0 0 0 0 0 0 0 0 0 0 0 127 0"/>
<feOffset dy="5"/>
<feGaussianBlur stdDeviation="10"/>
<feColorMatrix type="matrix" values="0 0 0 0 0.0313726 0 0 0 0 0.109804 0 0 0 0 0.270588 0 0 0 0.05 0"/>
<feBlend mode="normal" in2="effect1_dropShadow" result="effect2_dropShadow"/>
<feColorMatrix in="SourceAlpha" type="matrix" values="0 0 0 0 0 0 0 0 0 0 0 0 0 0 0 0 0 0 127 0"/>
<feOffset dy="5"/>
<feGaussianBlur stdDeviation="2.5"/>
<feColorMatrix type="matrix" values="0 0 0 0 0.0313726 0 0 0 0 0.109804 0 0 0 0 0.270588 0 0 0 0.05 0"/>
<feBlend mode="normal" in2="effect2_dropShadow" result="effect3_dropShadow"/>
<feBlend mode="normal" in="SourceGraphic" in2="effect3_dropShadow" result="shape"/>
</filter>
<filter id="filter1_ddd" x="0" y="311" width="520" height="140" filterUnits="userSpaceOnUse" color-interpolation-filters="sRGB">
<feFlood flood-opacity="0" result="BackgroundImageFix"/>
<feColorMatrix in="SourceAlpha" type="matrix" values="0 0 0 0 0 0 0 0 0 0 0 0 0 0 0 0 0 0 127 0"/>
<feOffset dy="20"/>
<feGaussianBlur stdDeviation="20"/>
<feColorMatrix type="matrix" values="0 0 0 0 0.0313726 0 0 0 0 0.109804 0 0 0 0 0.270588 0 0 0 0.25 0"/>
<feBlend mode="normal" in2="BackgroundImageFix" result="effect1_dropShadow"/>
<feColorMatrix in="SourceAlpha" type="matrix" values="0 0 0 0 0 0 0 0 0 0 0 0 0 0 0 0 0 0 127 0"/>
<feOffset dy="10"/>
<feGaussianBlur stdDeviation="10"/>
<feColorMatrix type="matrix" values="0 0 0 0 0.0313726 0 0 0 0 0.109804 0 0 0 0 0.270588 0 0 0 0.15 0"/>
<feBlend mode="normal" in2="effect1_dropShadow" result="effect2_dropShadow"/>
<feColorMatrix in="SourceAlpha" type="matrix" values="0 0 0 0 0 0 0 0 0 0 0 0 0 0 0 0 0 0 127 0"/>
<feOffset dy="5"/>
<feGaussianBlur stdDeviation="5"/>
<feColorMatrix type="matrix" values="0 0 0 0 0.0313726 0 0 0 0 0.109804 0 0 0 0 0.270588 0 0 0 0.25 0"/>
<feBlend mode="normal" in2="effect2_dropShadow" result="effect3_dropShadow"/>
<feBlend mode="normal" in="SourceGraphic" in2="effect3_dropShadow" result="shape"/>
</filter>
<filter id="filter2_ddd" x="20" y="246" width="480" height="90" filterUnits="userSpaceOnUse" color-interpolation-filters="sRGB">
<feFlood flood-opacity="0" result="BackgroundImageFix"/>
<feColorMatrix in="SourceAlpha" type="matrix" values="0 0 0 0 0 0 0 0 0 0 0 0 0 0 0 0 0 0 127 0"/>
<feOffset dy="10"/>
<feGaussianBlur stdDeviation="5"/>
<feColorMatrix type="matrix" values="0 0 0 0 0.0313726 0 0 0 0 0.109804 0 0 0 0 0.270588 0 0 0 0.05 0"/>
<feBlend mode="normal" in2="BackgroundImageFix" result="effect1_dropShadow"/>
<feColorMatrix in="SourceAlpha" type="matrix" values="0 0 0 0 0 0 0 0 0 0 0 0 0 0 0 0 0 0 127 0"/>
<feOffset dy="5"/>
<feGaussianBlur stdDeviation="10"/>
<feColorMatrix type="matrix" values="0 0 0 0 0.0313726 0 0 0 0 0.109804 0 0 0 0 0.270588 0 0 0 0.05 0"/>
<feBlend mode="normal" in2="effect1_dropShadow" result="effect2_dropShadow"/>
<feColorMatrix in="SourceAlpha" type="matrix" values="0 0 0 0 0 0 0 0 0 0 0 0 0 0 0 0 0 0 127 0"/>
<feOffset dy="5"/>
<feGaussianBlur stdDeviation="2.5"/>
<feColorMatrix type="matrix" values="0 0 0 0 0.0313726 0 0 0 0 0.109804 0 0 0 0 0.270588 0 0 0 0.05 0"/>
<feBlend mode="normal" in2="effect2_dropShadow" result="effect3_dropShadow"/>
<feBlend mode="normal" in="SourceGraphic" in2="effect3_dropShadow" result="shape"/>
</filter>
<filter id="filter3_ddd" x="20" y="166" width="480" height="100" filterUnits="userSpaceOnUse" color-interpolation-filters="sRGB">
<feFlood flood-opacity="0" result="BackgroundImageFix"/>
<feColorMatrix in="SourceAlpha" type="matrix" values="0 0 0 0 0 0 0 0 0 0 0 0 0 0 0 0 0 0 127 0"/>
<feOffset dy="10"/>
<feGaussianBlur stdDeviation="5"/>
<feColorMatrix type="matrix" values="0 0 0 0 0.0313726 0 0 0 0 0.109804 0 0 0 0 0.270588 0 0 0 0.05 0"/>
<feBlend mode="normal" in2="BackgroundImageFix" result="effect1_dropShadow"/>
<feColorMatrix in="SourceAlpha" type="matrix" values="0 0 0 0 0 0 0 0 0 0 0 0 0 0 0 0 0 0 127 0"/>
<feOffset dy="5"/>
<feGaussianBlur stdDeviation="10"/>
<feColorMatrix type="matrix" values="0 0 0 0 0.0313726 0 0 0 0 0.109804 0 0 0 0 0.270588 0 0 0 0.05 0"/>
<feBlend mode="normal" in2="effect1_dropShadow" result="effect2_dropShadow"/>
<feColorMatrix in="SourceAlpha" type="matrix" values="0 0 0 0 0 0 0 0 0 0 0 0 0 0 0 0 0 0 127 0"/>
<feOffset dy="5"/>
<feGaussianBlur stdDeviation="2.5"/>
<feColorMatrix type="matrix" values="0 0 0 0 0.0313726 0 0 0 0 0.109804 0 0 0 0 0.270588 0 0 0 0.05 0"/>
<feBlend mode="normal" in2="effect2_dropShadow" result="effect3_dropShadow"/>
<feBlend mode="normal" in="SourceGraphic" in2="effect3_dropShadow" result="shape"/>
</filter>
<filter id="filter4_ddd" x="20" y="86" width="480" height="100" filterUnits="userSpaceOnUse" color-interpolation-filters="sRGB">
<feFlood flood-opacity="0" result="BackgroundImageFix"/>
<feColorMatrix in="SourceAlpha" type="matrix" values="0 0 0 0 0 0 0 0 0 0 0 0 0 0 0 0 0 0 127 0"/>
<feOffset dy="10"/>
<feGaussianBlur stdDeviation="5"/>
<feColorMatrix type="matrix" values="0 0 0 0 0.0313726 0 0 0 0 0.109804 0 0 0 0 0.270588 0 0 0 0.05 0"/>
<feBlend mode="normal" in2="BackgroundImageFix" result="effect1_dropShadow"/>
<feColorMatrix in="SourceAlpha" type="matrix" values="0 0 0 0 0 0 0 0 0 0 0 0 0 0 0 0 0 0 127 0"/>
<feOffset dy="5"/>
<feGaussianBlur stdDeviation="10"/>
<feColorMatrix type="matrix" values="0 0 0 0 0.0313726 0 0 0 0 0.109804 0 0 0 0 0.270588 0 0 0 0.05 0"/>
<feBlend mode="normal" in2="effect1_dropShadow" result="effect2_dropShadow"/>
<feColorMatrix in="SourceAlpha" type="matrix" values="0 0 0 0 0 0 0 0 0 0 0 0 0 0 0 0 0 0 127 0"/>
<feOffset dy="5"/>
<feGaussianBlur stdDeviation="2.5"/>
<feColorMatrix type="matrix" values="0 0 0 0 0.0313726 0 0 0 0 0.109804 0 0 0 0 0.270588 0 0 0 0.05 0"/>
<feBlend mode="normal" in2="effect2_dropShadow" result="effect3_dropShadow"/>
<feBlend mode="normal" in="SourceGraphic" in2="effect3_dropShadow" result="shape"/>
</filter>
<linearGradient id="paint0_linear" x1="500" y1="15" x2="281.24" y2="531.621" gradientUnits="userSpaceOnUse">
<stop stop-color="#F1F1F9"/>
<stop offset="1" stop-color="white"/>
</linearGradient>
</defs>
</svg>
