<svg width="520" height="355" viewBox="0 0 520 355" fill="none" xmlns="http://www.w3.org/2000/svg">
<g filter="url(#filter0_ddd)">
<path d="M20 23C20 18.5817 23.5817 15 28 15H492C496.418 15 500 18.5817 500 23V322C500 326.418 496.418 330 492 330H28C23.5817 330 20 326.418 20 322V23Z" fill="url(#paint0_linear)"/>
</g>
<g filter="url(#filter1_ddd)">
<path d="M40 177C40 173.686 42.6863 171 46 171H474C477.314 171 480 173.686 480 177V294C480 297.314 477.314 300 474 300H46C42.6863 300 40 297.314 40 294V177Z" fill="white"/>
</g>
<path d="M60 255C60 252.239 62.2386 250 65 250H455C457.761 250 460 252.239 460 255C460 257.761 457.761 260 455 260H65C62.2386 260 60 257.761 60 255Z" fill="#F1F1F9"/>
<path d="M60 275C60 272.239 62.2386 270 65 270H355C357.761 270 360 272.239 360 275C360 277.761 357.761 280 355 280H65C62.2386 280 60 277.761 60 275Z" fill="#F1F1F9"/>
<path d="M460 200C460 202.761 457.761 205 455 205C452.239 205 450 202.761 450 200C450 197.239 452.239 195 455 195C457.761 195 460 197.239 460 200Z" fill="#330DF2"/>
<path d="M61.4399 235V223.8H65.8559C67.1573 223.8 68.1919 224.141 68.9599 224.824C69.7279 225.506 70.1119 226.413 70.1119 227.544V227.576C70.1119 228.781 69.6853 229.72 68.8319 230.392C67.9893 231.064 66.9226 231.4 65.6319 231.4H63.4079V235H61.4399ZM63.4079 229.624H65.6959C66.4319 229.624 67.0186 229.437 67.4559 229.064C67.8933 228.69 68.1119 228.21 68.1119 227.624V227.592C68.1119 226.941 67.8986 226.445 67.4719 226.104C67.0453 225.762 66.4533 225.592 65.6959 225.592H63.4079V229.624Z" fill="#0F0449"/>
<path d="M71.8874 235V226.552H73.8394V228.456C74.4368 227.016 75.4341 226.328 76.8314 226.392V228.44H76.7194C75.8341 228.44 75.1301 228.728 74.6074 229.304C74.0954 229.869 73.8394 230.696 73.8394 231.784V235H71.8874Z" fill="#0F0449"/>
<path d="M82.1036 235.192C80.8662 235.192 79.8316 234.786 78.9996 233.976C78.1782 233.154 77.7676 232.098 77.7676 230.808V230.776C77.7676 229.538 78.1569 228.498 78.9356 227.656C79.7142 226.802 80.7009 226.376 81.8956 226.376C83.1756 226.376 84.1676 226.813 84.8716 227.688C85.5862 228.552 85.9436 229.629 85.9436 230.92C85.9436 231.026 85.9329 231.208 85.9116 231.464H79.7036C79.8102 232.146 80.0822 232.674 80.5196 233.048C80.9569 233.421 81.4956 233.608 82.1356 233.608C82.9569 233.608 83.7196 233.272 84.4236 232.6L85.5596 233.608C84.6636 234.664 83.5116 235.192 82.1036 235.192ZM79.6876 230.184H84.0236C83.9596 229.533 83.7409 229 83.3676 228.584C82.9942 228.168 82.4982 227.96 81.8796 227.96C81.2822 227.96 80.7862 228.162 80.3916 228.568C80.0076 228.973 79.7729 229.512 79.6876 230.184Z" fill="#0F0449"/>
<path d="M90.1536 235.064L86.6816 226.552H88.7616L91.0336 232.76L93.3216 226.552H95.3536L91.8976 235.064H90.1536Z" fill="#0F0449"/>
<path d="M100.385 235.192C99.1475 235.192 98.1128 234.786 97.2808 233.976C96.4595 233.154 96.0488 232.098 96.0488 230.808V230.776C96.0488 229.538 96.4381 228.498 97.2168 227.656C97.9955 226.802 98.9822 226.376 100.177 226.376C101.457 226.376 102.449 226.813 103.153 227.688C103.867 228.552 104.225 229.629 104.225 230.92C104.225 231.026 104.214 231.208 104.193 231.464H97.9848C98.0915 232.146 98.3635 232.674 98.8008 233.048C99.2382 233.421 99.7768 233.608 100.417 233.608C101.238 233.608 102.001 233.272 102.705 232.6L103.841 233.608C102.945 234.664 101.793 235.192 100.385 235.192ZM97.9688 230.184H102.305C102.241 229.533 102.022 229 101.649 228.584C101.275 228.168 100.779 227.96 100.161 227.96C99.5635 227.96 99.0675 228.162 98.6728 228.568C98.2888 228.973 98.0542 229.512 97.9688 230.184Z" fill="#0F0449"/>
<path d="M106.153 235V226.552H108.105V227.848C108.809 226.866 109.689 226.376 110.745 226.376C111.694 226.376 112.43 226.669 112.953 227.256C113.486 227.832 113.753 228.616 113.753 229.608V235H111.817V230.2C111.817 229.538 111.657 229.032 111.337 228.68C111.028 228.317 110.585 228.136 110.009 228.136C109.433 228.136 108.969 228.322 108.617 228.696C108.276 229.069 108.105 229.581 108.105 230.232V235H106.153Z" fill="#0F0449"/>
<path d="M118.923 235.144C117.302 235.144 116.491 234.317 116.491 232.664V228.216H115.419V226.552H116.491V224.232H118.427V226.552H120.699V228.216H118.427V232.36C118.427 233.064 118.774 233.416 119.467 233.416C119.883 233.416 120.283 233.32 120.667 233.128V234.712C120.144 235 119.563 235.144 118.923 235.144Z" fill="#0F0449"/>
<path d="M130.362 235.16C129.039 235.16 127.845 234.738 126.778 233.896L127.642 232.584C128.591 233.277 129.514 233.624 130.41 233.624C130.826 233.624 131.146 233.544 131.37 233.384C131.605 233.213 131.722 232.989 131.722 232.712V232.68C131.722 232.53 131.685 232.402 131.61 232.296C131.535 232.189 131.386 232.082 131.162 231.976C130.938 231.869 130.773 231.8 130.666 231.768C130.57 231.725 130.341 231.65 129.978 231.544C129.914 231.522 129.866 231.506 129.834 231.496C129.461 231.4 129.141 231.298 128.874 231.192C128.618 231.085 128.346 230.941 128.058 230.76C127.781 230.568 127.567 230.328 127.418 230.04C127.269 229.752 127.194 229.416 127.194 229.032V229C127.194 228.21 127.477 227.581 128.042 227.112C128.618 226.642 129.338 226.408 130.202 226.408C131.301 226.408 132.335 226.728 133.306 227.368L132.538 228.744C131.663 228.21 130.869 227.944 130.154 227.944C129.791 227.944 129.503 228.024 129.29 228.184C129.077 228.344 128.97 228.541 128.97 228.776V228.808C128.97 229 129.071 229.176 129.274 229.336C129.477 229.485 129.685 229.602 129.898 229.688C130.122 229.773 130.447 229.88 130.874 230.008C131.247 230.125 131.562 230.242 131.818 230.36C132.074 230.466 132.341 230.616 132.618 230.808C132.906 231 133.125 231.234 133.274 231.512C133.423 231.789 133.498 232.109 133.498 232.472V232.504C133.498 233.357 133.205 234.013 132.618 234.472C132.031 234.93 131.279 235.16 130.362 235.16Z" fill="#0F0449"/>
<path d="M135.466 237.56V226.552H137.418V227.96C138.164 226.904 139.124 226.376 140.298 226.376C141.354 226.376 142.271 226.77 143.05 227.56C143.828 228.349 144.218 229.416 144.218 230.76V230.792C144.218 232.136 143.828 233.202 143.05 233.992C142.282 234.781 141.364 235.176 140.298 235.176C139.124 235.176 138.164 234.68 137.418 233.688V237.56H135.466ZM138.09 232.744C138.57 233.245 139.151 233.496 139.834 233.496C140.516 233.496 141.087 233.25 141.546 232.76C142.015 232.258 142.25 231.602 142.25 230.792V230.76C142.25 229.96 142.015 229.309 141.546 228.808C141.076 228.306 140.506 228.056 139.834 228.056C139.151 228.056 138.57 228.312 138.09 228.824C137.61 229.325 137.37 229.97 137.37 230.76V230.792C137.37 231.581 137.61 232.232 138.09 232.744Z" fill="#0F0449"/>
<path d="M146.2 235V226.552H148.152V228.456C148.749 227.016 149.747 226.328 151.144 226.392V228.44H151.032C150.147 228.44 149.443 228.728 148.92 229.304C148.408 229.869 148.152 230.696 148.152 231.784V235H146.2Z" fill="#0F0449"/>
<path d="M156.416 235.192C155.179 235.192 154.144 234.786 153.312 233.976C152.491 233.154 152.08 232.098 152.08 230.808V230.776C152.08 229.538 152.469 228.498 153.248 227.656C154.027 226.802 155.013 226.376 156.208 226.376C157.488 226.376 158.48 226.813 159.184 227.688C159.899 228.552 160.256 229.629 160.256 230.92C160.256 231.026 160.245 231.208 160.224 231.464H154.016C154.123 232.146 154.395 232.674 154.832 233.048C155.269 233.421 155.808 233.608 156.448 233.608C157.269 233.608 158.032 233.272 158.736 232.6L159.872 233.608C158.976 234.664 157.824 235.192 156.416 235.192ZM154 230.184H158.336C158.272 229.533 158.053 229 157.68 228.584C157.307 228.168 156.811 227.96 156.192 227.96C155.595 227.96 155.099 228.162 154.704 228.568C154.32 228.973 154.085 229.512 154 230.184Z" fill="#0F0449"/>
<path d="M164.632 235.176C163.79 235.176 163.075 234.946 162.488 234.488C161.912 234.029 161.624 233.389 161.624 232.568V232.536C161.624 231.64 161.939 230.962 162.568 230.504C163.208 230.045 164.062 229.816 165.128 229.816C165.907 229.816 166.664 229.933 167.4 230.168V229.96C167.4 228.733 166.702 228.12 165.304 228.12C164.536 228.12 163.731 228.296 162.888 228.648L162.36 227.128C163.438 226.669 164.504 226.44 165.56 226.44C166.819 226.44 167.752 226.754 168.36 227.384C168.968 227.992 169.272 228.861 169.272 229.992V235H167.384V233.944C166.702 234.765 165.784 235.176 164.632 235.176ZM165.176 233.768C165.827 233.768 166.366 233.602 166.792 233.272C167.219 232.93 167.432 232.493 167.432 231.96V231.384C166.856 231.16 166.216 231.048 165.512 231.048C164.883 231.048 164.392 231.17 164.04 231.416C163.699 231.661 163.528 232.008 163.528 232.456V232.488C163.528 232.882 163.683 233.197 163.992 233.432C164.302 233.656 164.696 233.768 165.176 233.768Z" fill="#0F0449"/>
<path d="M175.079 235.176C174.023 235.176 173.106 234.781 172.327 233.992C171.548 233.202 171.159 232.136 171.159 230.792V230.76C171.159 229.416 171.543 228.349 172.311 227.56C173.09 226.77 174.012 226.376 175.079 226.376C176.263 226.376 177.223 226.872 177.959 227.864V223.32H179.895V235H177.959V233.592C177.212 234.648 176.252 235.176 175.079 235.176ZM175.543 233.496C176.215 233.496 176.791 233.245 177.271 232.744C177.751 232.232 177.991 231.581 177.991 230.792V230.76C177.991 229.97 177.751 229.325 177.271 228.824C176.791 228.312 176.215 228.056 175.543 228.056C174.86 228.056 174.284 228.306 173.815 228.808C173.346 229.298 173.111 229.949 173.111 230.76V230.792C173.111 231.592 173.346 232.242 173.815 232.744C174.284 233.245 174.86 233.496 175.543 233.496Z" fill="#0F0449"/>
<path d="M191.138 235.192C189.858 235.192 188.792 234.77 187.938 233.928C187.085 233.074 186.658 232.04 186.658 230.824V230.792C186.658 229.565 187.09 228.525 187.954 227.672C188.818 226.808 189.89 226.376 191.17 226.376C192.461 226.376 193.533 226.802 194.386 227.656C195.24 228.498 195.666 229.533 195.666 230.76V230.792C195.666 231.997 195.234 233.032 194.37 233.896C193.506 234.76 192.429 235.192 191.138 235.192ZM191.17 233.496C191.938 233.496 192.557 233.24 193.026 232.728C193.496 232.205 193.73 231.57 193.73 230.824V230.792C193.73 230.034 193.485 229.394 192.994 228.872C192.504 228.338 191.885 228.072 191.138 228.072C190.381 228.072 189.768 228.333 189.298 228.856C188.829 229.368 188.594 230.002 188.594 230.76V230.792C188.594 231.538 188.84 232.178 189.33 232.712C189.821 233.234 190.434 233.496 191.17 233.496Z" fill="#0F0449"/>
<path d="M198.07 235V228.216H196.998V226.6H198.07V225.976C198.07 225.048 198.299 224.354 198.758 223.896C199.206 223.448 199.835 223.224 200.646 223.224C201.2 223.224 201.728 223.298 202.23 223.448V225.08C201.814 224.941 201.435 224.872 201.094 224.872C200.347 224.872 199.974 225.298 199.974 226.152V226.616H202.214V228.216H200.006V235H198.07Z" fill="#0F0449"/>
<path d="M213.874 235.192C212.253 235.192 210.898 234.637 209.81 233.528C208.722 232.418 208.178 231.053 208.178 229.432V229.4C208.178 227.778 208.722 226.408 209.81 225.288C210.898 224.168 212.274 223.608 213.938 223.608C214.909 223.608 215.736 223.757 216.418 224.056C217.101 224.354 217.741 224.786 218.338 225.352L217.074 226.808C216.072 225.89 215.021 225.432 213.922 225.432C212.877 225.432 212.002 225.816 211.298 226.584C210.594 227.341 210.242 228.269 210.242 229.368V229.4C210.242 230.509 210.594 231.448 211.298 232.216C212.002 232.984 212.882 233.368 213.938 233.368C214.578 233.368 215.144 233.25 215.634 233.016C216.125 232.781 216.632 232.418 217.154 231.928L218.418 233.208C217.81 233.858 217.149 234.354 216.434 234.696C215.72 235.026 214.866 235.192 213.874 235.192Z" fill="#0F0449"/>
<path d="M225.534 235.192C223.838 235.192 222.441 234.632 221.342 233.512C220.243 232.392 219.694 231.032 219.694 229.432V229.4C219.694 227.8 220.249 226.434 221.358 225.304C222.478 224.173 223.881 223.608 225.566 223.608C227.262 223.608 228.659 224.168 229.758 225.288C230.857 226.408 231.406 227.768 231.406 229.368V229.4C231.406 231 230.846 232.365 229.726 233.496C228.617 234.626 227.219 235.192 225.534 235.192ZM222.83 232.216C223.555 232.984 224.467 233.368 225.566 233.368C226.665 233.368 227.566 232.989 228.27 232.232C228.985 231.474 229.342 230.541 229.342 229.432V229.4C229.342 228.29 228.979 227.352 228.254 226.584C227.539 225.816 226.633 225.432 225.534 225.432C224.435 225.432 223.529 225.81 222.814 226.568C222.11 227.325 221.758 228.258 221.758 229.368V229.4C221.758 230.509 222.115 231.448 222.83 232.216Z" fill="#0F0449"/>
<path d="M236.761 235.08L232.121 223.8H234.297L237.673 232.408L241.033 223.8H243.161L238.521 235.08H236.761Z" fill="#0F0449"/>
<path d="M245.193 235V223.8H247.161V235H245.193Z" fill="#0F0449"/>
<path d="M250.159 235V223.8H254.335C256.073 223.8 257.497 224.333 258.607 225.4C259.727 226.456 260.287 227.778 260.287 229.368V229.4C260.287 231 259.727 232.333 258.607 233.4C257.497 234.466 256.073 235 254.335 235H250.159ZM254.335 225.592H252.127V233.208H254.335C255.497 233.208 256.436 232.856 257.151 232.152C257.865 231.448 258.223 230.541 258.223 229.432V229.4C258.223 228.29 257.865 227.378 257.151 226.664C256.436 225.949 255.497 225.592 254.335 225.592Z" fill="#0F0449"/>
<path d="M264.082 235V225.72L262.066 226.28L261.65 224.68L264.674 223.72H266.034V235H264.082Z" fill="#0F0449"/>
<path d="M272.41 233.4C272.879 233.4 273.29 233.288 273.642 233.064C274.005 232.84 274.287 232.546 274.49 232.184C274.693 231.821 274.847 231.448 274.954 231.064C275.061 230.669 275.119 230.274 275.13 229.88C274.479 230.669 273.599 231.064 272.49 231.064C271.295 231.064 270.335 230.744 269.61 230.104C268.885 229.453 268.522 228.589 268.522 227.512V227.48C268.522 226.37 268.911 225.448 269.69 224.712C270.469 223.976 271.471 223.608 272.698 223.608C273.978 223.608 275.018 224.008 275.818 224.808C276.714 225.704 277.162 227.122 277.162 229.064V229.096C277.162 230.92 276.73 232.392 275.866 233.512C275.013 234.632 273.845 235.192 272.362 235.192C271.071 235.192 269.877 234.744 268.778 233.848L269.85 232.344C270.703 233.048 271.557 233.4 272.41 233.4ZM271.114 228.872C271.53 229.234 272.085 229.416 272.778 229.416C273.471 229.416 274.021 229.224 274.426 228.84C274.842 228.445 275.05 227.965 275.05 227.4V227.368C275.05 226.77 274.837 226.28 274.41 225.896C273.983 225.512 273.418 225.32 272.714 225.32C272.031 225.32 271.487 225.517 271.082 225.912C270.687 226.306 270.49 226.802 270.49 227.4V227.432C270.49 228.018 270.698 228.498 271.114 228.872Z" fill="#0F0449"/>
<path d="M61.26 205V195.2H63.094L66.076 199.834L69.058 195.2H70.892V205H69.17V197.972L66.076 202.592H66.02L62.954 198V205H61.26Z" fill="#5C5C8A"/>
<path d="M75.3463 205.154C74.609 205.154 73.9836 204.954 73.4703 204.552C72.9663 204.151 72.7143 203.591 72.7143 202.872V202.844C72.7143 202.06 72.9896 201.468 73.5403 201.066C74.1003 200.665 74.847 200.464 75.7803 200.464C76.4616 200.464 77.1243 200.567 77.7683 200.772V200.59C77.7683 199.517 77.157 198.98 75.9343 198.98C75.2623 198.98 74.5576 199.134 73.8203 199.442L73.3583 198.112C74.301 197.711 75.2343 197.51 76.1583 197.51C77.2596 197.51 78.0763 197.786 78.6083 198.336C79.1403 198.868 79.4063 199.629 79.4063 200.618V205H77.7543V204.076C77.157 204.795 76.3543 205.154 75.3463 205.154ZM75.8223 203.922C76.3916 203.922 76.863 203.778 77.2363 203.488C77.6096 203.19 77.7963 202.807 77.7963 202.34V201.836C77.2923 201.64 76.7323 201.542 76.1163 201.542C75.5656 201.542 75.1363 201.65 74.8283 201.864C74.5296 202.079 74.3803 202.382 74.3803 202.774V202.802C74.3803 203.148 74.5156 203.423 74.7863 203.628C75.057 203.824 75.4023 203.922 75.8223 203.922Z" fill="#5C5C8A"/>
<path d="M81.4211 205V197.608H83.1291V199.274C83.6518 198.014 84.5244 197.412 85.7471 197.468V199.26H85.6491C84.8744 199.26 84.2584 199.512 83.8011 200.016C83.3531 200.511 83.1291 201.234 83.1291 202.186V205H81.4211Z" fill="#5C5C8A"/>
<path d="M90.3882 205.168C89.2962 205.168 88.3862 204.8 87.6582 204.062C86.9302 203.316 86.5662 202.41 86.5662 201.346V201.318C86.5662 200.254 86.9302 199.344 87.6582 198.588C88.3955 197.832 89.3149 197.454 90.4162 197.454C91.5829 197.454 92.5675 197.879 93.3702 198.728L92.3062 199.862C91.7182 199.246 91.0835 198.938 90.4022 198.938C89.7955 198.938 89.2869 199.167 88.8762 199.624C88.4655 200.082 88.2602 200.637 88.2602 201.29V201.318C88.2602 201.981 88.4655 202.541 88.8762 202.998C89.2962 203.456 89.8282 203.684 90.4722 203.684C91.1442 203.684 91.7835 203.381 92.3902 202.774L93.4122 203.782C93.0109 204.23 92.5769 204.576 92.1102 204.818C91.6435 205.052 91.0695 205.168 90.3882 205.168Z" fill="#5C5C8A"/>
<path d="M94.9563 205V194.78H96.6643V198.742C97.2803 197.884 98.0503 197.454 98.9743 197.454C99.8049 197.454 100.449 197.711 100.906 198.224C101.373 198.728 101.606 199.414 101.606 200.282V205H99.9123V200.8C99.9123 200.222 99.7723 199.778 99.4923 199.47C99.2216 199.153 98.8343 198.994 98.3303 198.994C97.8263 198.994 97.4203 199.158 97.1123 199.484C96.8136 199.811 96.6643 200.259 96.6643 200.828V205H94.9563Z" fill="#5C5C8A"/>
<path d="M111.195 205.14C110.112 205.14 109.216 204.884 108.507 204.37C107.807 203.848 107.457 203.166 107.457 202.326V202.298C107.457 201.197 108.045 200.404 109.221 199.918C108.269 199.424 107.793 198.696 107.793 197.734V197.706C107.793 196.95 108.115 196.32 108.759 195.816C109.403 195.312 110.215 195.06 111.195 195.06C112.175 195.06 112.987 195.312 113.631 195.816C114.275 196.32 114.597 196.95 114.597 197.706V197.734C114.597 198.696 114.121 199.424 113.169 199.918C114.345 200.45 114.933 201.234 114.933 202.27V202.298C114.933 203.166 114.583 203.857 113.883 204.37C113.183 204.884 112.287 205.14 111.195 205.14ZM109.935 198.938C110.271 199.209 110.691 199.344 111.195 199.344C111.699 199.344 112.115 199.209 112.441 198.938C112.777 198.668 112.945 198.322 112.945 197.902V197.874C112.945 197.482 112.782 197.156 112.455 196.894C112.138 196.633 111.718 196.502 111.195 196.502C110.673 196.502 110.248 196.633 109.921 196.894C109.604 197.156 109.445 197.482 109.445 197.874V197.902C109.445 198.322 109.609 198.668 109.935 198.938ZM109.697 203.278C110.07 203.558 110.57 203.698 111.195 203.698C111.82 203.698 112.315 203.563 112.679 203.292C113.053 203.012 113.239 202.658 113.239 202.228V202.2C113.239 201.762 113.048 201.407 112.665 201.136C112.283 200.866 111.792 200.73 111.195 200.73C110.598 200.73 110.108 200.866 109.725 201.136C109.342 201.407 109.151 201.762 109.151 202.2V202.228C109.151 202.639 109.333 202.989 109.697 203.278Z" fill="#5C5C8A"/>
<path d="M116.262 207.044L116.08 206.316C116.938 206.148 117.34 205.71 117.284 205H116.556V203.068H118.418V204.706C118.418 205.472 118.24 206.036 117.886 206.4C117.531 206.764 116.99 206.979 116.262 207.044Z" fill="#5C5C8A"/>
<path d="M124.247 205V203.642L127.621 200.772C128.321 200.175 128.801 199.694 129.063 199.33C129.324 198.957 129.455 198.556 129.455 198.126C129.455 197.66 129.305 197.291 129.007 197.02C128.708 196.74 128.33 196.6 127.873 196.6C127.443 196.6 127.056 196.717 126.711 196.95C126.365 197.184 126.001 197.557 125.619 198.07L124.387 197.104C124.891 196.404 125.413 195.891 125.955 195.564C126.496 195.228 127.177 195.06 127.999 195.06C128.951 195.06 129.725 195.331 130.323 195.872C130.929 196.414 131.233 197.118 131.233 197.986V198.014C131.233 198.518 131.13 198.98 130.925 199.4C130.729 199.811 130.467 200.184 130.141 200.52C129.823 200.847 129.338 201.276 128.685 201.808L126.669 203.488H131.331V205H124.247Z" fill="#5C5C8A"/>
<path d="M140.28 203.712C139.487 204.683 138.46 205.168 137.2 205.168C135.94 205.168 134.914 204.688 134.12 203.726C133.336 202.756 132.944 201.556 132.944 200.128V200.1C132.944 198.672 133.341 197.473 134.134 196.502C134.937 195.522 135.968 195.032 137.228 195.032C138.488 195.032 139.51 195.518 140.294 196.488C141.088 197.45 141.484 198.644 141.484 200.072V200.1C141.484 201.528 141.083 202.732 140.28 203.712ZM137.228 203.614C137.966 203.614 138.563 203.278 139.02 202.606C139.478 201.934 139.706 201.108 139.706 200.128V200.1C139.706 199.111 139.473 198.28 139.006 197.608C138.54 196.927 137.938 196.586 137.2 196.586C136.463 196.586 135.866 196.922 135.408 197.594C134.951 198.257 134.722 199.083 134.722 200.072V200.1C134.722 201.09 134.951 201.925 135.408 202.606C135.875 203.278 136.482 203.614 137.228 203.614Z" fill="#5C5C8A"/>
<path d="M142.827 205V203.642L146.201 200.772C146.901 200.175 147.381 199.694 147.643 199.33C147.904 198.957 148.035 198.556 148.035 198.126C148.035 197.66 147.885 197.291 147.587 197.02C147.288 196.74 146.91 196.6 146.453 196.6C146.023 196.6 145.636 196.717 145.291 196.95C144.945 197.184 144.581 197.557 144.199 198.07L142.967 197.104C143.471 196.404 143.993 195.891 144.535 195.564C145.076 195.228 145.757 195.06 146.579 195.06C147.531 195.06 148.305 195.331 148.903 195.872C149.509 196.414 149.813 197.118 149.813 197.986V198.014C149.813 198.518 149.71 198.98 149.505 199.4C149.309 199.811 149.047 200.184 148.721 200.52C148.403 200.847 147.918 201.276 147.265 201.808L145.249 203.488H149.911V205H142.827Z" fill="#5C5C8A"/>
<path d="M158.861 203.712C158.067 204.683 157.041 205.168 155.781 205.168C154.521 205.168 153.494 204.688 152.701 203.726C151.917 202.756 151.525 201.556 151.525 200.128V200.1C151.525 198.672 151.921 197.473 152.715 196.502C153.517 195.522 154.549 195.032 155.809 195.032C157.069 195.032 158.091 195.518 158.875 196.488C159.668 197.45 160.065 198.644 160.065 200.072V200.1C160.065 201.528 159.663 202.732 158.861 203.712ZM155.809 203.614C156.546 203.614 157.143 203.278 157.601 202.606C158.058 201.934 158.287 201.108 158.287 200.128V200.1C158.287 199.111 158.053 198.28 157.587 197.608C157.12 196.927 156.518 196.586 155.781 196.586C155.043 196.586 154.446 196.922 153.989 197.594C153.531 198.257 153.303 199.083 153.303 200.072V200.1C153.303 201.09 153.531 201.925 153.989 202.606C154.455 203.278 155.062 203.614 155.809 203.614Z" fill="#5C5C8A"/>
<g filter="url(#filter2_ddd)">
<path d="M40 106C40 103.239 42.2386 101 45 101H475C477.761 101 480 103.239 480 106V146C480 148.761 477.761 151 475 151H45C42.2386 151 40 148.761 40 146V106Z" fill="#0F0449"/>
</g>
<path fill-rule="evenodd" clip-rule="evenodd" d="M458.586 126L453.293 120.707L454.707 119.293L461.414 126L454.707 132.707L453.293 131.293L458.586 126Z" fill="white"/>
<path d="M188.008 130V121.6H191.908C192.876 121.6 193.608 121.848 194.104 122.344C194.488 122.728 194.68 123.204 194.68 123.772V123.796C194.68 124.62 194.312 125.224 193.576 125.608C194.096 125.808 194.488 126.068 194.752 126.388C195.016 126.708 195.148 127.136 195.148 127.672V127.696C195.148 128.448 194.868 129.02 194.308 129.412C193.748 129.804 192.98 130 192.004 130H188.008ZM192.844 124.108V124.084C192.844 123.508 192.44 123.22 191.632 123.22H189.808V124.996H191.512C192.4 124.996 192.844 124.7 192.844 124.108ZM193.312 127.468V127.444C193.312 126.836 192.856 126.532 191.944 126.532H189.808V128.38H192.004C192.876 128.38 193.312 128.076 193.312 127.468Z" fill="white"/>
<path d="M197.028 130V121.6H203.364V123.244H198.864V124.948H202.824V126.592H198.864V128.356H203.424V130H197.028Z" fill="white"/>
<path d="M209.471 130.144C208.167 130.144 207.103 129.74 206.279 128.932C205.463 128.116 205.055 127.08 205.055 125.824V125.8C205.055 124.592 205.475 123.568 206.315 122.728C207.155 121.88 208.203 121.456 209.459 121.456C210.179 121.456 210.795 121.552 211.307 121.744C211.819 121.928 212.303 122.216 212.759 122.608L211.595 124.012C211.251 123.724 210.911 123.512 210.575 123.376C210.247 123.232 209.855 123.16 209.399 123.16C208.727 123.16 208.155 123.416 207.683 123.928C207.219 124.44 206.987 125.056 206.987 125.776V125.8C206.987 126.568 207.223 127.204 207.695 127.708C208.175 128.212 208.787 128.464 209.531 128.464C210.219 128.464 210.799 128.296 211.271 127.96V126.76H209.411V125.164H213.059V128.812C212.011 129.7 210.815 130.144 209.471 130.144Z" fill="white"/>
<path d="M215.281 130V121.6H217.129V130H215.281Z" fill="white"/>
<path d="M219.588 130V121.6H221.292L225.228 126.772V121.6H227.052V130H225.48L221.412 124.66V130H219.588Z" fill="white"/>
<path d="M233.387 130V121.6H235.235V124.924H238.643V121.6H240.491V130H238.643V126.628H235.235V130H233.387Z" fill="white"/>
<path d="M242.864 130V121.6H249.2V123.244H244.7V124.948H248.66V126.592H244.7V128.356H249.26V130H242.864Z" fill="white"/>
<path d="M250.543 130L254.143 121.54H255.847L259.447 130H257.515L256.747 128.116H253.195L252.427 130H250.543ZM253.855 126.484H256.087L254.971 123.76L253.855 126.484Z" fill="white"/>
<path d="M261.103 130V121.6H262.951V128.32H267.139V130H261.103Z" fill="white"/>
<path d="M269.654 130V123.304H267.098V121.6H274.058V123.304H271.502V130H269.654Z" fill="white"/>
<path d="M275.839 130V121.6H277.687V124.924H281.095V121.6H282.943V130H281.095V126.628H277.687V130H275.839Z" fill="white"/>
<path d="M293.21 130.144C291.978 130.144 290.95 129.728 290.126 128.896C289.31 128.064 288.902 127.04 288.902 125.824V125.8C288.902 124.584 289.314 123.556 290.138 122.716C290.962 121.876 292.01 121.456 293.282 121.456C294.626 121.456 295.73 121.888 296.594 122.752L295.418 124.108C294.706 123.476 293.99 123.16 293.27 123.16C292.574 123.16 291.994 123.416 291.53 123.928C291.066 124.432 290.834 125.048 290.834 125.776V125.8C290.834 126.536 291.062 127.16 291.518 127.672C291.982 128.184 292.566 128.44 293.27 128.44C293.718 128.44 294.106 128.36 294.434 128.2C294.77 128.04 295.118 127.792 295.478 127.456L296.654 128.644C296.19 129.148 295.69 129.524 295.154 129.772C294.626 130.02 293.978 130.144 293.21 130.144Z" fill="white"/>
<path d="M298.493 130V121.6H300.341V124.924H303.749V121.6H305.597V130H303.749V126.628H300.341V130H298.493Z" fill="white"/>
<path d="M307.97 130V121.6H314.306V123.244H309.806V124.948H313.766V126.592H309.806V128.356H314.366V130H307.97Z" fill="white"/>
<path d="M320.305 130.144C319.073 130.144 318.045 129.728 317.221 128.896C316.405 128.064 315.997 127.04 315.997 125.824V125.8C315.997 124.584 316.409 123.556 317.233 122.716C318.057 121.876 319.105 121.456 320.377 121.456C321.721 121.456 322.825 121.888 323.689 122.752L322.513 124.108C321.801 123.476 321.085 123.16 320.365 123.16C319.669 123.16 319.089 123.416 318.625 123.928C318.161 124.432 317.929 125.048 317.929 125.776V125.8C317.929 126.536 318.157 127.16 318.613 127.672C319.077 128.184 319.661 128.44 320.365 128.44C320.813 128.44 321.201 128.36 321.529 128.2C321.865 128.04 322.213 127.792 322.573 127.456L323.749 128.644C323.285 129.148 322.785 129.524 322.249 129.772C321.721 130.02 321.073 130.144 320.305 130.144Z" fill="white"/>
<path d="M325.589 130V121.6H327.437V125.272L330.821 121.6H333.089L329.657 125.164L333.233 130H331.013L328.409 126.424L327.437 127.432V130H325.589Z" fill="white"/>
<path d="M178.872 65.0004L185.032 50.9004H187.312L193.472 65.0004H190.872L189.452 61.6204H182.832L181.392 65.0004H178.872ZM183.732 59.4404H188.552L186.132 53.8404L183.732 59.4404Z" fill="#5C5C8A"/>
<path d="M195.572 65.0004V54.4404H198.012V56.0604C198.892 54.8337 199.992 54.2204 201.312 54.2204C202.499 54.2204 203.419 54.5871 204.072 55.3204C204.739 56.0404 205.072 57.0204 205.072 58.2604V65.0004H202.652V59.0004C202.652 58.1737 202.452 57.5404 202.052 57.1004C201.666 56.6471 201.112 56.4204 200.392 56.4204C199.672 56.4204 199.092 56.6537 198.652 57.1204C198.226 57.5871 198.012 58.2271 198.012 59.0404V65.0004H195.572Z" fill="#5C5C8A"/>
<path d="M207.975 65.0004V54.4404H210.415V56.0604C211.295 54.8337 212.395 54.2204 213.715 54.2204C214.901 54.2204 215.821 54.5871 216.475 55.3204C217.141 56.0404 217.475 57.0204 217.475 58.2604V65.0004H215.055V59.0004C215.055 58.1737 214.855 57.5404 214.455 57.1004C214.068 56.6471 213.515 56.4204 212.795 56.4204C212.075 56.4204 211.495 56.6537 211.055 57.1204C210.628 57.5871 210.415 58.2271 210.415 59.0404V65.0004H207.975Z" fill="#5C5C8A"/>
<path d="M225.417 65.2404C223.817 65.2404 222.484 64.7137 221.417 63.6604C220.35 62.5937 219.817 61.3004 219.817 59.7804V59.7404C219.817 58.2071 220.357 56.9071 221.437 55.8404C222.517 54.7604 223.857 54.2204 225.457 54.2204C227.07 54.2204 228.41 54.7537 229.477 55.8204C230.544 56.8737 231.077 58.1671 231.077 59.7004V59.7404C231.077 61.2471 230.537 62.5404 229.457 63.6204C228.377 64.7004 227.03 65.2404 225.417 65.2404ZM225.457 63.1204C226.417 63.1204 227.19 62.8004 227.777 62.1604C228.364 61.5071 228.657 60.7137 228.657 59.7804V59.7404C228.657 58.7937 228.35 57.9937 227.737 57.3404C227.124 56.6737 226.35 56.3404 225.417 56.3404C224.47 56.3404 223.704 56.6671 223.117 57.3204C222.53 57.9604 222.237 58.7537 222.237 59.7004V59.7404C222.237 60.6737 222.544 61.4737 223.157 62.1404C223.77 62.7937 224.537 63.1204 225.457 63.1204Z" fill="#5C5C8A"/>
<path d="M237.182 65.2204C235.995 65.2204 235.068 64.8604 234.402 64.1404C233.748 63.4071 233.422 62.4137 233.422 61.1604V54.4404H235.842V60.4404C235.842 61.2671 236.035 61.9004 236.422 62.3404C236.822 62.7804 237.382 63.0004 238.102 63.0004C238.822 63.0004 239.395 62.7737 239.822 62.3204C240.262 61.8537 240.482 61.2137 240.482 60.4004V54.4404H242.922V65.0004H240.482V63.3604C239.628 64.6004 238.528 65.2204 237.182 65.2204Z" fill="#5C5C8A"/>
<path d="M245.924 65.0004V54.4404H248.364V56.0604C249.244 54.8337 250.344 54.2204 251.664 54.2204C252.851 54.2204 253.771 54.5871 254.424 55.3204C255.091 56.0404 255.424 57.0204 255.424 58.2604V65.0004H253.004V59.0004C253.004 58.1737 252.804 57.5404 252.404 57.1004C252.017 56.6471 251.464 56.4204 250.744 56.4204C250.024 56.4204 249.444 56.6537 249.004 57.1204C248.577 57.5871 248.364 58.2271 248.364 59.0404V65.0004H245.924Z" fill="#5C5C8A"/>
<path d="M263.226 65.2404C261.666 65.2404 260.366 64.7137 259.326 63.6604C258.286 62.5937 257.766 61.3004 257.766 59.7804V59.7404C257.766 58.2204 258.286 56.9204 259.326 55.8404C260.38 54.7604 261.693 54.2204 263.266 54.2204C264.933 54.2204 266.34 54.8271 267.486 56.0404L265.966 57.6604C265.126 56.7804 264.22 56.3404 263.246 56.3404C262.38 56.3404 261.653 56.6671 261.066 57.3204C260.48 57.9737 260.186 58.7671 260.186 59.7004V59.7404C260.186 60.6871 260.48 61.4871 261.066 62.1404C261.666 62.7937 262.426 63.1204 263.346 63.1204C264.306 63.1204 265.22 62.6871 266.086 61.8204L267.546 63.2604C266.973 63.9004 266.353 64.3937 265.686 64.7404C265.02 65.0737 264.2 65.2404 263.226 65.2404Z" fill="#5C5C8A"/>
<path d="M274.319 65.2404C272.772 65.2404 271.479 64.7337 270.439 63.7204C269.412 62.6937 268.899 61.3737 268.899 59.7604V59.7204C268.899 58.1737 269.386 56.8737 270.359 55.8204C271.332 54.7537 272.566 54.2204 274.059 54.2204C275.659 54.2204 276.899 54.7671 277.779 55.8604C278.672 56.9404 279.119 58.2871 279.119 59.9004C279.119 60.0337 279.106 60.2604 279.079 60.5804H271.319C271.452 61.4337 271.792 62.0937 272.339 62.5604C272.886 63.0271 273.559 63.2604 274.359 63.2604C275.386 63.2604 276.339 62.8404 277.219 62.0004L278.639 63.2604C277.519 64.5804 276.079 65.2404 274.319 65.2404ZM271.299 58.9804H276.719C276.639 58.1671 276.366 57.5004 275.899 56.9804C275.432 56.4604 274.812 56.2004 274.039 56.2004C273.292 56.2004 272.672 56.4537 272.179 56.9604C271.699 57.4671 271.406 58.1404 271.299 58.9804Z" fill="#5C5C8A"/>
<path d="M281.529 65.0004V54.4404H283.969V56.0404C284.849 54.8271 285.923 54.2204 287.189 54.2204C288.683 54.2204 289.736 54.8404 290.349 56.0804C291.296 54.8404 292.483 54.2204 293.909 54.2204C295.069 54.2204 295.976 54.5737 296.629 55.2804C297.283 55.9871 297.609 56.9804 297.609 58.2604V65.0004H295.189V59.0004C295.189 58.1604 295.003 57.5204 294.629 57.0804C294.256 56.6404 293.729 56.4204 293.049 56.4204C292.369 56.4204 291.823 56.6537 291.409 57.1204C290.996 57.5737 290.789 58.2137 290.789 59.0404V65.0004H288.369V58.9804C288.369 58.1537 288.183 57.5204 287.809 57.0804C287.436 56.6404 286.909 56.4204 286.229 56.4204C285.549 56.4204 285.003 56.6604 284.589 57.1404C284.176 57.6071 283.969 58.2404 283.969 59.0404V65.0004H281.529Z" fill="#5C5C8A"/>
<path d="M305.374 65.2404C303.827 65.2404 302.534 64.7337 301.494 63.7204C300.467 62.6937 299.954 61.3737 299.954 59.7604V59.7204C299.954 58.1737 300.44 56.8737 301.414 55.8204C302.387 54.7537 303.62 54.2204 305.114 54.2204C306.714 54.2204 307.954 54.7671 308.834 55.8604C309.727 56.9404 310.174 58.2871 310.174 59.9004C310.174 60.0337 310.16 60.2604 310.134 60.5804H302.374C302.507 61.4337 302.847 62.0937 303.394 62.5604C303.94 63.0271 304.614 63.2604 305.414 63.2604C306.44 63.2604 307.394 62.8404 308.274 62.0004L309.694 63.2604C308.574 64.5804 307.134 65.2404 305.374 65.2404ZM302.354 58.9804H307.774C307.694 58.1671 307.42 57.5004 306.954 56.9804C306.487 56.4604 305.867 56.2004 305.094 56.2004C304.347 56.2004 303.727 56.4537 303.234 56.9604C302.754 57.4671 302.46 58.1404 302.354 58.9804Z" fill="#5C5C8A"/>
<path d="M312.584 65.0004V54.4404H315.024V56.0604C315.904 54.8337 317.004 54.2204 318.324 54.2204C319.511 54.2204 320.431 54.5871 321.084 55.3204C321.751 56.0404 322.084 57.0204 322.084 58.2604V65.0004H319.664V59.0004C319.664 58.1737 319.464 57.5404 319.064 57.1004C318.677 56.6471 318.124 56.4204 317.404 56.4204C316.684 56.4204 316.104 56.6537 315.664 57.1204C315.237 57.5871 315.024 58.2271 315.024 59.0404V65.0004H312.584Z" fill="#5C5C8A"/>
<path d="M328.546 65.1804C326.52 65.1804 325.506 64.1471 325.506 62.0804V56.5204H324.166V54.4404H325.506V51.5404H327.926V54.4404H330.766V56.5204H327.926V61.7004C327.926 62.5804 328.36 63.0204 329.226 63.0204C329.746 63.0204 330.246 62.9004 330.726 62.6604V64.6404C330.073 65.0004 329.346 65.1804 328.546 65.1804Z" fill="#5C5C8A"/>
<path d="M336.849 65.2004C335.196 65.2004 333.702 64.6737 332.369 63.6204L333.449 61.9804C334.636 62.8471 335.789 63.2804 336.909 63.2804C337.429 63.2804 337.829 63.1804 338.109 62.9804C338.402 62.7671 338.549 62.4871 338.549 62.1404V62.1004C338.549 61.9137 338.502 61.7537 338.409 61.6204C338.316 61.4871 338.129 61.3537 337.849 61.2204C337.569 61.0871 337.362 61.0004 337.229 60.9604C337.109 60.9071 336.822 60.8137 336.369 60.6804C336.289 60.6537 336.229 60.6337 336.189 60.6204C335.722 60.5004 335.322 60.3737 334.989 60.2404C334.669 60.1071 334.329 59.9271 333.969 59.7004C333.622 59.4604 333.356 59.1604 333.169 58.8004C332.982 58.4404 332.889 58.0204 332.889 57.5404V57.5004C332.889 56.5137 333.242 55.7271 333.949 55.1404C334.669 54.5537 335.569 54.2604 336.649 54.2604C338.022 54.2604 339.316 54.6604 340.529 55.4604L339.569 57.1804C338.476 56.5137 337.482 56.1804 336.589 56.1804C336.136 56.1804 335.776 56.2804 335.509 56.4804C335.242 56.6804 335.109 56.9271 335.109 57.2204V57.2604C335.109 57.5004 335.236 57.7204 335.489 57.9204C335.742 58.1071 336.002 58.2537 336.269 58.3604C336.549 58.4671 336.956 58.6004 337.489 58.7604C337.956 58.9071 338.349 59.0537 338.669 59.2004C338.989 59.3337 339.322 59.5204 339.669 59.7604C340.029 60.0004 340.302 60.2937 340.489 60.6404C340.676 60.9871 340.769 61.3871 340.769 61.8404V61.8804C340.769 62.9471 340.402 63.7671 339.669 64.3404C338.936 64.9137 337.996 65.2004 336.849 65.2004Z" fill="#5C5C8A"/>
<defs>
<filter id="filter0_ddd" x="0" y="0" width="520" height="355" filterUnits="userSpaceOnUse" color-interpolation-filters="sRGB">
<feFlood flood-opacity="0" result="BackgroundImageFix"/>
<feColorMatrix in="SourceAlpha" type="matrix" values="0 0 0 0 0 0 0 0 0 0 0 0 0 0 0 0 0 0 127 0"/>
<feOffset dy="10"/>
<feGaussianBlur stdDeviation="5"/>
<feColorMatrix type="matrix" values="0 0 0 0 0.0313726 0 0 0 0 0.109804 0 0 0 0 0.270588 0 0 0 0.05 0"/>
<feBlend mode="normal" in2="BackgroundImageFix" result="effect1_dropShadow"/>
<feColorMatrix in="SourceAlpha" type="matrix" values="0 0 0 0 0 0 0 0 0 0 0 0 0 0 0 0 0 0 127 0"/>
<feOffset dy="5"/>
<feGaussianBlur stdDeviation="10"/>
<feColorMatrix type="matrix" values="0 0 0 0 0.0313726 0 0 0 0 0.109804 0 0 0 0 0.270588 0 0 0 0.05 0"/>
<feBlend mode="normal" in2="effect1_dropShadow" result="effect2_dropShadow"/>
<feColorMatrix in="SourceAlpha" type="matrix" values="0 0 0 0 0 0 0 0 0 0 0 0 0 0 0 0 0 0 127 0"/>
<feOffset dy="5"/>
<feGaussianBlur stdDeviation="2.5"/>
<feColorMatrix type="matrix" values="0 0 0 0 0.0313726 0 0 0 0 0.109804 0 0 0 0 0.270588 0 0 0 0.05 0"/>
<feBlend mode="normal" in2="effect2_dropShadow" result="effect3_dropShadow"/>
<feBlend mode="normal" in="SourceGraphic" in2="effect3_dropShadow" result="shape"/>
</filter>
<filter id="filter1_ddd" x="20" y="156" width="480" height="169" filterUnits="userSpaceOnUse" color-interpolation-filters="sRGB">
<feFlood flood-opacity="0" result="BackgroundImageFix"/>
<feColorMatrix in="SourceAlpha" type="matrix" values="0 0 0 0 0 0 0 0 0 0 0 0 0 0 0 0 0 0 127 0"/>
<feOffset dy="10"/>
<feGaussianBlur stdDeviation="5"/>
<feColorMatrix type="matrix" values="0 0 0 0 0.0313726 0 0 0 0 0.109804 0 0 0 0 0.270588 0 0 0 0.05 0"/>
<feBlend mode="normal" in2="BackgroundImageFix" result="effect1_dropShadow"/>
<feColorMatrix in="SourceAlpha" type="matrix" values="0 0 0 0 0 0 0 0 0 0 0 0 0 0 0 0 0 0 127 0"/>
<feOffset dy="5"/>
<feGaussianBlur stdDeviation="10"/>
<feColorMatrix type="matrix" values="0 0 0 0 0.0313726 0 0 0 0 0.109804 0 0 0 0 0.270588 0 0 0 0.05 0"/>
<feBlend mode="normal" in2="effect1_dropShadow" result="effect2_dropShadow"/>
<feColorMatrix in="SourceAlpha" type="matrix" values="0 0 0 0 0 0 0 0 0 0 0 0 0 0 0 0 0 0 127 0"/>
<feOffset dy="5"/>
<feGaussianBlur stdDeviation="2.5"/>
<feColorMatrix type="matrix" values="0 0 0 0 0.0313726 0 0 0 0 0.109804 0 0 0 0 0.270588 0 0 0 0.05 0"/>
<feBlend mode="normal" in2="effect2_dropShadow" result="effect3_dropShadow"/>
<feBlend mode="normal" in="SourceGraphic" in2="effect3_dropShadow" result="shape"/>
</filter>
<filter id="filter2_ddd" x="20" y="86" width="480" height="90" filterUnits="userSpaceOnUse" color-interpolation-filters="sRGB">
<feFlood flood-opacity="0" result="BackgroundImageFix"/>
<feColorMatrix in="SourceAlpha" type="matrix" values="0 0 0 0 0 0 0 0 0 0 0 0 0 0 0 0 0 0 127 0"/>
<feOffset dy="10"/>
<feGaussianBlur stdDeviation="5"/>
<feColorMatrix type="matrix" values="0 0 0 0 0.0313726 0 0 0 0 0.109804 0 0 0 0 0.270588 0 0 0 0.05 0"/>
<feBlend mode="normal" in2="BackgroundImageFix" result="effect1_dropShadow"/>
<feColorMatrix in="SourceAlpha" type="matrix" values="0 0 0 0 0 0 0 0 0 0 0 0 0 0 0 0 0 0 127 0"/>
<feOffset dy="5"/>
<feGaussianBlur stdDeviation="10"/>
<feColorMatrix type="matrix" values="0 0 0 0 0.0313726 0 0 0 0 0.109804 0 0 0 0 0.270588 0 0 0 0.05 0"/>
<feBlend mode="normal" in2="effect1_dropShadow" result="effect2_dropShadow"/>
<feColorMatrix in="SourceAlpha" type="matrix" values="0 0 0 0 0 0 0 0 0 0 0 0 0 0 0 0 0 0 127 0"/>
<feOffset dy="5"/>
<feGaussianBlur stdDeviation="2.5"/>
<feColorMatrix type="matrix" values="0 0 0 0 0.0313726 0 0 0 0 0.109804 0 0 0 0 0.270588 0 0 0 0.05 0"/>
<feBlend mode="normal" in2="effect2_dropShadow" result="effect3_dropShadow"/>
<feBlend mode="normal" in="SourceGraphic" in2="effect3_dropShadow" result="shape"/>
</filter>
<linearGradient id="paint0_linear" x1="500" y1="15" x2="359.832" y2="441.646" gradientUnits="userSpaceOnUse">
<stop stop-color="#F1F1F9"/>
<stop offset="1" stop-color="white"/>
</linearGradient>
</defs>
</svg>
