<svg width="520" height="426" viewBox="0 0 520 426" fill="none" xmlns="http://www.w3.org/2000/svg">
<g filter="url(#filter0_ddd)">
<path d="M20 23C20 18.5817 23.5817 15 28 15H492C496.418 15 500 18.5817 500 23V393C500 397.418 496.418 401 492 401H28C23.5817 401 20 397.418 20 393V23Z" fill="url(#paint0_linear)"/>
</g>
<g filter="url(#filter1_ddd)">
<path d="M270 323C270 319.686 272.686 317 276 317H474C477.314 317 480 319.686 480 323V361C480 364.314 477.314 367 474 367H276C272.686 367 270 364.314 270 361V323Z" fill="white"/>
</g>
<path fill-rule="evenodd" clip-rule="evenodd" d="M295 333C290.029 333 286 337.029 286 342C286 346.971 290.029 351 295 351C299.971 351 304 346.971 304 342C304 337.029 299.971 333 295 333ZM284 342C284 335.925 288.925 331 295 331C301.075 331 306 335.925 306 342C306 348.075 301.075 353 295 353C288.925 353 284 348.075 284 342Z" fill="#DBDBF0"/>
<path fill-rule="evenodd" clip-rule="evenodd" d="M294 337H296V341H300V343H294V337Z" fill="#9C9CC9"/>
<path d="M318.393 347H319.992V339.382H322.891V337.9H315.494V339.382H318.393V347Z" fill="#0F0449"/>
<path d="M325.908 347.143C326.961 347.143 327.598 346.597 328.053 345.934V347H329.639V340.136H328.053V344.01C328.053 345.089 327.429 345.7 326.506 345.7C325.57 345.7 325.037 345.115 325.037 344.036V340.136H323.464V344.504C323.464 346.116 324.348 347.143 325.908 347.143Z" fill="#0F0449"/>
<path d="M334.749 347.156C336.01 347.156 336.894 346.649 337.557 345.869L336.634 345.05C336.075 345.583 335.555 345.869 334.775 345.869C333.748 345.869 332.968 345.258 332.799 344.127H337.843C337.856 343.971 337.869 343.828 337.869 343.685C337.869 341.709 336.764 339.993 334.58 339.993C332.617 339.993 331.226 341.592 331.226 343.568V343.594C331.226 345.713 332.773 347.156 334.749 347.156ZM332.786 343.087C332.929 342.008 333.592 341.28 334.567 341.28C335.607 341.28 336.205 342.086 336.309 343.087H332.786Z" fill="#0F0449"/>
<path d="M341.802 347.13C343.232 347.13 344.35 346.415 344.35 344.972V344.946C344.35 343.711 343.206 343.256 342.218 342.944C341.412 342.697 340.671 342.463 340.671 341.969V341.943C340.671 341.566 341.022 341.267 341.633 341.267C342.205 341.267 342.907 341.514 343.57 341.917L344.194 340.799C343.466 340.318 342.543 340.019 341.672 340.019C340.307 340.019 339.228 340.812 339.228 342.125V342.151C339.228 343.451 340.372 343.88 341.373 344.153C342.179 344.4 342.907 344.595 342.907 345.115V345.141C342.907 345.596 342.517 345.882 341.841 345.882C341.126 345.882 340.359 345.596 339.592 345.037L338.89 346.103C339.761 346.792 340.814 347.13 341.802 347.13Z" fill="#0F0449"/>
<path d="M348.796 347.143C349.901 347.143 350.629 346.571 351.136 345.856V347H352.709V337.51H351.136V341.202C350.655 340.552 349.914 339.993 348.796 339.993C347.158 339.993 345.611 341.267 345.611 343.555V343.581C345.611 345.869 347.184 347.143 348.796 347.143ZM349.173 345.778C348.094 345.778 347.197 344.907 347.197 343.581V343.555C347.197 342.203 348.094 341.358 349.173 341.358C350.226 341.358 351.162 342.229 351.162 343.555V343.581C351.162 344.894 350.226 345.778 349.173 345.778Z" fill="#0F0449"/>
<path d="M356.659 347.143C357.712 347.143 358.427 346.701 358.895 346.142V347H360.429V342.931C360.429 342.034 360.195 341.319 359.688 340.812C359.194 340.305 358.44 340.045 357.413 340.045C356.321 340.045 355.58 340.279 354.813 340.604L355.242 341.839C355.866 341.579 356.425 341.41 357.205 341.41C358.31 341.41 358.908 341.917 358.908 342.905V343.074C358.375 342.905 357.842 342.788 357.062 342.788C355.385 342.788 354.215 343.503 354.215 344.998V345.024C354.215 346.415 355.372 347.143 356.659 347.143ZM357.101 345.999C356.334 345.999 355.762 345.622 355.762 344.959V344.933C355.762 344.205 356.347 343.789 357.374 343.789C357.998 343.789 358.531 343.906 358.934 344.062V344.53C358.934 345.414 358.141 345.999 357.101 345.999Z" fill="#0F0449"/>
<path d="M365.023 345.232L363.099 340.136H361.409L364.269 347.013C364.009 347.598 363.749 347.793 363.294 347.793C362.969 347.793 362.67 347.689 362.371 347.533L361.838 348.69C362.319 348.963 362.8 349.119 363.463 349.119C364.568 349.119 365.166 348.599 365.725 347.182L368.455 340.136H366.817L365.023 345.232Z" fill="#0F0449"/>
<path d="M408.75 347H410.336V337.835H409.231L406.774 338.615L407.112 339.915L408.75 339.46V347Z" fill="#5C5C8A"/>
<path d="M416.284 347.156C418.676 347.156 420.262 345.05 420.262 342.45V342.424C420.262 339.824 418.689 337.744 416.31 337.744C413.918 337.744 412.332 339.85 412.332 342.45V342.476C412.332 345.076 413.892 347.156 416.284 347.156ZM416.31 345.713C414.893 345.713 413.983 344.244 413.983 342.45V342.424C413.983 340.63 414.88 339.187 416.284 339.187C417.688 339.187 418.611 340.656 418.611 342.45V342.476C418.611 344.257 417.714 345.713 416.31 345.713Z" fill="#5C5C8A"/>
<path d="M421.947 341.917H423.676V340.136H421.947V341.917ZM421.947 347H423.676V345.206H421.947V347Z" fill="#5C5C8A"/>
<path d="M429.322 347.156C431.714 347.156 433.3 345.05 433.3 342.45V342.424C433.3 339.824 431.727 337.744 429.348 337.744C426.956 337.744 425.37 339.85 425.37 342.45V342.476C425.37 345.076 426.93 347.156 429.322 347.156ZM429.348 345.713C427.931 345.713 427.021 344.244 427.021 342.45V342.424C427.021 340.63 427.918 339.187 429.322 339.187C430.726 339.187 431.649 340.656 431.649 342.45V342.476C431.649 344.257 430.752 345.713 429.348 345.713Z" fill="#5C5C8A"/>
<path d="M438.729 347.156C441.121 347.156 442.707 345.05 442.707 342.45V342.424C442.707 339.824 441.134 337.744 438.755 337.744C436.363 337.744 434.777 339.85 434.777 342.45V342.476C434.777 345.076 436.337 347.156 438.729 347.156ZM438.755 345.713C437.338 345.713 436.428 344.244 436.428 342.45V342.424C436.428 340.63 437.325 339.187 438.729 339.187C440.133 339.187 441.056 340.656 441.056 342.45V342.476C441.056 344.257 440.159 345.713 438.755 345.713Z" fill="#5C5C8A"/>
<path d="M443.833 347H445.471L446.407 344.803H450.71L451.633 347H453.323L449.319 337.835H447.837L443.833 347ZM446.992 343.386L448.552 339.746L450.125 343.386H446.992Z" fill="#5C5C8A"/>
<path d="M454.884 347H456.457V340.5L459.304 344.764H459.356L462.229 340.474V347H463.828V337.9H462.125L459.356 342.203L456.587 337.9H454.884V347Z" fill="#5C5C8A"/>
<g filter="url(#filter2_ddd)">
<path d="M40 323C40 319.686 42.6863 317 46 317H244C247.314 317 250 319.686 250 323V361C250 364.314 247.314 367 244 367H46C42.6863 367 40 364.314 40 361V323Z" fill="#00CC99"/>
</g>
<path d="M75 342C75 347.523 70.5228 352 65 352C59.4772 352 55 347.523 55 342C55 336.477 59.4772 332 65 332C70.5228 332 75 336.477 75 342Z" fill="white"/>
<path fill-rule="evenodd" clip-rule="evenodd" d="M65 333C60.0294 333 56 337.029 56 342C56 346.971 60.0294 351 65 351C69.9706 351 74 346.971 74 342C74 337.029 69.9706 333 65 333ZM54 342C54 335.925 58.9249 331 65 331C71.0751 331 76 335.925 76 342C76 348.075 71.0751 353 65 353C58.9249 353 54 348.075 54 342Z" fill="white"/>
<path fill-rule="evenodd" clip-rule="evenodd" d="M70.698 339.716L63.8422 346.396L60.3022 342.947L61.698 341.514L63.8422 343.604L69.3022 338.284L70.698 339.716Z" fill="#00CC99"/>
<path d="M86.1699 347H87.7429V340.5L90.5899 344.764H90.6419L93.5149 340.474V347H95.1139V337.9H93.4109L90.6419 342.203L87.8729 337.9H86.1699V347Z" fill="white"/>
<path d="M100.537 347.156C102.656 347.156 104.216 345.518 104.216 343.581V343.555C104.216 341.592 102.682 339.993 100.563 339.993C98.4571 339.993 96.8971 341.618 96.8971 343.581V343.607C96.8971 345.557 98.4441 347.156 100.537 347.156ZM100.563 345.778C99.3541 345.778 98.4701 344.777 98.4701 343.581V343.555C98.4701 342.359 99.2761 341.371 100.537 341.371C101.772 341.371 102.643 342.372 102.643 343.581V343.607C102.643 344.79 101.85 345.778 100.563 345.778Z" fill="white"/>
<path d="M105.805 347H107.391V343.126C107.391 342.047 108.015 341.423 108.938 341.423C109.874 341.423 110.407 342.021 110.407 343.1V347H111.98V342.619C111.98 341.02 111.096 339.993 109.536 339.993C108.457 339.993 107.846 340.552 107.391 341.189V340.136H105.805V347Z" fill="white"/>
<path d="M116.714 347.143C117.819 347.143 118.547 346.571 119.054 345.856V347H120.627V337.51H119.054V341.202C118.573 340.552 117.832 339.993 116.714 339.993C115.076 339.993 113.529 341.267 113.529 343.555V343.581C113.529 345.869 115.102 347.143 116.714 347.143ZM117.091 345.778C116.012 345.778 115.115 344.907 115.115 343.581V343.555C115.115 342.203 116.012 341.358 117.091 341.358C118.144 341.358 119.08 342.229 119.08 343.555V343.581C119.08 344.894 118.144 345.778 117.091 345.778Z" fill="white"/>
<path d="M124.577 347.143C125.63 347.143 126.345 346.701 126.813 346.142V347H128.347V342.931C128.347 342.034 128.113 341.319 127.606 340.812C127.112 340.305 126.358 340.045 125.331 340.045C124.239 340.045 123.498 340.279 122.731 340.604L123.16 341.839C123.784 341.579 124.343 341.41 125.123 341.41C126.228 341.41 126.826 341.917 126.826 342.905V343.074C126.293 342.905 125.76 342.788 124.98 342.788C123.303 342.788 122.133 343.503 122.133 344.998V345.024C122.133 346.415 123.29 347.143 124.577 347.143ZM125.019 345.999C124.252 345.999 123.68 345.622 123.68 344.959V344.933C123.68 344.205 124.265 343.789 125.292 343.789C125.916 343.789 126.449 343.906 126.852 344.062V344.53C126.852 345.414 126.059 345.999 125.019 345.999Z" fill="white"/>
<path d="M132.941 345.232L131.017 340.136H129.327L132.187 347.013C131.927 347.598 131.667 347.793 131.212 347.793C130.887 347.793 130.588 347.689 130.289 347.533L129.756 348.69C130.237 348.963 130.718 349.119 131.381 349.119C132.486 349.119 133.084 348.599 133.643 347.182L136.373 340.136H134.735L132.941 345.232Z" fill="white"/>
<g opacity="0.75">
<path d="M180.185 347V339.46L178.547 339.915L178.209 338.615L180.666 337.835H181.771V347H180.185Z" fill="white"/>
<path d="M183.662 347V345.739L186.795 343.074C187.445 342.519 187.892 342.073 188.134 341.735C188.377 341.388 188.498 341.016 188.498 340.617C188.498 340.184 188.36 339.841 188.082 339.59C187.805 339.33 187.454 339.2 187.029 339.2C186.631 339.2 186.271 339.308 185.95 339.525C185.63 339.742 185.292 340.088 184.936 340.565L183.792 339.668C184.26 339.018 184.746 338.541 185.248 338.238C185.751 337.926 186.384 337.77 187.146 337.77C188.03 337.77 188.75 338.021 189.304 338.524C189.868 339.027 190.149 339.681 190.149 340.487V340.513C190.149 340.981 190.054 341.41 189.863 341.8C189.681 342.181 189.439 342.528 189.135 342.84C188.841 343.143 188.39 343.542 187.783 344.036L185.911 345.596H190.24V347H183.662Z" fill="white"/>
<path d="M191.947 341.917V340.136H193.676V341.917H191.947ZM191.947 347V345.206H193.676V347H191.947Z" fill="white"/>
<path d="M202.182 345.804C201.445 346.705 200.492 347.156 199.322 347.156C198.152 347.156 197.198 346.71 196.462 345.817C195.734 344.916 195.37 343.802 195.37 342.476V342.45C195.37 341.124 195.738 340.01 196.475 339.109C197.22 338.199 198.178 337.744 199.348 337.744C200.518 337.744 201.467 338.195 202.195 339.096C202.931 339.989 203.3 341.098 203.3 342.424V342.45C203.3 343.776 202.927 344.894 202.182 345.804ZM199.348 345.713C200.032 345.713 200.587 345.401 201.012 344.777C201.436 344.153 201.649 343.386 201.649 342.476V342.45C201.649 341.531 201.432 340.76 200.999 340.136C200.565 339.503 200.006 339.187 199.322 339.187C198.637 339.187 198.082 339.499 197.658 340.123C197.233 340.738 197.021 341.505 197.021 342.424V342.45C197.021 343.369 197.233 344.144 197.658 344.777C198.091 345.401 198.654 345.713 199.348 345.713Z" fill="white"/>
<path d="M211.589 345.804C210.852 346.705 209.899 347.156 208.729 347.156C207.559 347.156 206.606 346.71 205.869 345.817C205.141 344.916 204.777 343.802 204.777 342.476V342.45C204.777 341.124 205.145 340.01 205.882 339.109C206.627 338.199 207.585 337.744 208.755 337.744C209.925 337.744 210.874 338.195 211.602 339.096C212.339 339.989 212.707 341.098 212.707 342.424V342.45C212.707 343.776 212.334 344.894 211.589 345.804ZM208.755 345.713C209.44 345.713 209.994 345.401 210.419 344.777C210.844 344.153 211.056 343.386 211.056 342.476V342.45C211.056 341.531 210.839 340.76 210.406 340.136C209.973 339.503 209.414 339.187 208.729 339.187C208.044 339.187 207.49 339.499 207.065 340.123C206.64 340.738 206.428 341.505 206.428 342.424V342.45C206.428 343.369 206.64 344.144 207.065 344.777C207.498 345.401 208.062 345.713 208.755 345.713Z" fill="white"/>
<path d="M213.833 347L217.837 337.835H219.319L223.323 347H221.633L220.71 344.803H216.407L215.471 347H213.833ZM216.992 343.386H220.125L218.552 339.746L216.992 343.386Z" fill="white"/>
<path d="M224.884 347V337.9H226.587L229.356 342.203L232.125 337.9H233.828V347H232.229V340.474L229.356 344.764H229.304L226.457 340.5V347H224.884Z" fill="white"/>
</g>
<path d="M44.1321 300H45.6081V292.968H48.2841V291.6H41.4561V292.968H44.1321V300Z" fill="#9C9CC9"/>
<path d="M50.2584 300H51.7344V291.6H50.2584V300Z" fill="#9C9CC9"/>
<path d="M54.343 300H55.795V294L58.423 297.936H58.471L61.123 293.976V300H62.599V291.6H61.027L58.471 295.572L55.915 291.6H54.343V300Z" fill="#9C9CC9"/>
<path d="M65.121 300H71.409V298.68H66.597V296.436H70.809V295.104H66.597V292.92H71.349V291.6H65.121V300Z" fill="#9C9CC9"/>
<path d="M77.4777 300H81.3657C83.2377 300 84.4737 299.196 84.4737 297.696V297.672C84.4737 296.52 83.8017 295.98 82.8057 295.632C83.4297 295.308 84.0057 294.78 84.0057 293.76V293.736C84.0057 293.184 83.8137 292.716 83.4417 292.344C82.9497 291.852 82.2177 291.6 81.2457 291.6H77.4777V300ZM82.5297 294C82.5297 294.768 81.9057 295.14 80.9457 295.14H78.9297V292.908H81.0537C82.0137 292.908 82.5297 293.304 82.5297 293.976V294ZM82.9977 297.54C82.9977 298.308 82.3857 298.692 81.3777 298.692H78.9297V296.388H81.2697C82.4337 296.388 82.9977 296.796 82.9977 297.516V297.54Z" fill="#9C9CC9"/>
<path d="M86.4979 300H92.3899V298.656H87.9739V291.6H86.4979V300Z" fill="#9C9CC9"/>
<path d="M97.7682 300.144C100.348 300.144 102.172 298.152 102.172 295.8V295.776C102.172 293.412 100.372 291.456 97.7922 291.456C95.2122 291.456 93.3882 293.448 93.3882 295.8V295.824C93.3882 298.188 95.1882 300.144 97.7682 300.144ZM97.7922 298.776C96.1122 298.776 94.9362 297.432 94.9362 295.8V295.776C94.9362 294.144 96.1002 292.824 97.7682 292.824C99.4482 292.824 100.624 294.168 100.624 295.8V295.824C100.624 297.456 99.4602 298.776 97.7922 298.776Z" fill="#9C9CC9"/>
<path d="M108.216 300.144C109.776 300.144 110.772 299.58 111.624 298.656L110.676 297.696C109.956 298.368 109.284 298.776 108.264 298.776C106.656 298.776 105.492 297.444 105.492 295.8V295.776C105.492 294.132 106.668 292.824 108.252 292.824C109.224 292.824 109.932 293.232 110.616 293.856L111.564 292.764C110.76 291.996 109.824 291.456 108.264 291.456C105.732 291.456 103.944 293.412 103.944 295.8V295.824C103.944 298.236 105.768 300.144 108.216 300.144Z" fill="#9C9CC9"/>
<path d="M113.547 300H115.023V297.564L116.331 296.22L119.199 300H120.999L117.339 295.212L120.843 291.6H119.007L115.023 295.824V291.6H113.547V300Z" fill="#9C9CC9"/>
<path d="M125.436 300.12C127.2 300.12 128.436 299.196 128.436 297.612V297.588C128.436 296.184 127.512 295.584 125.748 295.128C124.128 294.744 123.744 294.456 123.744 293.808V293.784C123.744 293.22 124.248 292.788 125.112 292.788C125.88 292.788 126.624 293.088 127.392 293.652L128.184 292.536C127.32 291.852 126.372 291.48 125.136 291.48C123.468 291.48 122.268 292.476 122.268 293.916V293.94C122.268 295.476 123.276 296.028 125.064 296.448C126.624 296.796 126.96 297.144 126.96 297.732V297.756C126.96 298.38 126.384 298.812 125.472 298.812C124.428 298.812 123.636 298.428 122.82 297.72L121.932 298.776C122.94 299.688 124.14 300.12 125.436 300.12Z" fill="#9C9CC9"/>
<g filter="url(#filter3_ddd)">
<path d="M40 234C40 220.193 51.4532 209 65.5814 209H454.419C468.547 209 480 220.193 480 234C480 247.807 468.547 259 454.419 259H65.5814C51.4532 259 40 247.807 40 234Z" fill="#0F0449"/>
</g>
<path d="M453.646 236.646L448.854 231.854C448.539 231.539 448.762 231 449.207 231H458.793C459.238 231 459.461 231.539 459.146 231.854L454.354 236.646C454.158 236.842 453.842 236.842 453.646 236.646Z" fill="#9C9CC9"/>
<path d="M63.9959 238.12C65.8079 238.12 67.0799 237.184 67.0799 235.516V235.492C67.0799 234.028 66.1199 233.428 64.4159 232.972C62.9639 232.588 62.6039 232.432 62.6039 231.868V231.844C62.6039 231.424 62.9639 231.112 63.6839 231.112C64.4039 231.112 65.1119 231.424 65.8679 231.94L66.8279 230.548C65.9639 229.864 64.9439 229.48 63.7079 229.48C61.9799 229.48 60.7679 230.488 60.7679 232.012V232.036C60.7679 233.692 61.8479 234.184 63.5519 234.604C64.9559 234.952 65.2439 235.204 65.2439 235.672V235.696C65.2439 236.188 64.7999 236.488 64.0319 236.488C63.0719 236.488 62.2919 236.092 61.5239 235.468L60.4319 236.776C61.4399 237.688 62.7119 238.12 63.9959 238.12Z" fill="white"/>
<path d="M69.0437 238H75.4397V236.356H70.8797V234.592H74.8397V232.948H70.8797V231.244H75.3797V229.6H69.0437V238Z" fill="white"/>
<path d="M77.4427 238H83.4787V236.32H79.2907V229.6H77.4427V238Z" fill="white"/>
<path d="M85.2324 238H91.6284V236.356H87.0684V234.592H91.0284V232.948H87.0684V231.244H91.5684V229.6H85.2324V238Z" fill="white"/>
<path d="M97.5675 238.144C99.1995 238.144 100.147 237.568 101.011 236.644L99.8355 235.456C99.1755 236.068 98.5875 236.44 97.6275 236.44C96.1875 236.44 95.1915 235.24 95.1915 233.8V233.776C95.1915 232.336 96.2115 231.16 97.6275 231.16C98.4795 231.16 99.1155 231.52 99.7755 232.108L100.951 230.752C100.183 229.984 99.2115 229.456 97.6395 229.456C95.0595 229.456 93.2595 231.412 93.2595 233.8V233.824C93.2595 236.236 95.0955 238.144 97.5675 238.144Z" fill="white"/>
<path d="M104.807 238H106.655V231.304H109.211V229.6H102.251V231.304H104.807V238Z" fill="white"/>
<path d="M114.95 238H116.798V234.628H120.206V238H122.054V229.6H120.206V232.924H116.798V229.6H114.95V238Z" fill="white"/>
<path d="M128.507 238.144C131.099 238.144 132.983 236.188 132.983 233.8V233.776C132.983 231.388 131.123 229.456 128.531 229.456C125.939 229.456 124.055 231.412 124.055 233.8V233.824C124.055 236.212 125.915 238.144 128.507 238.144ZM128.531 236.44C127.043 236.44 125.987 235.24 125.987 233.8V233.776C125.987 232.336 127.019 231.16 128.507 231.16C129.995 231.16 131.051 232.36 131.051 233.8V233.824C131.051 235.264 130.019 236.44 128.531 236.44Z" fill="white"/>
<path d="M134.982 238H141.018V236.32H136.83V229.6H134.982V238Z" fill="white"/>
<path d="M142.856 238H144.704V229.6H142.856V238Z" fill="white"/>
<path d="M147.163 238H150.439C153.079 238 154.903 236.164 154.903 233.8V233.776C154.903 231.412 153.079 229.6 150.439 229.6H147.163V238ZM150.439 231.268C151.939 231.268 152.971 232.312 152.971 233.8V233.824C152.971 235.312 151.939 236.332 150.439 236.332H149.011V231.268H150.439Z" fill="white"/>
<path d="M155.592 238H157.476L158.244 236.116H161.796L162.564 238H164.496L160.896 229.54H159.192L155.592 238ZM158.904 234.484L160.02 231.76L161.136 234.484H158.904Z" fill="white"/>
<path d="M167.193 238H169.041V234.652L172.269 229.6H170.169L168.129 232.972L166.125 229.6H163.965L167.193 234.688V238Z" fill="white"/>
<path d="M176.344 238.12C178.156 238.12 179.428 237.184 179.428 235.516V235.492C179.428 234.028 178.468 233.428 176.764 232.972C175.312 232.588 174.952 232.432 174.952 231.868V231.844C174.952 231.424 175.312 231.112 176.032 231.112C176.752 231.112 177.46 231.424 178.216 231.94L179.176 230.548C178.312 229.864 177.292 229.48 176.056 229.48C174.328 229.48 173.116 230.488 173.116 232.012V232.036C173.116 233.692 174.196 234.184 175.9 234.604C177.304 234.952 177.592 235.204 177.592 235.672V235.696C177.592 236.188 177.148 236.488 176.38 236.488C175.42 236.488 174.64 236.092 173.872 235.468L172.78 236.776C173.788 237.688 175.06 238.12 176.344 238.12Z" fill="white"/>
<g filter="url(#filter4_ddd)">
<path d="M270 125C270 121.686 272.686 119 276 119H474C477.314 119 480 121.686 480 125V173C480 176.314 477.314 179 474 179H276C272.686 179 270 176.314 270 173V125Z" fill="#330DF2"/>
</g>
<path d="M298.41 154.14C297.327 154.14 296.431 153.883 295.722 153.37C295.022 152.847 294.672 152.166 294.672 151.326V151.298C294.672 150.197 295.26 149.403 296.436 148.918C295.484 148.423 295.008 147.695 295.008 146.734V146.706C295.008 145.95 295.33 145.32 295.974 144.816C296.618 144.312 297.43 144.06 298.41 144.06C299.39 144.06 300.202 144.312 300.846 144.816C301.49 145.32 301.812 145.95 301.812 146.706V146.734C301.812 147.695 301.336 148.423 300.384 148.918C301.56 149.45 302.148 150.234 302.148 151.27V151.298C302.148 152.166 301.798 152.857 301.098 153.37C300.398 153.883 299.502 154.14 298.41 154.14ZM297.15 147.938C297.486 148.209 297.906 148.344 298.41 148.344C298.914 148.344 299.329 148.209 299.656 147.938C299.992 147.667 300.16 147.322 300.16 146.902V146.874C300.16 146.482 299.997 146.155 299.67 145.894C299.353 145.633 298.933 145.502 298.41 145.502C297.887 145.502 297.463 145.633 297.136 145.894C296.819 146.155 296.66 146.482 296.66 146.874V146.902C296.66 147.322 296.823 147.667 297.15 147.938ZM296.912 152.278C297.285 152.558 297.785 152.698 298.41 152.698C299.035 152.698 299.53 152.563 299.894 152.292C300.267 152.012 300.454 151.657 300.454 151.228V151.2C300.454 150.761 300.263 150.407 299.88 150.136C299.497 149.865 299.007 149.73 298.41 149.73C297.813 149.73 297.323 149.865 296.94 150.136C296.557 150.407 296.366 150.761 296.366 151.2V151.228C296.366 151.639 296.548 151.989 296.912 152.278Z" fill="white"/>
<path d="M307.074 154.168C305.721 154.168 304.522 153.669 303.476 152.67L304.54 151.424C305.38 152.208 306.22 152.6 307.06 152.6C307.648 152.6 308.12 152.446 308.474 152.138C308.829 151.83 309.006 151.419 309.006 150.906V150.878C309.006 150.383 308.82 149.991 308.446 149.702C308.073 149.403 307.583 149.254 306.976 149.254C306.388 149.254 305.786 149.399 305.17 149.688L304.134 149.002L304.414 144.2H310.28V145.74H305.898L305.744 148.022C306.258 147.835 306.776 147.742 307.298 147.742C308.297 147.742 309.114 148.008 309.748 148.54C310.392 149.063 310.714 149.823 310.714 150.822V150.85C310.714 151.849 310.378 152.651 309.706 153.258C309.044 153.865 308.166 154.168 307.074 154.168Z" fill="white"/>
<path d="M316.259 154.168C315.13 154.168 314.22 153.823 313.529 153.132C313.137 152.74 312.838 152.255 312.633 151.676C312.437 151.097 312.339 150.337 312.339 149.394V149.366C312.339 147.807 312.703 146.529 313.431 145.53C314.168 144.531 315.204 144.032 316.539 144.032C317.631 144.032 318.63 144.396 319.535 145.124L318.611 146.468C318.238 146.169 317.892 145.95 317.575 145.81C317.258 145.67 316.894 145.6 316.483 145.6C315.942 145.6 315.489 145.773 315.125 146.118C314.761 146.463 314.509 146.86 314.369 147.308C314.229 147.747 314.15 148.218 314.131 148.722C314.766 148.059 315.55 147.728 316.483 147.728C317.472 147.728 318.289 148.003 318.933 148.554C319.577 149.105 319.899 149.856 319.899 150.808V150.836C319.899 151.807 319.549 152.605 318.849 153.23C318.158 153.855 317.295 154.168 316.259 154.168ZM314.747 152.18C315.12 152.507 315.61 152.67 316.217 152.67C316.824 152.67 317.3 152.507 317.645 152.18C318 151.844 318.177 151.419 318.177 150.906V150.878C318.177 150.374 317.995 149.963 317.631 149.646C317.267 149.329 316.782 149.17 316.175 149.17C315.578 149.17 315.097 149.338 314.733 149.674C314.369 150.001 314.187 150.407 314.187 150.892V150.92C314.187 151.433 314.374 151.853 314.747 152.18Z" fill="white"/>
<path d="M321.415 154V152.642L324.789 149.772C325.489 149.175 325.969 148.694 326.231 148.33C326.492 147.957 326.623 147.555 326.623 147.126C326.623 146.659 326.473 146.291 326.175 146.02C325.876 145.74 325.498 145.6 325.041 145.6C324.611 145.6 324.224 145.717 323.879 145.95C323.533 146.183 323.169 146.557 322.787 147.07L321.555 146.104C322.059 145.404 322.581 144.891 323.123 144.564C323.664 144.228 324.345 144.06 325.167 144.06C326.119 144.06 326.893 144.331 327.491 144.872C328.097 145.413 328.401 146.118 328.401 146.986V147.014C328.401 147.518 328.298 147.98 328.093 148.4C327.897 148.811 327.635 149.184 327.309 149.52C326.991 149.847 326.506 150.276 325.853 150.808L323.837 152.488H328.499V154H321.415Z" fill="white"/>
<path d="M338.202 154.14C336.634 154.14 335.271 153.617 334.114 152.572L335.15 151.34C336.13 152.189 337.161 152.614 338.244 152.614C338.776 152.614 339.196 152.502 339.504 152.278C339.821 152.045 339.98 151.746 339.98 151.382V151.354C339.98 150.99 339.826 150.701 339.518 150.486C339.219 150.262 338.636 150.052 337.768 149.856C336.639 149.595 335.813 149.254 335.29 148.834C334.767 148.414 334.506 147.779 334.506 146.93V146.902C334.506 146.062 334.819 145.381 335.444 144.858C336.069 144.326 336.872 144.06 337.852 144.06C339.187 144.06 340.372 144.471 341.408 145.292L340.484 146.594C339.569 145.922 338.683 145.586 337.824 145.586C337.329 145.586 336.937 145.698 336.648 145.922C336.368 146.137 336.228 146.412 336.228 146.748V146.776C336.228 147.159 336.382 147.457 336.69 147.672C337.007 147.877 337.633 148.092 338.566 148.316C339.658 148.596 340.451 148.951 340.946 149.38C341.45 149.8 341.702 150.402 341.702 151.186V151.214C341.702 152.119 341.38 152.833 340.736 153.356C340.092 153.879 339.247 154.14 338.202 154.14Z" fill="white"/>
<path d="M345.659 154.154C344.922 154.154 344.296 153.953 343.783 153.552C343.279 153.151 343.027 152.591 343.027 151.872V151.844C343.027 151.06 343.302 150.467 343.853 150.066C344.413 149.665 345.16 149.464 346.093 149.464C346.774 149.464 347.437 149.567 348.081 149.772V149.59C348.081 148.517 347.47 147.98 346.247 147.98C345.575 147.98 344.87 148.134 344.133 148.442L343.671 147.112C344.614 146.711 345.547 146.51 346.471 146.51C347.572 146.51 348.389 146.785 348.921 147.336C349.453 147.868 349.719 148.629 349.719 149.618V154H348.067V153.076C347.47 153.795 346.667 154.154 345.659 154.154ZM346.135 152.922C346.704 152.922 347.176 152.777 347.549 152.488C347.922 152.189 348.109 151.807 348.109 151.34V150.836C347.605 150.64 347.045 150.542 346.429 150.542C345.878 150.542 345.449 150.649 345.141 150.864C344.842 151.079 344.693 151.382 344.693 151.774V151.802C344.693 152.147 344.828 152.423 345.099 152.628C345.37 152.824 345.715 152.922 346.135 152.922Z" fill="white"/>
<path d="M351.734 154V146.608H353.442V147.742C354.058 146.883 354.828 146.454 355.752 146.454C356.582 146.454 357.226 146.711 357.684 147.224C358.15 147.728 358.384 148.414 358.384 149.282V154H356.69V149.8C356.69 149.221 356.55 148.778 356.27 148.47C355.999 148.153 355.612 147.994 355.108 147.994C354.604 147.994 354.198 148.157 353.89 148.484C353.591 148.811 353.442 149.259 353.442 149.828V154H351.734Z" fill="white"/>
<path d="M369.373 154.168C367.954 154.168 366.769 153.683 365.817 152.712C364.865 151.741 364.389 150.547 364.389 149.128V149.1C364.389 147.681 364.865 146.482 365.817 145.502C366.769 144.522 367.973 144.032 369.429 144.032C370.278 144.032 371.001 144.163 371.599 144.424C372.196 144.685 372.756 145.063 373.279 145.558L372.173 146.832C371.295 146.029 370.376 145.628 369.415 145.628C368.5 145.628 367.735 145.964 367.119 146.636C366.503 147.299 366.195 148.111 366.195 149.072V149.1C366.195 150.071 366.503 150.892 367.119 151.564C367.735 152.236 368.505 152.572 369.429 152.572C369.989 152.572 370.483 152.469 370.913 152.264C371.342 152.059 371.785 151.741 372.243 151.312L373.349 152.432C372.817 153.001 372.238 153.435 371.613 153.734C370.987 154.023 370.241 154.168 369.373 154.168Z" fill="white"/>
<path d="M377.104 154.154C376.367 154.154 375.742 153.953 375.228 153.552C374.724 153.151 374.472 152.591 374.472 151.872V151.844C374.472 151.06 374.748 150.467 375.298 150.066C375.858 149.665 376.605 149.464 377.538 149.464C378.22 149.464 378.882 149.567 379.526 149.772V149.59C379.526 148.517 378.915 147.98 377.692 147.98C377.02 147.98 376.316 148.134 375.578 148.442L375.116 147.112C376.059 146.711 376.992 146.51 377.916 146.51C379.018 146.51 379.834 146.785 380.366 147.336C380.898 147.868 381.164 148.629 381.164 149.618V154H379.512V153.076C378.915 153.795 378.112 154.154 377.104 154.154ZM377.58 152.922C378.15 152.922 378.621 152.777 378.994 152.488C379.368 152.189 379.554 151.807 379.554 151.34V150.836C379.05 150.64 378.49 150.542 377.874 150.542C377.324 150.542 376.894 150.649 376.586 150.864C376.288 151.079 376.138 151.382 376.138 151.774V151.802C376.138 152.147 376.274 152.423 376.544 152.628C376.815 152.824 377.16 152.922 377.58 152.922Z" fill="white"/>
<path d="M383.179 154V146.608H384.887V148.274C385.41 147.014 386.282 146.412 387.505 146.468V148.26H387.407C386.632 148.26 386.016 148.512 385.559 149.016C385.111 149.511 384.887 150.234 384.887 151.186V154H383.179Z" fill="white"/>
<path d="M389.06 154V143.78H390.768V154H389.06Z" fill="white"/>
<path d="M396.496 154.168C395.376 154.168 394.443 153.799 393.696 153.062C392.949 152.315 392.576 151.41 392.576 150.346V150.318C392.576 149.245 392.954 148.335 393.71 147.588C394.466 146.832 395.404 146.454 396.524 146.454C397.653 146.454 398.591 146.827 399.338 147.574C400.085 148.311 400.458 149.217 400.458 150.29V150.318C400.458 151.373 400.08 152.278 399.324 153.034C398.568 153.79 397.625 154.168 396.496 154.168ZM396.524 152.684C397.196 152.684 397.737 152.46 398.148 152.012C398.559 151.555 398.764 150.999 398.764 150.346V150.318C398.764 149.655 398.549 149.095 398.12 148.638C397.691 148.171 397.149 147.938 396.496 147.938C395.833 147.938 395.297 148.167 394.886 148.624C394.475 149.072 394.27 149.627 394.27 150.29V150.318C394.27 150.971 394.485 151.531 394.914 151.998C395.343 152.455 395.88 152.684 396.524 152.684Z" fill="white"/>
<path d="M404.717 154.14C403.56 154.14 402.515 153.771 401.581 153.034L402.337 151.886C403.168 152.493 403.975 152.796 404.759 152.796C405.123 152.796 405.403 152.726 405.599 152.586C405.805 152.437 405.907 152.241 405.907 151.998V151.97C405.907 151.839 405.875 151.727 405.809 151.634C405.744 151.541 405.613 151.447 405.417 151.354C405.221 151.261 405.077 151.2 404.983 151.172C404.899 151.135 404.699 151.069 404.381 150.976C404.325 150.957 404.283 150.943 404.255 150.934C403.929 150.85 403.649 150.761 403.415 150.668C403.191 150.575 402.953 150.449 402.701 150.29C402.459 150.122 402.272 149.912 402.141 149.66C402.011 149.408 401.945 149.114 401.945 148.778V148.75C401.945 148.059 402.193 147.509 402.687 147.098C403.191 146.687 403.821 146.482 404.577 146.482C405.539 146.482 406.444 146.762 407.293 147.322L406.621 148.526C405.856 148.059 405.161 147.826 404.535 147.826C404.218 147.826 403.966 147.896 403.779 148.036C403.593 148.176 403.499 148.349 403.499 148.554V148.582C403.499 148.75 403.588 148.904 403.765 149.044C403.943 149.175 404.125 149.277 404.311 149.352C404.507 149.427 404.792 149.52 405.165 149.632C405.492 149.735 405.767 149.837 405.991 149.94C406.215 150.033 406.449 150.164 406.691 150.332C406.943 150.5 407.135 150.705 407.265 150.948C407.396 151.191 407.461 151.471 407.461 151.788V151.816C407.461 152.563 407.205 153.137 406.691 153.538C406.178 153.939 405.52 154.14 404.717 154.14Z" fill="white"/>
<path d="M417.02 154.14C415.452 154.14 414.09 153.617 412.932 152.572L413.968 151.34C414.948 152.189 415.98 152.614 417.062 152.614C417.594 152.614 418.014 152.502 418.322 152.278C418.64 152.045 418.798 151.746 418.798 151.382V151.354C418.798 150.99 418.644 150.701 418.336 150.486C418.038 150.262 417.454 150.052 416.586 149.856C415.457 149.595 414.631 149.254 414.108 148.834C413.586 148.414 413.324 147.779 413.324 146.93V146.902C413.324 146.062 413.637 145.381 414.262 144.858C414.888 144.326 415.69 144.06 416.67 144.06C418.005 144.06 419.19 144.471 420.226 145.292L419.302 146.594C418.388 145.922 417.501 145.586 416.642 145.586C416.148 145.586 415.756 145.698 415.466 145.922C415.186 146.137 415.046 146.412 415.046 146.748V146.776C415.046 147.159 415.2 147.457 415.508 147.672C415.826 147.877 416.451 148.092 417.384 148.316C418.476 148.596 419.27 148.951 419.764 149.38C420.268 149.8 420.52 150.402 420.52 151.186V151.214C420.52 152.119 420.198 152.833 419.554 153.356C418.91 153.879 418.066 154.14 417.02 154.14Z" fill="white"/>
<path d="M424.759 154.126C423.34 154.126 422.631 153.403 422.631 151.956V148.064H421.693V146.608H422.631V144.578H424.325V146.608H426.313V148.064H424.325V151.69C424.325 152.306 424.628 152.614 425.235 152.614C425.599 152.614 425.949 152.53 426.285 152.362V153.748C425.828 154 425.319 154.126 424.759 154.126Z" fill="white"/>
<path d="M428.023 154V146.608H429.731V148.274C430.253 147.014 431.126 146.412 432.349 146.468V148.26H432.251C431.476 148.26 430.86 148.512 430.403 149.016C429.955 149.511 429.731 150.234 429.731 151.186V154H428.023Z" fill="white"/>
<path d="M436.962 154.168C435.879 154.168 434.974 153.813 434.246 153.104C433.527 152.385 433.168 151.461 433.168 150.332V150.304C433.168 149.221 433.509 148.311 434.19 147.574C434.871 146.827 435.735 146.454 436.78 146.454C437.9 146.454 438.768 146.837 439.384 147.602C440.009 148.358 440.322 149.301 440.322 150.43C440.322 150.523 440.313 150.682 440.294 150.906H434.862C434.955 151.503 435.193 151.965 435.576 152.292C435.959 152.619 436.43 152.782 436.99 152.782C437.709 152.782 438.376 152.488 438.992 151.9L439.986 152.782C439.202 153.706 438.194 154.168 436.962 154.168ZM434.848 149.786H438.642C438.586 149.217 438.395 148.75 438.068 148.386C437.741 148.022 437.307 147.84 436.766 147.84C436.243 147.84 435.809 148.017 435.464 148.372C435.128 148.727 434.923 149.198 434.848 149.786Z" fill="white"/>
<path d="M445.411 154.168C444.328 154.168 443.423 153.813 442.695 153.104C441.976 152.385 441.617 151.461 441.617 150.332V150.304C441.617 149.221 441.958 148.311 442.639 147.574C443.32 146.827 444.184 146.454 445.229 146.454C446.349 146.454 447.217 146.837 447.833 147.602C448.458 148.358 448.771 149.301 448.771 150.43C448.771 150.523 448.762 150.682 448.743 150.906H443.311C443.404 151.503 443.642 151.965 444.025 152.292C444.408 152.619 444.879 152.782 445.439 152.782C446.158 152.782 446.825 152.488 447.441 151.9L448.435 152.782C447.651 153.706 446.643 154.168 445.411 154.168ZM443.297 149.786H447.091C447.035 149.217 446.844 148.75 446.517 148.386C446.19 148.022 445.756 147.84 445.215 147.84C444.692 147.84 444.258 148.017 443.913 148.372C443.577 148.727 443.372 149.198 443.297 149.786Z" fill="white"/>
<path d="M452.95 154.126C451.532 154.126 450.822 153.403 450.822 151.956V148.064H449.884V146.608H450.822V144.578H452.516V146.608H454.504V148.064H452.516V151.69C452.516 152.306 452.82 152.614 453.426 152.614C453.79 152.614 454.14 152.53 454.476 152.362V153.748C454.019 154 453.51 154.126 452.95 154.126Z" fill="white"/>
<g filter="url(#filter5_ddd)">
<path d="M40 125C40 121.686 42.6863 119 46 119H244C247.314 119 250 121.686 250 125V173C250 176.314 247.314 179 244 179H46C42.6863 179 40 176.314 40 173V125Z" fill="white"/>
</g>
<path d="M71.3541 154.168C69.8047 154.168 68.5541 153.599 67.6021 152.46L68.8061 151.326C69.5341 152.185 70.3927 152.614 71.3821 152.614C71.8674 152.614 72.2687 152.479 72.5861 152.208C72.9127 151.928 73.0761 151.569 73.0761 151.13V151.102C73.0761 150.626 72.8754 150.257 72.4741 149.996C72.0727 149.725 71.5221 149.59 70.8221 149.59H70.0241L69.7441 148.512L72.3901 145.698H68.1481V144.2H74.6301V145.488L71.9001 148.288C72.7307 148.391 73.4167 148.666 73.9581 149.114C74.5087 149.553 74.7841 150.192 74.7841 151.032V151.06C74.7841 151.965 74.4667 152.712 73.8321 153.3C73.1974 153.879 72.3714 154.168 71.3541 154.168Z" fill="#0F0449"/>
<path d="M76.8376 154L81.2336 145.712H76.3056V144.2H83.1936V145.502L78.7836 154H76.8376Z" fill="#0F0449"/>
<path d="M88.3294 154.168C87.2 154.168 86.29 153.823 85.5994 153.132C85.2074 152.74 84.9087 152.255 84.7034 151.676C84.5074 151.097 84.4094 150.337 84.4094 149.394V149.366C84.4094 147.807 84.7734 146.529 85.5014 145.53C86.2387 144.531 87.2747 144.032 88.6094 144.032C89.7014 144.032 90.7 144.396 91.6054 145.124L90.6814 146.468C90.308 146.169 89.9627 145.95 89.6454 145.81C89.328 145.67 88.964 145.6 88.5534 145.6C88.012 145.6 87.5594 145.773 87.1954 146.118C86.8314 146.463 86.5794 146.86 86.4394 147.308C86.2994 147.747 86.22 148.218 86.2014 148.722C86.836 148.059 87.62 147.728 88.5534 147.728C89.5427 147.728 90.3594 148.003 91.0034 148.554C91.6474 149.105 91.9694 149.856 91.9694 150.808V150.836C91.9694 151.807 91.6194 152.605 90.9194 153.23C90.2287 153.855 89.3654 154.168 88.3294 154.168ZM86.8174 152.18C87.1907 152.507 87.6807 152.67 88.2874 152.67C88.894 152.67 89.37 152.507 89.7154 152.18C90.07 151.844 90.2474 151.419 90.2474 150.906V150.878C90.2474 150.374 90.0654 149.963 89.7014 149.646C89.3374 149.329 88.852 149.17 88.2454 149.17C87.648 149.17 87.1674 149.338 86.8034 149.674C86.4394 150.001 86.2574 150.407 86.2574 150.892V150.92C86.2574 151.433 86.444 151.853 86.8174 152.18Z" fill="#0F0449"/>
<path d="M93.4849 154V152.642L96.8589 149.772C97.5589 149.175 98.0395 148.694 98.3009 148.33C98.5622 147.957 98.6929 147.555 98.6929 147.126C98.6929 146.659 98.5435 146.291 98.2449 146.02C97.9462 145.74 97.5682 145.6 97.1109 145.6C96.6815 145.6 96.2942 145.717 95.9489 145.95C95.6035 146.183 95.2395 146.557 94.8569 147.07L93.6249 146.104C94.1289 145.404 94.6515 144.891 95.1929 144.564C95.7342 144.228 96.4155 144.06 97.2369 144.06C98.1889 144.06 98.9635 144.331 99.5609 144.872C100.168 145.413 100.471 146.118 100.471 146.986V147.014C100.471 147.518 100.368 147.98 100.163 148.4C99.9669 148.811 99.7055 149.184 99.3789 149.52C99.0615 149.847 98.5762 150.276 97.9229 150.808L95.9069 152.488H100.569V154H93.4849Z" fill="#0F0449"/>
<path d="M106.842 154V144.2H111.21C112.423 144.2 113.366 144.527 114.038 145.18C114.579 145.749 114.85 146.454 114.85 147.294V147.322C114.85 148.097 114.64 148.736 114.22 149.24C113.8 149.735 113.235 150.085 112.526 150.29L115.172 154H113.128L110.72 150.584H108.564V154H106.842ZM108.564 149.058H111.084C111.7 149.058 112.19 148.913 112.554 148.624C112.918 148.325 113.1 147.924 113.1 147.42V147.392C113.1 146.86 112.923 146.459 112.568 146.188C112.223 145.908 111.723 145.768 111.07 145.768H108.564V149.058Z" fill="#0F0449"/>
<path d="M118.891 154.154C118.154 154.154 117.529 153.953 117.015 153.552C116.511 153.151 116.259 152.591 116.259 151.872V151.844C116.259 151.06 116.535 150.467 117.085 150.066C117.645 149.665 118.392 149.464 119.325 149.464C120.007 149.464 120.669 149.567 121.313 149.772V149.59C121.313 148.517 120.702 147.98 119.479 147.98C118.807 147.98 118.103 148.134 117.365 148.442L116.903 147.112C117.846 146.711 118.779 146.51 119.703 146.51C120.805 146.51 121.621 146.785 122.153 147.336C122.685 147.868 122.951 148.629 122.951 149.618V154H121.299V153.076C120.702 153.795 119.899 154.154 118.891 154.154ZM119.367 152.922C119.937 152.922 120.408 152.777 120.781 152.488C121.155 152.189 121.341 151.807 121.341 151.34V150.836C120.837 150.64 120.277 150.542 119.661 150.542C119.111 150.542 118.681 150.649 118.373 150.864C118.075 151.079 117.925 151.382 117.925 151.774V151.802C117.925 152.147 118.061 152.423 118.331 152.628C118.602 152.824 118.947 152.922 119.367 152.922Z" fill="#0F0449"/>
<path d="M127.899 152.096L129.831 146.608H131.595L128.655 154.196C128.356 154.961 128.025 155.498 127.661 155.806C127.297 156.123 126.816 156.282 126.219 156.282C125.593 156.282 125.01 156.128 124.469 155.82L125.043 154.574C125.397 154.761 125.729 154.854 126.037 154.854C126.289 154.854 126.489 154.789 126.639 154.658C126.797 154.537 126.947 154.322 127.087 154.014L124.007 146.608H125.827L127.899 152.096Z" fill="#0F0449"/>
<path d="M141.99 154.168C140.571 154.168 139.386 153.683 138.434 152.712C137.482 151.741 137.006 150.547 137.006 149.128V149.1C137.006 147.681 137.482 146.482 138.434 145.502C139.386 144.522 140.59 144.032 142.046 144.032C142.895 144.032 143.618 144.163 144.216 144.424C144.813 144.685 145.373 145.063 145.896 145.558L144.79 146.832C143.912 146.029 142.993 145.628 142.032 145.628C141.117 145.628 140.352 145.964 139.736 146.636C139.12 147.299 138.812 148.111 138.812 149.072V149.1C138.812 150.071 139.12 150.892 139.736 151.564C140.352 152.236 141.122 152.572 142.046 152.572C142.606 152.572 143.1 152.469 143.53 152.264C143.959 152.059 144.402 151.741 144.86 151.312L145.966 152.432C145.434 153.001 144.855 153.435 144.23 153.734C143.604 154.023 142.858 154.168 141.99 154.168Z" fill="#0F0449"/>
<path d="M150.971 154.168C149.851 154.168 148.917 153.799 148.171 153.062C147.424 152.315 147.051 151.41 147.051 150.346V150.318C147.051 149.245 147.429 148.335 148.185 147.588C148.941 146.832 149.879 146.454 150.999 146.454C152.128 146.454 153.066 146.827 153.813 147.574C154.559 148.311 154.933 149.217 154.933 150.29V150.318C154.933 151.373 154.555 152.278 153.799 153.034C153.043 153.79 152.1 154.168 150.971 154.168ZM150.999 152.684C151.671 152.684 152.212 152.46 152.623 152.012C153.033 151.555 153.239 150.999 153.239 150.346V150.318C153.239 149.655 153.024 149.095 152.595 148.638C152.165 148.171 151.624 147.938 150.971 147.938C150.308 147.938 149.771 148.167 149.361 148.624C148.95 149.072 148.745 149.627 148.745 150.29V150.318C148.745 150.971 148.959 151.531 149.389 151.998C149.818 152.455 150.355 152.684 150.999 152.684Z" fill="#0F0449"/>
<path d="M159.206 154.154C158.375 154.154 157.726 153.902 157.26 153.398C156.802 152.885 156.574 152.189 156.574 151.312V146.608H158.268V150.808C158.268 151.387 158.403 151.83 158.674 152.138C158.954 152.446 159.346 152.6 159.85 152.6C160.354 152.6 160.755 152.441 161.054 152.124C161.362 151.797 161.516 151.349 161.516 150.78V146.608H163.224V154H161.516V152.852C160.918 153.72 160.148 154.154 159.206 154.154Z" fill="#0F0449"/>
<path d="M165.325 154V146.608H167.033V148.274C167.556 147.014 168.429 146.412 169.651 146.468V148.26H169.553C168.779 148.26 168.163 148.512 167.705 149.016C167.257 149.511 167.033 150.234 167.033 151.186V154H165.325Z" fill="#0F0449"/>
<path d="M173.601 154.126C172.182 154.126 171.473 153.403 171.473 151.956V148.064H170.535V146.608H171.473V144.578H173.167V146.608H175.155V148.064H173.167V151.69C173.167 152.306 173.47 152.614 174.077 152.614C174.441 152.614 174.791 152.53 175.127 152.362V153.748C174.669 154 174.161 154.126 173.601 154.126Z" fill="#0F0449"/>
<path d="M184.702 154.14C183.134 154.14 181.771 153.617 180.614 152.572L181.65 151.34C182.63 152.189 183.661 152.614 184.744 152.614C185.276 152.614 185.696 152.502 186.004 152.278C186.321 152.045 186.48 151.746 186.48 151.382V151.354C186.48 150.99 186.326 150.701 186.018 150.486C185.719 150.262 185.136 150.052 184.268 149.856C183.138 149.595 182.312 149.254 181.79 148.834C181.267 148.414 181.006 147.779 181.006 146.93V146.902C181.006 146.062 181.318 145.381 181.944 144.858C182.569 144.326 183.372 144.06 184.352 144.06C185.686 144.06 186.872 144.471 187.908 145.292L186.984 146.594C186.069 145.922 185.182 145.586 184.324 145.586C183.829 145.586 183.437 145.698 183.148 145.922C182.868 146.137 182.728 146.412 182.728 146.748V146.776C182.728 147.159 182.882 147.457 183.19 147.672C183.507 147.877 184.132 148.092 185.066 148.316C186.158 148.596 186.951 148.951 187.446 149.38C187.95 149.8 188.202 150.402 188.202 151.186V151.214C188.202 152.119 187.88 152.833 187.236 153.356C186.592 153.879 185.747 154.14 184.702 154.14Z" fill="#0F0449"/>
<path d="M192.44 154.126C191.022 154.126 190.312 153.403 190.312 151.956V148.064H189.374V146.608H190.312V144.578H192.006V146.608H193.994V148.064H192.006V151.69C192.006 152.306 192.31 152.614 192.916 152.614C193.28 152.614 193.63 152.53 193.966 152.362V153.748C193.509 154 193 154.126 192.44 154.126Z" fill="#0F0449"/>
<path d="M195.704 154V146.608H197.412V148.274C197.935 147.014 198.808 146.412 200.03 146.468V148.26H199.932C199.158 148.26 198.542 148.512 198.084 149.016C197.636 149.511 197.412 150.234 197.412 151.186V154H195.704Z" fill="#0F0449"/>
<path d="M204.643 154.168C203.561 154.168 202.655 153.813 201.927 153.104C201.209 152.385 200.849 151.461 200.849 150.332V150.304C200.849 149.221 201.19 148.311 201.871 147.574C202.553 146.827 203.416 146.454 204.461 146.454C205.581 146.454 206.449 146.837 207.065 147.602C207.691 148.358 208.003 149.301 208.003 150.43C208.003 150.523 207.994 150.682 207.975 150.906H202.543C202.637 151.503 202.875 151.965 203.257 152.292C203.64 152.619 204.111 152.782 204.671 152.782C205.39 152.782 206.057 152.488 206.673 151.9L207.667 152.782C206.883 153.706 205.875 154.168 204.643 154.168ZM202.529 149.786H206.323C206.267 149.217 206.076 148.75 205.749 148.386C205.423 148.022 204.989 147.84 204.447 147.84C203.925 147.84 203.491 148.017 203.145 148.372C202.809 148.727 202.604 149.198 202.529 149.786Z" fill="#0F0449"/>
<path d="M213.093 154.168C212.01 154.168 211.105 153.813 210.377 153.104C209.658 152.385 209.299 151.461 209.299 150.332V150.304C209.299 149.221 209.639 148.311 210.321 147.574C211.002 146.827 211.865 146.454 212.911 146.454C214.031 146.454 214.899 146.837 215.515 147.602C216.14 148.358 216.453 149.301 216.453 150.43C216.453 150.523 216.443 150.682 216.425 150.906H210.993C211.086 151.503 211.324 151.965 211.707 152.292C212.089 152.619 212.561 152.782 213.121 152.782C213.839 152.782 214.507 152.488 215.123 151.9L216.117 152.782C215.333 153.706 214.325 154.168 213.093 154.168ZM210.979 149.786H214.773C214.717 149.217 214.525 148.75 214.199 148.386C213.872 148.022 213.438 147.84 212.897 147.84C212.374 147.84 211.94 148.017 211.595 148.372C211.259 148.727 211.053 149.198 210.979 149.786Z" fill="#0F0449"/>
<path d="M220.632 154.126C219.213 154.126 218.504 153.403 218.504 151.956V148.064H217.566V146.608H218.504V144.578H220.198V146.608H222.186V148.064H220.198V151.69C220.198 152.306 220.501 152.614 221.108 152.614C221.472 152.614 221.822 152.53 222.158 152.362V153.748C221.701 154 221.192 154.126 220.632 154.126Z" fill="#0F0449"/>
<path d="M44.0201 102.12C45.7841 102.12 47.0201 101.196 47.0201 99.612V99.588C47.0201 98.184 46.0961 97.584 44.3321 97.128C42.7121 96.744 42.3281 96.456 42.3281 95.808V95.784C42.3281 95.22 42.8321 94.788 43.6961 94.788C44.4641 94.788 45.2081 95.088 45.9761 95.652L46.7681 94.536C45.9041 93.852 44.9561 93.48 43.7201 93.48C42.0521 93.48 40.8521 94.476 40.8521 95.916V95.94C40.8521 97.476 41.8601 98.028 43.6481 98.448C45.2081 98.796 45.5441 99.144 45.5441 99.732V99.756C45.5441 100.38 44.9681 100.812 44.0561 100.812C43.0121 100.812 42.2201 100.428 41.4041 99.72L40.5161 100.776C41.5241 101.688 42.7241 102.12 44.0201 102.12Z" fill="#9C9CC9"/>
<path d="M49.1999 102H50.6759V93.6H49.1999V102Z" fill="#9C9CC9"/>
<path d="M55.3365 102H56.8125V94.968H59.4885V93.6H52.6605V94.968H55.3365V102Z" fill="#9C9CC9"/>
<path d="M61.3789 102H67.6669V100.68H62.8549V98.436H67.0669V97.104H62.8549V94.92H67.6069V93.6H61.3789V102Z" fill="#9C9CC9"/>
<path d="M72.7179 102.12C74.4819 102.12 75.7179 101.196 75.7179 99.612V99.588C75.7179 98.184 74.7939 97.584 73.0299 97.128C71.4099 96.744 71.0259 96.456 71.0259 95.808V95.784C71.0259 95.22 71.5299 94.788 72.3939 94.788C73.1619 94.788 73.9059 95.088 74.6739 95.652L75.4659 94.536C74.6019 93.852 73.6539 93.48 72.4179 93.48C70.7499 93.48 69.5499 94.476 69.5499 95.916V95.94C69.5499 97.476 70.5579 98.028 72.3459 98.448C73.9059 98.796 74.2419 99.144 74.2419 99.732V99.756C74.2419 100.38 73.6659 100.812 72.7539 100.812C71.7099 100.812 70.9179 100.428 70.1019 99.72L69.2139 100.776C70.2219 101.688 71.4219 102.12 72.7179 102.12Z" fill="#9C9CC9"/>
<path d="M176.837 65.1999C174.597 65.1999 172.65 64.4532 170.997 62.9599L172.477 61.1999C173.877 62.4132 175.35 63.0199 176.897 63.0199C177.657 63.0199 178.257 62.8599 178.697 62.5399C179.15 62.2066 179.377 61.7799 179.377 61.2599V61.2199C179.377 60.6999 179.157 60.2866 178.717 59.9799C178.29 59.6599 177.457 59.3599 176.217 59.0799C174.603 58.7066 173.423 58.2199 172.677 57.6199C171.93 57.0199 171.557 56.1132 171.557 54.8999V54.8599C171.557 53.6599 172.003 52.6866 172.897 51.9399C173.79 51.1799 174.937 50.7999 176.337 50.7999C178.243 50.7999 179.937 51.3866 181.417 52.5599L180.097 54.4199C178.79 53.4599 177.523 52.9799 176.297 52.9799C175.59 52.9799 175.03 53.1399 174.617 53.4599C174.217 53.7666 174.017 54.1599 174.017 54.6399V54.6799C174.017 55.2266 174.237 55.6532 174.677 55.9599C175.13 56.2532 176.023 56.5599 177.357 56.8799C178.917 57.2799 180.05 57.7866 180.757 58.3999C181.477 58.9999 181.837 59.8599 181.837 60.9799V61.0199C181.837 62.3132 181.377 63.3332 180.457 64.0799C179.537 64.8266 178.33 65.1999 176.837 65.1999Z" fill="#5C5C8A"/>
<path d="M189.29 65.2399C187.743 65.2399 186.45 64.7332 185.41 63.7199C184.383 62.6932 183.87 61.3732 183.87 59.7599V59.7199C183.87 58.1732 184.356 56.8732 185.33 55.8199C186.303 54.7532 187.536 54.2199 189.03 54.2199C190.63 54.2199 191.87 54.7666 192.75 55.8599C193.643 56.9399 194.09 58.2866 194.09 59.8999C194.09 60.0332 194.076 60.2599 194.05 60.5799H186.29C186.423 61.4332 186.763 62.0932 187.31 62.5599C187.856 63.0266 188.53 63.2599 189.33 63.2599C190.356 63.2599 191.31 62.8399 192.19 61.9999L193.61 63.2599C192.49 64.5799 191.05 65.2399 189.29 65.2399ZM186.27 58.9799H191.69C191.61 58.1666 191.336 57.4999 190.87 56.9799C190.403 56.4599 189.783 56.1999 189.01 56.1999C188.263 56.1999 187.643 56.4532 187.15 56.9599C186.67 57.4666 186.376 58.1399 186.27 58.9799Z" fill="#5C5C8A"/>
<path d="M200.06 65.1799C198.033 65.1799 197.02 64.1466 197.02 62.0799V56.5199H195.68V54.4399H197.02V51.5399H199.44V54.4399H202.28V56.5199H199.44V61.6999C199.44 62.5799 199.873 63.0199 200.74 63.0199C201.26 63.0199 201.76 62.8999 202.24 62.6599V64.6399C201.587 64.9999 200.86 65.1799 200.06 65.1799Z" fill="#5C5C8A"/>
<path d="M215.299 62.2799L218.059 54.4399H220.579L216.379 65.2799C215.952 66.3732 215.479 67.1399 214.959 67.5799C214.439 68.0332 213.752 68.2599 212.899 68.2599C212.006 68.2599 211.172 68.0399 210.399 67.5999L211.219 65.8199C211.726 66.0866 212.199 66.2199 212.639 66.2199C212.999 66.2199 213.286 66.1266 213.499 65.9399C213.726 65.7666 213.939 65.4599 214.139 65.0199L209.739 54.4399H212.339L215.299 62.2799Z" fill="#5C5C8A"/>
<path d="M227.067 65.2399C225.467 65.2399 224.134 64.7132 223.067 63.6599C222.001 62.5932 221.467 61.2999 221.467 59.7799V59.7399C221.467 58.2066 222.007 56.9066 223.087 55.8399C224.167 54.7599 225.507 54.2199 227.107 54.2199C228.721 54.2199 230.061 54.7532 231.127 55.8199C232.194 56.8732 232.727 58.1666 232.727 59.6999V59.7399C232.727 61.2466 232.187 62.5399 231.107 63.6199C230.027 64.6999 228.681 65.2399 227.067 65.2399ZM227.107 63.1199C228.067 63.1199 228.841 62.7999 229.427 62.1599C230.014 61.5066 230.307 60.7132 230.307 59.7799V59.7399C230.307 58.7932 230.001 57.9932 229.387 57.3399C228.774 56.6732 228.001 56.3399 227.067 56.3399C226.121 56.3399 225.354 56.6666 224.767 57.3199C224.181 57.9599 223.887 58.7532 223.887 59.6999V59.7399C223.887 60.6732 224.194 61.4732 224.807 62.1399C225.421 62.7932 226.187 63.1199 227.107 63.1199Z" fill="#5C5C8A"/>
<path d="M238.832 65.2199C237.645 65.2199 236.719 64.8599 236.052 64.1399C235.399 63.4066 235.072 62.4132 235.072 61.1599V54.4399H237.492V60.4399C237.492 61.2666 237.685 61.8999 238.072 62.3399C238.472 62.7799 239.032 62.9999 239.752 62.9999C240.472 62.9999 241.045 62.7732 241.472 62.3199C241.912 61.8532 242.132 61.2132 242.132 60.3999V54.4399H244.572V64.9999H242.132V63.3599C241.279 64.5999 240.179 65.2199 238.832 65.2199Z" fill="#5C5C8A"/>
<path d="M247.574 64.9999V54.4399H250.014V56.8199C250.761 55.0199 252.008 54.1599 253.754 54.2399V56.7999H253.614C252.508 56.7999 251.628 57.1599 250.974 57.8799C250.334 58.5866 250.014 59.6199 250.014 60.9799V64.9999H247.574Z" fill="#5C5C8A"/>
<path d="M265.472 65.1999C263.819 65.1999 262.325 64.6732 260.992 63.6199L262.072 61.9799C263.259 62.8466 264.412 63.2799 265.532 63.2799C266.052 63.2799 266.452 63.1799 266.732 62.9799C267.025 62.7666 267.172 62.4866 267.172 62.1399V62.0999C267.172 61.9132 267.125 61.7532 267.032 61.6199C266.939 61.4866 266.752 61.3532 266.472 61.2199C266.192 61.0866 265.985 60.9999 265.852 60.9599C265.732 60.9066 265.445 60.8132 264.992 60.6799C264.912 60.6532 264.852 60.6332 264.812 60.6199C264.345 60.4999 263.945 60.3732 263.612 60.2399C263.292 60.1066 262.952 59.9266 262.592 59.6999C262.245 59.4599 261.979 59.1599 261.792 58.7999C261.605 58.4399 261.512 58.0199 261.512 57.5399V57.4999C261.512 56.5132 261.865 55.7266 262.572 55.1399C263.292 54.5532 264.192 54.2599 265.272 54.2599C266.645 54.2599 267.939 54.6599 269.152 55.4599L268.192 57.1799C267.099 56.5132 266.105 56.1799 265.212 56.1799C264.759 56.1799 264.399 56.2799 264.132 56.4799C263.865 56.6799 263.732 56.9266 263.732 57.2199V57.2599C263.732 57.4999 263.859 57.7199 264.112 57.9199C264.365 58.1066 264.625 58.2532 264.892 58.3599C265.172 58.4666 265.579 58.5999 266.112 58.7599C266.579 58.9066 266.972 59.0532 267.292 59.1999C267.612 59.3332 267.945 59.5199 268.292 59.7599C268.652 59.9999 268.925 60.2932 269.112 60.6399C269.299 60.9866 269.392 61.3866 269.392 61.8399V61.8799C269.392 62.9466 269.025 63.7666 268.292 64.3399C267.559 64.9132 266.619 65.1999 265.472 65.1999Z" fill="#5C5C8A"/>
<path d="M276.752 65.2399C275.192 65.2399 273.892 64.7132 272.852 63.6599C271.812 62.5932 271.292 61.2999 271.292 59.7799V59.7399C271.292 58.2199 271.812 56.9199 272.852 55.8399C273.905 54.7599 275.218 54.2199 276.792 54.2199C278.458 54.2199 279.865 54.8266 281.012 56.0399L279.492 57.6599C278.652 56.7799 277.745 56.3399 276.772 56.3399C275.905 56.3399 275.178 56.6666 274.592 57.3199C274.005 57.9732 273.712 58.7666 273.712 59.6999V59.7399C273.712 60.6866 274.005 61.4866 274.592 62.1399C275.192 62.7932 275.952 63.1199 276.872 63.1199C277.832 63.1199 278.745 62.6866 279.612 61.8199L281.072 63.2599C280.498 63.8999 279.878 64.3932 279.212 64.7399C278.545 65.0732 277.725 65.2399 276.752 65.2399Z" fill="#5C5C8A"/>
<path d="M283.277 64.9999V50.3999H285.717V56.0599C286.597 54.8332 287.697 54.2199 289.017 54.2199C290.204 54.2199 291.124 54.5866 291.777 55.3199C292.444 56.0399 292.777 57.0199 292.777 58.2599V64.9999H290.357V58.9999C290.357 58.1732 290.157 57.5399 289.757 57.0999C289.371 56.6466 288.817 56.4199 288.097 56.4199C287.377 56.4199 286.797 56.6532 286.357 57.1199C285.931 57.5866 285.717 58.2266 285.717 59.0399V64.9999H283.277Z" fill="#5C5C8A"/>
<path d="M300.54 65.2399C298.993 65.2399 297.7 64.7332 296.66 63.7199C295.633 62.6932 295.12 61.3732 295.12 59.7599V59.7199C295.12 58.1732 295.606 56.8732 296.58 55.8199C297.553 54.7532 298.786 54.2199 300.28 54.2199C301.88 54.2199 303.12 54.7666 304 55.8599C304.893 56.9399 305.34 58.2866 305.34 59.8999C305.34 60.0332 305.326 60.2599 305.3 60.5799H297.54C297.673 61.4332 298.013 62.0932 298.56 62.5599C299.106 63.0266 299.78 63.2599 300.58 63.2599C301.606 63.2599 302.56 62.8399 303.44 61.9999L304.86 63.2599C303.74 64.5799 302.3 65.2399 300.54 65.2399ZM297.52 58.9799H302.94C302.86 58.1666 302.586 57.4999 302.12 56.9799C301.653 56.4599 301.033 56.1999 300.26 56.1999C299.513 56.1999 298.893 56.4532 298.4 56.9599C297.92 57.4666 297.626 58.1399 297.52 58.9799Z" fill="#5C5C8A"/>
<path d="M312.13 65.2199C310.81 65.2199 309.663 64.7266 308.69 63.7399C307.717 62.7532 307.23 61.4199 307.23 59.7399V59.6999C307.23 58.0199 307.71 56.6866 308.67 55.6999C309.643 54.7132 310.797 54.2199 312.13 54.2199C313.61 54.2199 314.81 54.8399 315.73 56.0799V50.3999H318.15V64.9999H315.73V63.2399C314.797 64.5599 313.597 65.2199 312.13 65.2199ZM312.71 63.1199C313.55 63.1199 314.27 62.8066 314.87 62.1799C315.47 61.5399 315.77 60.7266 315.77 59.7399V59.6999C315.77 58.7132 315.47 57.9066 314.87 57.2799C314.27 56.6399 313.55 56.3199 312.71 56.3199C311.857 56.3199 311.137 56.6332 310.55 57.2599C309.963 57.8732 309.67 58.6866 309.67 59.6999V59.7399C309.67 60.7399 309.963 61.5532 310.55 62.1799C311.137 62.8066 311.857 63.1199 312.71 63.1199Z" fill="#5C5C8A"/>
<path d="M324.828 65.2199C323.641 65.2199 322.715 64.8599 322.048 64.1399C321.395 63.4066 321.068 62.4132 321.068 61.1599V54.4399H323.488V60.4399C323.488 61.2666 323.681 61.8999 324.068 62.3399C324.468 62.7799 325.028 62.9999 325.748 62.9999C326.468 62.9999 327.041 62.7732 327.468 62.3199C327.908 61.8532 328.128 61.2132 328.128 60.3999V54.4399H330.568V64.9999H328.128V63.3599C327.275 64.5999 326.175 65.2199 324.828 65.2199Z" fill="#5C5C8A"/>
<path d="M333.71 64.9999V50.3999H336.15V64.9999H333.71Z" fill="#5C5C8A"/>
<path d="M344.153 65.2399C342.606 65.2399 341.313 64.7332 340.273 63.7199C339.246 62.6932 338.733 61.3732 338.733 59.7599V59.7199C338.733 58.1732 339.22 56.8732 340.193 55.8199C341.166 54.7532 342.4 54.2199 343.893 54.2199C345.493 54.2199 346.733 54.7666 347.613 55.8599C348.506 56.9399 348.953 58.2866 348.953 59.8999C348.953 60.0332 348.94 60.2599 348.913 60.5799H341.153C341.286 61.4332 341.626 62.0932 342.173 62.5599C342.72 63.0266 343.393 63.2599 344.193 63.2599C345.22 63.2599 346.173 62.8399 347.053 61.9999L348.473 63.2599C347.353 64.5799 345.913 65.2399 344.153 65.2399ZM341.133 58.9799H346.553C346.473 58.1666 346.2 57.4999 345.733 56.9799C345.266 56.4599 344.646 56.1999 343.873 56.1999C343.126 56.1999 342.506 56.4532 342.013 56.9599C341.533 57.4666 341.24 58.1399 341.133 58.9799Z" fill="#5C5C8A"/>
<defs>
<filter id="filter0_ddd" x="0" y="0" width="520" height="426" filterUnits="userSpaceOnUse" color-interpolation-filters="sRGB">
<feFlood flood-opacity="0" result="BackgroundImageFix"/>
<feColorMatrix in="SourceAlpha" type="matrix" values="0 0 0 0 0 0 0 0 0 0 0 0 0 0 0 0 0 0 127 0"/>
<feOffset dy="10"/>
<feGaussianBlur stdDeviation="5"/>
<feColorMatrix type="matrix" values="0 0 0 0 0.0313726 0 0 0 0 0.109804 0 0 0 0 0.270588 0 0 0 0.05 0"/>
<feBlend mode="normal" in2="BackgroundImageFix" result="effect1_dropShadow"/>
<feColorMatrix in="SourceAlpha" type="matrix" values="0 0 0 0 0 0 0 0 0 0 0 0 0 0 0 0 0 0 127 0"/>
<feOffset dy="5"/>
<feGaussianBlur stdDeviation="10"/>
<feColorMatrix type="matrix" values="0 0 0 0 0.0313726 0 0 0 0 0.109804 0 0 0 0 0.270588 0 0 0 0.05 0"/>
<feBlend mode="normal" in2="effect1_dropShadow" result="effect2_dropShadow"/>
<feColorMatrix in="SourceAlpha" type="matrix" values="0 0 0 0 0 0 0 0 0 0 0 0 0 0 0 0 0 0 127 0"/>
<feOffset dy="5"/>
<feGaussianBlur stdDeviation="2.5"/>
<feColorMatrix type="matrix" values="0 0 0 0 0.0313726 0 0 0 0 0.109804 0 0 0 0 0.270588 0 0 0 0.05 0"/>
<feBlend mode="normal" in2="effect2_dropShadow" result="effect3_dropShadow"/>
<feBlend mode="normal" in="SourceGraphic" in2="effect3_dropShadow" result="shape"/>
</filter>
<filter id="filter1_ddd" x="250" y="302" width="250" height="90" filterUnits="userSpaceOnUse" color-interpolation-filters="sRGB">
<feFlood flood-opacity="0" result="BackgroundImageFix"/>
<feColorMatrix in="SourceAlpha" type="matrix" values="0 0 0 0 0 0 0 0 0 0 0 0 0 0 0 0 0 0 127 0"/>
<feOffset dy="10"/>
<feGaussianBlur stdDeviation="5"/>
<feColorMatrix type="matrix" values="0 0 0 0 0.0313726 0 0 0 0 0.109804 0 0 0 0 0.270588 0 0 0 0.05 0"/>
<feBlend mode="normal" in2="BackgroundImageFix" result="effect1_dropShadow"/>
<feColorMatrix in="SourceAlpha" type="matrix" values="0 0 0 0 0 0 0 0 0 0 0 0 0 0 0 0 0 0 127 0"/>
<feOffset dy="5"/>
<feGaussianBlur stdDeviation="10"/>
<feColorMatrix type="matrix" values="0 0 0 0 0.0313726 0 0 0 0 0.109804 0 0 0 0 0.270588 0 0 0 0.05 0"/>
<feBlend mode="normal" in2="effect1_dropShadow" result="effect2_dropShadow"/>
<feColorMatrix in="SourceAlpha" type="matrix" values="0 0 0 0 0 0 0 0 0 0 0 0 0 0 0 0 0 0 127 0"/>
<feOffset dy="5"/>
<feGaussianBlur stdDeviation="2.5"/>
<feColorMatrix type="matrix" values="0 0 0 0 0.0313726 0 0 0 0 0.109804 0 0 0 0 0.270588 0 0 0 0.05 0"/>
<feBlend mode="normal" in2="effect2_dropShadow" result="effect3_dropShadow"/>
<feBlend mode="normal" in="SourceGraphic" in2="effect3_dropShadow" result="shape"/>
</filter>
<filter id="filter2_ddd" x="20" y="302" width="250" height="90" filterUnits="userSpaceOnUse" color-interpolation-filters="sRGB">
<feFlood flood-opacity="0" result="BackgroundImageFix"/>
<feColorMatrix in="SourceAlpha" type="matrix" values="0 0 0 0 0 0 0 0 0 0 0 0 0 0 0 0 0 0 127 0"/>
<feOffset dy="10"/>
<feGaussianBlur stdDeviation="5"/>
<feColorMatrix type="matrix" values="0 0 0 0 0.0313726 0 0 0 0 0.109804 0 0 0 0 0.270588 0 0 0 0.05 0"/>
<feBlend mode="normal" in2="BackgroundImageFix" result="effect1_dropShadow"/>
<feColorMatrix in="SourceAlpha" type="matrix" values="0 0 0 0 0 0 0 0 0 0 0 0 0 0 0 0 0 0 127 0"/>
<feOffset dy="5"/>
<feGaussianBlur stdDeviation="10"/>
<feColorMatrix type="matrix" values="0 0 0 0 0.0313726 0 0 0 0 0.109804 0 0 0 0 0.270588 0 0 0 0.05 0"/>
<feBlend mode="normal" in2="effect1_dropShadow" result="effect2_dropShadow"/>
<feColorMatrix in="SourceAlpha" type="matrix" values="0 0 0 0 0 0 0 0 0 0 0 0 0 0 0 0 0 0 127 0"/>
<feOffset dy="5"/>
<feGaussianBlur stdDeviation="2.5"/>
<feColorMatrix type="matrix" values="0 0 0 0 0.0313726 0 0 0 0 0.109804 0 0 0 0 0.270588 0 0 0 0.05 0"/>
<feBlend mode="normal" in2="effect2_dropShadow" result="effect3_dropShadow"/>
<feBlend mode="normal" in="SourceGraphic" in2="effect3_dropShadow" result="shape"/>
</filter>
<filter id="filter3_ddd" x="20" y="194" width="480" height="90" filterUnits="userSpaceOnUse" color-interpolation-filters="sRGB">
<feFlood flood-opacity="0" result="BackgroundImageFix"/>
<feColorMatrix in="SourceAlpha" type="matrix" values="0 0 0 0 0 0 0 0 0 0 0 0 0 0 0 0 0 0 127 0"/>
<feOffset dy="10"/>
<feGaussianBlur stdDeviation="5"/>
<feColorMatrix type="matrix" values="0 0 0 0 0.0313726 0 0 0 0 0.109804 0 0 0 0 0.270588 0 0 0 0.05 0"/>
<feBlend mode="normal" in2="BackgroundImageFix" result="effect1_dropShadow"/>
<feColorMatrix in="SourceAlpha" type="matrix" values="0 0 0 0 0 0 0 0 0 0 0 0 0 0 0 0 0 0 127 0"/>
<feOffset dy="5"/>
<feGaussianBlur stdDeviation="10"/>
<feColorMatrix type="matrix" values="0 0 0 0 0.0313726 0 0 0 0 0.109804 0 0 0 0 0.270588 0 0 0 0.05 0"/>
<feBlend mode="normal" in2="effect1_dropShadow" result="effect2_dropShadow"/>
<feColorMatrix in="SourceAlpha" type="matrix" values="0 0 0 0 0 0 0 0 0 0 0 0 0 0 0 0 0 0 127 0"/>
<feOffset dy="5"/>
<feGaussianBlur stdDeviation="2.5"/>
<feColorMatrix type="matrix" values="0 0 0 0 0.0313726 0 0 0 0 0.109804 0 0 0 0 0.270588 0 0 0 0.05 0"/>
<feBlend mode="normal" in2="effect2_dropShadow" result="effect3_dropShadow"/>
<feBlend mode="normal" in="SourceGraphic" in2="effect3_dropShadow" result="shape"/>
</filter>
<filter id="filter4_ddd" x="250" y="104" width="250" height="100" filterUnits="userSpaceOnUse" color-interpolation-filters="sRGB">
<feFlood flood-opacity="0" result="BackgroundImageFix"/>
<feColorMatrix in="SourceAlpha" type="matrix" values="0 0 0 0 0 0 0 0 0 0 0 0 0 0 0 0 0 0 127 0"/>
<feOffset dy="10"/>
<feGaussianBlur stdDeviation="5"/>
<feColorMatrix type="matrix" values="0 0 0 0 0.0313726 0 0 0 0 0.109804 0 0 0 0 0.270588 0 0 0 0.05 0"/>
<feBlend mode="normal" in2="BackgroundImageFix" result="effect1_dropShadow"/>
<feColorMatrix in="SourceAlpha" type="matrix" values="0 0 0 0 0 0 0 0 0 0 0 0 0 0 0 0 0 0 127 0"/>
<feOffset dy="5"/>
<feGaussianBlur stdDeviation="10"/>
<feColorMatrix type="matrix" values="0 0 0 0 0.0313726 0 0 0 0 0.109804 0 0 0 0 0.270588 0 0 0 0.05 0"/>
<feBlend mode="normal" in2="effect1_dropShadow" result="effect2_dropShadow"/>
<feColorMatrix in="SourceAlpha" type="matrix" values="0 0 0 0 0 0 0 0 0 0 0 0 0 0 0 0 0 0 127 0"/>
<feOffset dy="5"/>
<feGaussianBlur stdDeviation="2.5"/>
<feColorMatrix type="matrix" values="0 0 0 0 0.0313726 0 0 0 0 0.109804 0 0 0 0 0.270588 0 0 0 0.05 0"/>
<feBlend mode="normal" in2="effect2_dropShadow" result="effect3_dropShadow"/>
<feBlend mode="normal" in="SourceGraphic" in2="effect3_dropShadow" result="shape"/>
</filter>
<filter id="filter5_ddd" x="20" y="104" width="250" height="100" filterUnits="userSpaceOnUse" color-interpolation-filters="sRGB">
<feFlood flood-opacity="0" result="BackgroundImageFix"/>
<feColorMatrix in="SourceAlpha" type="matrix" values="0 0 0 0 0 0 0 0 0 0 0 0 0 0 0 0 0 0 127 0"/>
<feOffset dy="10"/>
<feGaussianBlur stdDeviation="5"/>
<feColorMatrix type="matrix" values="0 0 0 0 0.0313726 0 0 0 0 0.109804 0 0 0 0 0.270588 0 0 0 0.05 0"/>
<feBlend mode="normal" in2="BackgroundImageFix" result="effect1_dropShadow"/>
<feColorMatrix in="SourceAlpha" type="matrix" values="0 0 0 0 0 0 0 0 0 0 0 0 0 0 0 0 0 0 127 0"/>
<feOffset dy="5"/>
<feGaussianBlur stdDeviation="10"/>
<feColorMatrix type="matrix" values="0 0 0 0 0.0313726 0 0 0 0 0.109804 0 0 0 0 0.270588 0 0 0 0.05 0"/>
<feBlend mode="normal" in2="effect1_dropShadow" result="effect2_dropShadow"/>
<feColorMatrix in="SourceAlpha" type="matrix" values="0 0 0 0 0 0 0 0 0 0 0 0 0 0 0 0 0 0 127 0"/>
<feOffset dy="5"/>
<feGaussianBlur stdDeviation="2.5"/>
<feColorMatrix type="matrix" values="0 0 0 0 0.0313726 0 0 0 0 0.109804 0 0 0 0 0.270588 0 0 0 0.05 0"/>
<feBlend mode="normal" in2="effect2_dropShadow" result="effect3_dropShadow"/>
<feBlend mode="normal" in="SourceGraphic" in2="effect3_dropShadow" result="shape"/>
</filter>
<linearGradient id="paint0_linear" x1="500" y1="15" x2="299.33" y2="513.454" gradientUnits="userSpaceOnUse">
<stop stop-color="#F1F1F9"/>
<stop offset="1" stop-color="white"/>
</linearGradient>
</defs>
</svg>
