<svg width="520" height="461" viewBox="0 0 520 461" fill="none" xmlns="http://www.w3.org/2000/svg">
<g filter="url(#filter0_ddd)">
<path d="M20 23C20 18.5817 23.5817 15 28 15H492C496.418 15 500 18.5817 500 23V423C500 427.418 496.418 431 492 431H28C23.5817 431 20 427.418 20 423V23Z" fill="url(#paint0_linear)"/>
</g>
<g filter="url(#filter1_ddd)">
<path d="M40 371C40 354.431 53.4315 341 70 341H450C466.569 341 480 354.431 480 371C480 387.569 466.569 401 450 401H70C53.4315 401 40 387.569 40 371Z" fill="#330DF2"/>
</g>
<path d="M240.635 376V364.8H244.811C246.55 364.8 247.974 365.333 249.083 366.4C250.203 367.456 250.763 368.778 250.763 370.368V370.4C250.763 372 250.203 373.333 249.083 374.4C247.974 375.466 246.55 376 244.811 376H240.635ZM244.811 366.592H242.603V374.208H244.811C245.974 374.208 246.913 373.856 247.627 373.152C248.342 372.448 248.699 371.541 248.699 370.432V370.4C248.699 369.29 248.342 368.378 247.627 367.664C246.913 366.949 245.974 366.592 244.811 366.592Z" fill="white"/>
<path d="M256.943 376.192C255.663 376.192 254.596 375.77 253.743 374.928C252.89 374.074 252.463 373.04 252.463 371.824V371.792C252.463 370.565 252.895 369.525 253.759 368.672C254.623 367.808 255.695 367.376 256.975 367.376C258.266 367.376 259.338 367.802 260.191 368.656C261.044 369.498 261.471 370.533 261.471 371.76V371.792C261.471 372.997 261.039 374.032 260.175 374.896C259.311 375.76 258.234 376.192 256.943 376.192ZM256.975 374.496C257.743 374.496 258.362 374.24 258.831 373.728C259.3 373.205 259.535 372.57 259.535 371.824V371.792C259.535 371.034 259.29 370.394 258.799 369.872C258.308 369.338 257.69 369.072 256.943 369.072C256.186 369.072 255.572 369.333 255.103 369.856C254.634 370.368 254.399 371.002 254.399 371.76V371.792C254.399 372.538 254.644 373.178 255.135 373.712C255.626 374.234 256.239 374.496 256.975 374.496Z" fill="white"/>
<path d="M263.427 376V367.552H265.379V368.848C266.083 367.866 266.963 367.376 268.019 367.376C268.968 367.376 269.704 367.669 270.227 368.256C270.76 368.832 271.027 369.616 271.027 370.608V376H269.091V371.2C269.091 370.538 268.931 370.032 268.611 369.68C268.301 369.317 267.859 369.136 267.283 369.136C266.707 369.136 266.243 369.322 265.891 369.696C265.549 370.069 265.379 370.581 265.379 371.232V376H263.427Z" fill="white"/>
<path d="M277.236 376.192C275.999 376.192 274.964 375.786 274.132 374.976C273.311 374.154 272.9 373.098 272.9 371.808V371.776C272.9 370.538 273.29 369.498 274.068 368.656C274.847 367.802 275.834 367.376 277.028 367.376C278.308 367.376 279.3 367.813 280.004 368.688C280.719 369.552 281.076 370.629 281.076 371.92C281.076 372.026 281.066 372.208 281.044 372.464H274.836C274.943 373.146 275.215 373.674 275.652 374.048C276.09 374.421 276.628 374.608 277.268 374.608C278.09 374.608 278.852 374.272 279.556 373.6L280.692 374.608C279.796 375.664 278.644 376.192 277.236 376.192ZM274.82 371.184H279.156C279.092 370.533 278.874 370 278.5 369.584C278.127 369.168 277.631 368.96 277.012 368.96C276.415 368.96 275.919 369.162 275.524 369.568C275.14 369.973 274.906 370.512 274.82 371.184Z" fill="white"/>
<g filter="url(#filter2_ddd)">
<path d="M40 267C40 263.686 42.6863 261 46 261H474C477.314 261 480 263.686 480 267V315C480 318.314 477.314 321 474 321H46C42.6863 321 40 318.314 40 315V267Z" fill="white"/>
</g>
<path d="M274.686 296V294.642L278.06 291.772C278.76 291.175 279.241 290.694 279.502 290.33C279.763 289.957 279.894 289.555 279.894 289.126C279.894 288.659 279.745 288.291 279.446 288.02C279.147 287.74 278.769 287.6 278.312 287.6C277.883 287.6 277.495 287.717 277.15 287.95C276.805 288.183 276.441 288.557 276.058 289.07L274.826 288.104C275.33 287.404 275.853 286.891 276.394 286.564C276.935 286.228 277.617 286.06 278.438 286.06C279.39 286.06 280.165 286.331 280.762 286.872C281.369 287.413 281.672 288.118 281.672 288.986V289.014C281.672 289.518 281.569 289.98 281.364 290.4C281.168 290.811 280.907 291.184 280.58 291.52C280.263 291.847 279.777 292.276 279.124 292.808L277.108 294.488H281.77V296H274.686Z" fill="#0F0449"/>
<path d="M346.418 296.168C348.588 296.168 350.058 294.852 350.058 292.85V292.822C350.058 290.75 348.546 289.742 346.642 289.742C345.984 289.742 345.55 289.854 345.088 290.022L345.242 287.74H349.624V286.2H343.758L343.478 291.002L344.514 291.688C345.018 291.45 345.606 291.254 346.32 291.254C347.51 291.254 348.35 291.87 348.35 292.878V292.906C348.35 293.928 347.58 294.6 346.404 294.6C345.494 294.6 344.668 294.152 343.884 293.424L342.82 294.67C343.758 295.566 344.906 296.168 346.418 296.168Z" fill="#5C5C8A"/>
<path d="M350.261 297.792H351.731L358.059 284.828H356.589L350.261 297.792Z" fill="#5C5C8A"/>
<path d="M358.325 296H365.409V294.488H360.747L362.763 292.808C364.499 291.38 365.311 290.568 365.311 289.014V288.986C365.311 287.236 363.981 286.06 362.077 286.06C360.341 286.06 359.403 286.802 358.465 288.104L359.697 289.07C360.439 288.076 361.055 287.6 361.951 287.6C362.847 287.6 363.533 288.174 363.533 289.126C363.533 290.022 363.029 290.624 361.699 291.772L358.325 294.642V296Z" fill="#5C5C8A"/>
<path d="M365.875 297.792H367.345L373.673 284.828H372.203L365.875 297.792Z" fill="#5C5C8A"/>
<path d="M373.938 296H381.022V294.488H376.36L378.376 292.808C380.112 291.38 380.924 290.568 380.924 289.014V288.986C380.924 287.236 379.594 286.06 377.69 286.06C375.954 286.06 375.016 286.802 374.078 288.104L375.31 289.07C376.052 288.076 376.668 287.6 377.564 287.6C378.46 287.6 379.146 288.174 379.146 289.126C379.146 290.022 378.642 290.624 377.312 291.772L373.938 294.642V296Z" fill="#5C5C8A"/>
<path d="M386.892 296.168C389.468 296.168 391.176 293.9 391.176 291.1V291.072C391.176 288.272 389.482 286.032 386.92 286.032C384.344 286.032 382.636 288.3 382.636 291.1V291.128C382.636 293.928 384.316 296.168 386.892 296.168ZM386.92 294.614C385.394 294.614 384.414 293.032 384.414 291.1V291.072C384.414 289.14 385.38 287.586 386.892 287.586C388.404 287.586 389.398 289.168 389.398 291.1V291.128C389.398 293.046 388.432 294.614 386.92 294.614Z" fill="#5C5C8A"/>
<path d="M396.95 292.542H401.094V290.876H396.95V292.542Z" fill="#5C5C8A"/>
<path d="M410.306 294.6C409.466 294.6 408.808 294.292 408.066 293.676L407.128 294.992C407.968 295.678 408.906 296.168 410.264 296.168C412.896 296.168 414.464 293.984 414.464 290.834V290.806C414.464 288.888 414.002 287.796 413.288 287.082C412.574 286.368 411.79 286.032 410.558 286.032C408.388 286.032 406.904 287.502 406.904 289.42V289.448C406.904 291.352 408.304 292.556 410.376 292.556C411.384 292.556 412.14 292.178 412.686 291.52C412.644 292.808 412.028 294.6 410.306 294.6ZM410.628 291.114C409.396 291.114 408.626 290.386 408.626 289.378V289.35C408.626 288.328 409.34 287.53 410.572 287.53C411.818 287.53 412.616 288.3 412.616 289.322V289.35C412.616 290.302 411.874 291.114 410.628 291.114Z" fill="#5C5C8A"/>
<path d="M416.288 290.526H418.15V288.608H416.288V290.526ZM416.288 296H418.15V294.068H416.288V296Z" fill="#5C5C8A"/>
<path d="M424.944 296H426.596V293.802H427.996V292.388H426.596V286.13H425.126L419.68 292.57L420.002 293.802H424.944V296ZM421.724 292.388L424.944 288.51V292.388H421.724Z" fill="#5C5C8A"/>
<path d="M429.738 296H431.684L436.094 287.502V286.2H429.206V287.712H434.134L429.738 296Z" fill="#5C5C8A"/>
<path d="M437.205 296H438.969L439.977 293.634H444.611L445.605 296H447.425L443.113 286.13H441.517L437.205 296ZM440.607 292.108L442.287 288.188L443.981 292.108H440.607Z" fill="#5C5C8A"/>
<path d="M449.106 296H450.8V289L453.866 293.592H453.922L457.016 288.972V296H458.738V286.2H456.904L453.922 290.834L450.94 286.2H449.106V296Z" fill="#5C5C8A"/>
<path d="M110.42 296L114.732 286.13H116.328L120.64 296H118.82L117.826 293.634H113.192L112.184 296H110.42ZM113.822 292.108H117.196L115.502 288.188L113.822 292.108Z" fill="#0F0449"/>
<path d="M124.821 296.154C123.897 296.154 123.094 295.808 122.413 295.118C121.732 294.427 121.391 293.494 121.391 292.318V292.29C121.391 291.114 121.727 290.18 122.399 289.49C123.08 288.799 123.888 288.454 124.821 288.454C125.857 288.454 126.697 288.888 127.341 289.756V285.78H129.035V296H127.341V294.768C126.688 295.692 125.848 296.154 124.821 296.154ZM125.227 294.684C125.815 294.684 126.319 294.464 126.739 294.026C127.159 293.578 127.369 293.008 127.369 292.318V292.29C127.369 291.599 127.159 291.034 126.739 290.596C126.319 290.148 125.815 289.924 125.227 289.924C124.63 289.924 124.126 290.143 123.715 290.582C123.304 291.011 123.099 291.58 123.099 292.29V292.318C123.099 293.018 123.304 293.587 123.715 294.026C124.126 294.464 124.63 294.684 125.227 294.684Z" fill="#0F0449"/>
<path d="M134.55 296.168C133.467 296.168 132.562 295.813 131.834 295.104C131.115 294.385 130.756 293.461 130.756 292.332V292.304C130.756 291.221 131.096 290.311 131.778 289.574C132.459 288.827 133.322 288.454 134.368 288.454C135.488 288.454 136.356 288.836 136.972 289.602C137.597 290.358 137.91 291.3 137.91 292.43C137.91 292.523 137.9 292.682 137.882 292.906H132.45C132.543 293.503 132.781 293.965 133.164 294.292C133.546 294.618 134.018 294.782 134.578 294.782C135.296 294.782 135.964 294.488 136.58 293.9L137.574 294.782C136.79 295.706 135.782 296.168 134.55 296.168ZM132.436 291.786H136.23C136.174 291.216 135.982 290.75 135.656 290.386C135.329 290.022 134.895 289.84 134.354 289.84C133.831 289.84 133.397 290.017 133.052 290.372C132.716 290.726 132.51 291.198 132.436 291.786Z" fill="#0F0449"/>
<path d="M139.597 296V288.608H141.305V289.742C141.921 288.883 142.691 288.454 143.615 288.454C144.445 288.454 145.089 288.71 145.547 289.224C146.013 289.728 146.247 290.414 146.247 291.282V296H144.553V291.8C144.553 291.221 144.413 290.778 144.133 290.47C143.862 290.152 143.475 289.994 142.971 289.994C142.467 289.994 142.061 290.157 141.753 290.484C141.454 290.81 141.305 291.258 141.305 291.828V296H139.597Z" fill="#0F0449"/>
<path d="M155.332 296.07L151.93 286.2H153.792L156.13 293.466L158.538 286.172H159.994L162.402 293.466L164.74 286.2H166.546L163.144 296.07H161.646L159.238 289.028L156.83 296.07H155.332Z" fill="#0F0449"/>
<path d="M169.26 296.154C168.523 296.154 167.898 295.953 167.384 295.552C166.88 295.15 166.628 294.59 166.628 293.872V293.844C166.628 293.06 166.904 292.467 167.454 292.066C168.014 291.664 168.761 291.464 169.694 291.464C170.376 291.464 171.038 291.566 171.682 291.772V291.59C171.682 290.516 171.071 289.98 169.848 289.98C169.176 289.98 168.472 290.134 167.734 290.442L167.272 289.112C168.215 288.71 169.148 288.51 170.072 288.51C171.174 288.51 171.99 288.785 172.522 289.336C173.054 289.868 173.32 290.628 173.32 291.618V296H171.668V295.076C171.071 295.794 170.268 296.154 169.26 296.154ZM169.736 294.922C170.306 294.922 170.777 294.777 171.15 294.488C171.524 294.189 171.71 293.806 171.71 293.34V292.836C171.206 292.64 170.646 292.542 170.03 292.542C169.48 292.542 169.05 292.649 168.742 292.864C168.444 293.078 168.294 293.382 168.294 293.774V293.802C168.294 294.147 168.43 294.422 168.7 294.628C168.971 294.824 169.316 294.922 169.736 294.922Z" fill="#0F0449"/>
<path d="M175.433 296V285.78H177.141V296H175.433Z" fill="#0F0449"/>
<path d="M179.341 296V285.78H181.049V291.884L184.115 288.608H186.173L183.233 291.618L186.271 296H184.283L182.099 292.794L181.049 293.886V296H179.341Z" fill="#0F0449"/>
<path d="M190.536 296.168C189.453 296.168 188.548 295.813 187.82 295.104C187.101 294.385 186.742 293.461 186.742 292.332V292.304C186.742 291.221 187.083 290.311 187.764 289.574C188.445 288.827 189.309 288.454 190.354 288.454C191.474 288.454 192.342 288.836 192.958 289.602C193.583 290.358 193.896 291.3 193.896 292.43C193.896 292.523 193.887 292.682 193.868 292.906H188.436C188.529 293.503 188.767 293.965 189.15 294.292C189.533 294.618 190.004 294.782 190.564 294.782C191.283 294.782 191.95 294.488 192.566 293.9L193.56 294.782C192.776 295.706 191.768 296.168 190.536 296.168ZM188.422 291.786H192.216C192.16 291.216 191.969 290.75 191.642 290.386C191.315 290.022 190.881 289.84 190.34 289.84C189.817 289.84 189.383 290.017 189.038 290.372C188.702 290.726 188.497 291.198 188.422 291.786Z" fill="#0F0449"/>
<path d="M195.583 296V288.608H197.291V290.274C197.814 289.014 198.686 288.412 199.909 288.468V290.26H199.811C199.036 290.26 198.42 290.512 197.963 291.016C197.515 291.51 197.291 292.234 197.291 293.186V296H195.583Z" fill="#0F0449"/>
<path opacity="0.75" d="M100 291C100 302.046 91.0457 311 80 311C68.9543 311 60 302.046 60 291C60 279.954 68.9543 271 80 271C91.0457 271 100 279.954 100 291Z" fill="#F1F1F9"/>
<g filter="url(#filter3_ddd)">
<path d="M40 187C40 183.686 42.6863 181 46 181H474C477.314 181 480 183.686 480 187V235C480 238.314 477.314 241 474 241H46C42.6863 241 40 238.314 40 235V187Z" fill="#F20D59"/>
</g>
<path d="M282.134 214.712C281.341 215.683 280.314 216.168 279.054 216.168C277.794 216.168 276.767 215.688 275.974 214.726C275.19 213.756 274.798 212.556 274.798 211.128V211.1C274.798 209.672 275.195 208.473 275.988 207.502C276.791 206.522 277.822 206.032 279.082 206.032C280.342 206.032 281.364 206.518 282.148 207.488C282.941 208.45 283.338 209.644 283.338 211.072V211.1C283.338 212.528 282.937 213.732 282.134 214.712ZM279.082 214.614C279.819 214.614 280.417 214.278 280.874 213.606C281.331 212.934 281.56 212.108 281.56 211.128V211.1C281.56 210.111 281.327 209.28 280.86 208.608C280.393 207.927 279.791 207.586 279.054 207.586C278.317 207.586 277.719 207.922 277.262 208.594C276.805 209.257 276.576 210.083 276.576 211.072V211.1C276.576 212.09 276.805 212.925 277.262 213.606C277.729 214.278 278.335 214.614 279.082 214.614Z" fill="white"/>
<g opacity="0.75">
<path d="M338.885 216.168C337.532 216.168 336.332 215.669 335.287 214.67L336.351 213.424C337.191 214.208 338.031 214.6 338.871 214.6C339.459 214.6 339.93 214.446 340.285 214.138C340.64 213.83 340.817 213.419 340.817 212.906V212.878C340.817 212.383 340.63 211.991 340.257 211.702C339.884 211.403 339.394 211.254 338.787 211.254C338.199 211.254 337.597 211.399 336.981 211.688L335.945 211.002L336.225 206.2H342.091V207.74H337.709L337.555 210.022C338.068 209.835 338.586 209.742 339.109 209.742C340.108 209.742 340.924 210.008 341.559 210.54C342.203 211.063 342.525 211.823 342.525 212.822V212.85C342.525 213.849 342.189 214.651 341.517 215.258C340.854 215.865 339.977 216.168 338.885 216.168Z" fill="white"/>
<path d="M342.728 217.792L349.056 204.828H350.526L344.198 217.792H342.728Z" fill="white"/>
<path d="M350.791 216V214.642L354.165 211.772C354.865 211.175 355.346 210.694 355.607 210.33C355.869 209.957 355.999 209.555 355.999 209.126C355.999 208.659 355.85 208.291 355.551 208.02C355.253 207.74 354.875 207.6 354.417 207.6C353.988 207.6 353.601 207.717 353.255 207.95C352.91 208.183 352.546 208.557 352.163 209.07L350.931 208.104C351.435 207.404 351.958 206.891 352.499 206.564C353.041 206.228 353.722 206.06 354.543 206.06C355.495 206.06 356.27 206.331 356.867 206.872C357.474 207.413 357.777 208.118 357.777 208.986V209.014C357.777 209.518 357.675 209.98 357.469 210.4C357.273 210.811 357.012 211.184 356.685 211.52C356.368 211.847 355.883 212.276 355.229 212.808L353.213 214.488H357.875V216H350.791Z" fill="white"/>
<path d="M358.341 217.792L364.669 204.828H366.139L359.811 217.792H358.341Z" fill="white"/>
<path d="M366.405 216V214.642L369.779 211.772C370.479 211.175 370.959 210.694 371.221 210.33C371.482 209.957 371.613 209.555 371.613 209.126C371.613 208.659 371.463 208.291 371.165 208.02C370.866 207.74 370.488 207.6 370.031 207.6C369.601 207.6 369.214 207.717 368.869 207.95C368.523 208.183 368.159 208.557 367.777 209.07L366.545 208.104C367.049 207.404 367.571 206.891 368.113 206.564C368.654 206.228 369.335 206.06 370.157 206.06C371.109 206.06 371.883 206.331 372.481 206.872C373.087 207.413 373.391 208.118 373.391 208.986V209.014C373.391 209.518 373.288 209.98 373.083 210.4C372.887 210.811 372.625 211.184 372.299 211.52C371.981 211.847 371.496 212.276 370.843 212.808L368.827 214.488H373.489V216H366.405Z" fill="white"/>
<path d="M382.439 214.712C381.645 215.683 380.619 216.168 379.359 216.168C378.099 216.168 377.072 215.687 376.279 214.726C375.495 213.755 375.103 212.556 375.103 211.128V211.1C375.103 209.672 375.499 208.473 376.293 207.502C377.095 206.522 378.127 206.032 379.387 206.032C380.647 206.032 381.669 206.517 382.453 207.488C383.246 208.449 383.643 209.644 383.643 211.072V211.1C383.643 212.528 383.241 213.732 382.439 214.712ZM379.387 214.614C380.124 214.614 380.721 214.278 381.179 213.606C381.636 212.934 381.865 212.108 381.865 211.128V211.1C381.865 210.111 381.631 209.28 381.165 208.608C380.698 207.927 380.096 207.586 379.359 207.586C378.621 207.586 378.024 207.922 377.567 208.594C377.109 209.257 376.881 210.083 376.881 211.072V211.1C376.881 212.089 377.109 212.925 377.567 213.606C378.033 214.278 378.64 214.614 379.387 214.614Z" fill="white"/>
<path d="M389.417 212.542V210.876H393.561V212.542H389.417Z" fill="white"/>
<path d="M401.037 216V207.88L399.273 208.37L398.909 206.97L401.555 206.13H402.745V216H401.037Z" fill="white"/>
<path d="M412.23 214.712C411.436 215.683 410.41 216.168 409.15 216.168C407.89 216.168 406.863 215.687 406.07 214.726C405.286 213.755 404.894 212.556 404.894 211.128V211.1C404.894 209.672 405.29 208.473 406.084 207.502C406.886 206.522 407.918 206.032 409.178 206.032C410.438 206.032 411.46 206.517 412.244 207.488C413.037 208.449 413.434 209.644 413.434 211.072V211.1C413.434 212.528 413.032 213.732 412.23 214.712ZM409.178 214.614C409.915 214.614 410.512 214.278 410.97 213.606C411.427 212.934 411.656 212.108 411.656 211.128V211.1C411.656 210.111 411.422 209.28 410.956 208.608C410.489 207.927 409.887 207.586 409.15 207.586C408.412 207.586 407.815 207.922 407.358 208.594C406.9 209.257 406.672 210.083 406.672 211.072V211.1C406.672 212.089 406.9 212.925 407.358 213.606C407.824 214.278 408.431 214.614 409.178 214.614Z" fill="white"/>
<path d="M415.249 210.526V208.608H417.111V210.526H415.249ZM415.249 216V214.068H417.111V216H415.249Z" fill="white"/>
<path d="M426.271 214.712C425.477 215.683 424.451 216.168 423.191 216.168C421.931 216.168 420.904 215.687 420.111 214.726C419.327 213.755 418.935 212.556 418.935 211.128V211.1C418.935 209.672 419.331 208.473 420.125 207.502C420.927 206.522 421.959 206.032 423.219 206.032C424.479 206.032 425.501 206.517 426.285 207.488C427.078 208.449 427.475 209.644 427.475 211.072V211.1C427.475 212.528 427.073 213.732 426.271 214.712ZM423.219 214.614C423.956 214.614 424.553 214.278 425.011 213.606C425.468 212.934 425.697 212.108 425.697 211.128V211.1C425.697 210.111 425.463 209.28 424.997 208.608C424.53 207.927 423.928 207.586 423.191 207.586C422.453 207.586 421.856 207.922 421.399 208.594C420.941 209.257 420.713 210.083 420.713 211.072V211.1C420.713 212.089 420.941 212.925 421.399 213.606C421.865 214.278 422.472 214.614 423.219 214.614Z" fill="white"/>
<path d="M432.485 216.168C430.935 216.168 429.685 215.599 428.733 214.46L429.937 213.326C430.665 214.185 431.523 214.614 432.513 214.614C432.998 214.614 433.399 214.479 433.717 214.208C434.043 213.928 434.207 213.569 434.207 213.13V213.102C434.207 212.626 434.006 212.257 433.605 211.996C433.203 211.725 432.653 211.59 431.953 211.59H431.155L430.875 210.512L433.521 207.698H429.279V206.2H435.761V207.488L433.031 210.288C433.861 210.391 434.547 210.666 435.089 211.114C435.639 211.553 435.915 212.192 435.915 213.032V213.06C435.915 213.965 435.597 214.712 434.963 215.3C434.328 215.879 433.502 216.168 432.485 216.168Z" fill="white"/>
<path d="M437.205 216L441.517 206.13H443.113L447.425 216H445.605L444.611 213.634H439.977L438.969 216H437.205ZM440.607 212.108H443.981L442.287 208.188L440.607 212.108Z" fill="white"/>
<path d="M449.106 216V206.2H450.94L453.922 210.834L456.904 206.2H458.738V216H457.016V208.972L453.922 213.592H453.866L450.8 209V216H449.106Z" fill="white"/>
</g>
<path d="M111.26 216V206.2H115.656C116.785 206.2 117.639 206.489 118.218 207.068C118.657 207.506 118.876 208.048 118.876 208.692V208.72C118.876 209.69 118.409 210.418 117.476 210.904C118.111 211.128 118.591 211.422 118.918 211.786C119.254 212.15 119.422 212.649 119.422 213.284V213.312C119.422 214.17 119.095 214.833 118.442 215.3C117.789 215.766 116.907 216 115.796 216H111.26ZM117.154 209V208.972C117.154 208.58 117.005 208.276 116.706 208.062C116.417 207.838 115.992 207.726 115.432 207.726H112.954V210.33H115.306C115.885 210.33 116.337 210.218 116.664 209.994C116.991 209.77 117.154 209.438 117.154 209ZM117.7 213.13V213.102C117.7 212.224 117.028 211.786 115.684 211.786H112.954V214.474H115.81C116.407 214.474 116.869 214.362 117.196 214.138C117.532 213.904 117.7 213.568 117.7 213.13Z" fill="white"/>
<path d="M121.154 216V208.608H122.862V210.274C123.384 209.014 124.257 208.412 125.48 208.468V210.26H125.382C124.607 210.26 123.991 210.512 123.534 211.016C123.086 211.51 122.862 212.234 122.862 213.186V216H121.154Z" fill="white"/>
<path d="M130.093 216.168C129.01 216.168 128.105 215.813 127.377 215.104C126.658 214.385 126.299 213.461 126.299 212.332V212.304C126.299 211.221 126.639 210.311 127.321 209.574C128.002 208.827 128.865 208.454 129.911 208.454C131.031 208.454 131.899 208.836 132.515 209.602C133.14 210.358 133.453 211.3 133.453 212.43C133.453 212.523 133.443 212.682 133.425 212.906H127.993C128.086 213.503 128.324 213.965 128.707 214.292C129.089 214.618 129.561 214.782 130.121 214.782C130.839 214.782 131.507 214.488 132.123 213.9L133.117 214.782C132.333 215.706 131.325 216.168 130.093 216.168ZM127.979 211.786H131.773C131.717 211.216 131.525 210.75 131.199 210.386C130.872 210.022 130.438 209.84 129.897 209.84C129.374 209.84 128.94 210.017 128.595 210.372C128.259 210.726 128.053 211.198 127.979 211.786Z" fill="white"/>
<path d="M138.542 216.168C137.459 216.168 136.554 215.813 135.826 215.104C135.107 214.385 134.748 213.461 134.748 212.332V212.304C134.748 211.221 135.089 210.311 135.77 209.574C136.451 208.827 137.315 208.454 138.36 208.454C139.48 208.454 140.348 208.836 140.964 209.602C141.589 210.358 141.902 211.3 141.902 212.43C141.902 212.523 141.893 212.682 141.874 212.906H136.442C136.535 213.503 136.773 213.965 137.156 214.292C137.539 214.618 138.01 214.782 138.57 214.782C139.289 214.782 139.956 214.488 140.572 213.9L141.566 214.782C140.782 215.706 139.774 216.168 138.542 216.168ZM136.428 211.786H140.222C140.166 211.216 139.975 210.75 139.648 210.386C139.321 210.022 138.887 209.84 138.346 209.84C137.823 209.84 137.389 210.017 137.044 210.372C136.708 210.726 136.503 211.198 136.428 211.786Z" fill="white"/>
<path d="M147.996 216V206.2H149.718V211.128L154.366 206.2H156.508L152.42 210.414L156.69 216H154.59L151.244 211.59L149.718 213.158V216H147.996Z" fill="white"/>
<path d="M160.923 216.168C159.84 216.168 158.935 215.813 158.207 215.104C157.488 214.385 157.129 213.461 157.129 212.332V212.304C157.129 211.221 157.469 210.311 158.151 209.574C158.832 208.827 159.695 208.454 160.741 208.454C161.861 208.454 162.729 208.836 163.345 209.602C163.97 210.358 164.283 211.3 164.283 212.43C164.283 212.523 164.273 212.682 164.255 212.906H158.823C158.916 213.503 159.154 213.965 159.537 214.292C159.919 214.618 160.391 214.782 160.951 214.782C161.669 214.782 162.337 214.488 162.953 213.9L163.947 214.782C163.163 215.706 162.155 216.168 160.923 216.168ZM158.809 211.786H162.603C162.547 211.216 162.355 210.75 162.029 210.386C161.702 210.022 161.268 209.84 160.727 209.84C160.204 209.84 159.77 210.017 159.425 210.372C159.089 210.726 158.883 211.198 158.809 211.786Z" fill="white"/>
<path d="M166.068 216V205.78H167.776V216H166.068Z" fill="white"/>
<path d="M170.074 216V205.78H171.782V216H170.074Z" fill="white"/>
<path d="M177.188 214.096L179.12 208.608H180.884L177.944 216.196C177.645 216.961 177.314 217.498 176.95 217.806C176.586 218.123 176.105 218.282 175.508 218.282C174.882 218.282 174.299 218.128 173.758 217.82L174.332 216.574C174.686 216.76 175.018 216.854 175.326 216.854C175.578 216.854 175.778 216.788 175.928 216.658C176.086 216.536 176.236 216.322 176.376 216.014L173.296 208.608H175.116L177.188 214.096Z" fill="white"/>
<path opacity="0.25" d="M100 211C100 222.046 91.0457 231 80 231C68.9543 231 60 222.046 60 211C60 199.954 68.9543 191 80 191C91.0457 191 100 199.954 100 211Z" fill="white"/>
<g filter="url(#filter4_ddd)">
<path d="M40 107C40 103.686 42.6863 101 46 101H474C477.314 101 480 103.686 480 107V155C480 158.314 477.314 161 474 161H46C42.6863 161 40 158.314 40 155V107Z" fill="white"/>
</g>
<path d="M278.354 136.168C276.805 136.168 275.554 135.599 274.602 134.46L275.806 133.326C276.534 134.185 277.393 134.614 278.382 134.614C278.867 134.614 279.269 134.479 279.586 134.208C279.913 133.928 280.076 133.569 280.076 133.13V133.102C280.076 132.626 279.875 132.258 279.474 131.996C279.073 131.726 278.522 131.59 277.822 131.59H277.024L276.744 130.512L279.39 127.698H275.148V126.2H281.63V127.488L278.9 130.288C279.731 130.391 280.417 130.666 280.958 131.114C281.509 131.553 281.784 132.192 281.784 133.032V133.06C281.784 133.966 281.467 134.712 280.832 135.3C280.197 135.879 279.371 136.168 278.354 136.168Z" fill="#0F0449"/>
<path d="M343.26 136.168C345.43 136.168 346.9 134.852 346.9 132.85V132.822C346.9 130.75 345.388 129.742 343.484 129.742C342.826 129.742 342.392 129.854 341.93 130.022L342.084 127.74H346.466V126.2H340.6L340.32 131.002L341.356 131.688C341.86 131.45 342.448 131.254 343.162 131.254C344.352 131.254 345.192 131.87 345.192 132.878V132.906C345.192 133.928 344.422 134.6 343.246 134.6C342.336 134.6 341.51 134.152 340.726 133.424L339.662 134.67C340.6 135.566 341.748 136.168 343.26 136.168Z" fill="#5C5C8A"/>
<path d="M347.103 137.792H348.573L354.901 124.828H353.431L347.103 137.792Z" fill="#5C5C8A"/>
<path d="M355.166 136H362.25V134.488H357.588L359.604 132.808C361.34 131.38 362.152 130.568 362.152 129.014V128.986C362.152 127.236 360.822 126.06 358.918 126.06C357.182 126.06 356.244 126.802 355.306 128.104L356.538 129.07C357.28 128.076 357.896 127.6 358.792 127.6C359.688 127.6 360.374 128.174 360.374 129.126C360.374 130.022 359.87 130.624 358.54 131.772L355.166 134.642V136Z" fill="#5C5C8A"/>
<path d="M362.716 137.792H364.186L370.514 124.828H369.044L362.716 137.792Z" fill="#5C5C8A"/>
<path d="M370.78 136H377.864V134.488H373.202L375.218 132.808C376.954 131.38 377.766 130.568 377.766 129.014V128.986C377.766 127.236 376.436 126.06 374.532 126.06C372.796 126.06 371.858 126.802 370.92 128.104L372.152 129.07C372.894 128.076 373.51 127.6 374.406 127.6C375.302 127.6 375.988 128.174 375.988 129.126C375.988 130.022 375.484 130.624 374.154 131.772L370.78 134.642V136Z" fill="#5C5C8A"/>
<path d="M383.734 136.168C386.31 136.168 388.018 133.9 388.018 131.1V131.072C388.018 128.272 386.324 126.032 383.762 126.032C381.186 126.032 379.478 128.3 379.478 131.1V131.128C379.478 133.928 381.158 136.168 383.734 136.168ZM383.762 134.614C382.236 134.614 381.256 133.032 381.256 131.1V131.072C381.256 129.14 382.222 127.586 383.734 127.586C385.246 127.586 386.24 129.168 386.24 131.1V131.128C386.24 133.046 385.274 134.614 383.762 134.614Z" fill="#5C5C8A"/>
<path d="M393.792 132.542H397.936V130.876H393.792V132.542Z" fill="#5C5C8A"/>
<path d="M405.412 136H407.12V126.13H405.93L403.284 126.97L403.648 128.37L405.412 127.88V136Z" fill="#5C5C8A"/>
<path d="M413.525 136.168C416.101 136.168 417.809 133.9 417.809 131.1V131.072C417.809 128.272 416.115 126.032 413.553 126.032C410.977 126.032 409.269 128.3 409.269 131.1V131.128C409.269 133.928 410.949 136.168 413.525 136.168ZM413.553 134.614C412.027 134.614 411.047 133.032 411.047 131.1V131.072C411.047 129.14 412.013 127.586 413.525 127.586C415.037 127.586 416.031 129.168 416.031 131.1V131.128C416.031 133.046 415.065 134.614 413.553 134.614Z" fill="#5C5C8A"/>
<path d="M419.624 130.526H421.486V128.608H419.624V130.526ZM419.624 136H421.486V134.068H419.624V136Z" fill="#5C5C8A"/>
<path d="M425.004 136H426.712V126.13H425.522L422.876 126.97L423.24 128.37L425.004 127.88V136Z" fill="#5C5C8A"/>
<path d="M432.318 136.168C434.488 136.168 435.958 134.852 435.958 132.85V132.822C435.958 130.75 434.446 129.742 432.542 129.742C431.884 129.742 431.45 129.854 430.988 130.022L431.142 127.74H435.524V126.2H429.658L429.378 131.002L430.414 131.688C430.918 131.45 431.506 131.254 432.22 131.254C433.41 131.254 434.25 131.87 434.25 132.878V132.906C434.25 133.928 433.48 134.6 432.304 134.6C431.394 134.6 430.568 134.152 429.784 133.424L428.72 134.67C429.658 135.566 430.806 136.168 432.318 136.168Z" fill="#5C5C8A"/>
<path d="M437.205 136H438.969L439.977 133.634H444.611L445.605 136H447.425L443.113 126.13H441.517L437.205 136ZM440.607 132.108L442.287 128.188L443.981 132.108H440.607Z" fill="#5C5C8A"/>
<path d="M449.106 136H450.8V129L453.866 133.592H453.922L457.016 128.972V136H458.738V126.2H456.904L453.922 130.834L450.94 126.2H449.106V136Z" fill="#5C5C8A"/>
<path d="M110.42 136L114.732 126.13H116.328L120.64 136H118.82L117.826 133.634H113.192L112.184 136H110.42ZM113.822 132.108H117.196L115.502 128.188L113.822 132.108Z" fill="#0F0449"/>
<path d="M124.821 136.154C123.897 136.154 123.094 135.808 122.413 135.118C121.732 134.427 121.391 133.494 121.391 132.318V132.29C121.391 131.114 121.727 130.18 122.399 129.49C123.08 128.799 123.888 128.454 124.821 128.454C125.857 128.454 126.697 128.888 127.341 129.756V125.78H129.035V136H127.341V134.768C126.688 135.692 125.848 136.154 124.821 136.154ZM125.227 134.684C125.815 134.684 126.319 134.464 126.739 134.026C127.159 133.578 127.369 133.008 127.369 132.318V132.29C127.369 131.599 127.159 131.034 126.739 130.596C126.319 130.148 125.815 129.924 125.227 129.924C124.63 129.924 124.126 130.143 123.715 130.582C123.304 131.011 123.099 131.58 123.099 132.29V132.318C123.099 133.018 123.304 133.587 123.715 134.026C124.126 134.464 124.63 134.684 125.227 134.684Z" fill="#0F0449"/>
<path d="M134.55 136.168C133.467 136.168 132.562 135.813 131.834 135.104C131.115 134.385 130.756 133.461 130.756 132.332V132.304C130.756 131.221 131.096 130.311 131.778 129.574C132.459 128.827 133.322 128.454 134.368 128.454C135.488 128.454 136.356 128.836 136.972 129.602C137.597 130.358 137.91 131.3 137.91 132.43C137.91 132.523 137.9 132.682 137.882 132.906H132.45C132.543 133.503 132.781 133.965 133.164 134.292C133.546 134.618 134.018 134.782 134.578 134.782C135.296 134.782 135.964 134.488 136.58 133.9L137.574 134.782C136.79 135.706 135.782 136.168 134.55 136.168ZM132.436 131.786H136.23C136.174 131.216 135.982 130.75 135.656 130.386C135.329 130.022 134.895 129.84 134.354 129.84C133.831 129.84 133.397 130.017 133.052 130.372C132.716 130.726 132.51 131.198 132.436 131.786Z" fill="#0F0449"/>
<path d="M139.597 136V128.608H141.305V129.742C141.921 128.883 142.691 128.454 143.615 128.454C144.445 128.454 145.089 128.71 145.547 129.224C146.013 129.728 146.247 130.414 146.247 131.282V136H144.553V131.8C144.553 131.221 144.413 130.778 144.133 130.47C143.862 130.152 143.475 129.994 142.971 129.994C142.467 129.994 142.061 130.157 141.753 130.484C141.454 130.81 141.305 131.258 141.305 131.828V136H139.597Z" fill="#0F0449"/>
<path d="M155.332 136.07L151.93 126.2H153.792L156.13 133.466L158.538 126.172H159.994L162.402 133.466L164.74 126.2H166.546L163.144 136.07H161.646L159.238 129.028L156.83 136.07H155.332Z" fill="#0F0449"/>
<path d="M169.26 136.154C168.523 136.154 167.898 135.953 167.384 135.552C166.88 135.15 166.628 134.59 166.628 133.872V133.844C166.628 133.06 166.904 132.467 167.454 132.066C168.014 131.664 168.761 131.464 169.694 131.464C170.376 131.464 171.038 131.566 171.682 131.772V131.59C171.682 130.516 171.071 129.98 169.848 129.98C169.176 129.98 168.472 130.134 167.734 130.442L167.272 129.112C168.215 128.71 169.148 128.51 170.072 128.51C171.174 128.51 171.99 128.785 172.522 129.336C173.054 129.868 173.32 130.628 173.32 131.618V136H171.668V135.076C171.071 135.794 170.268 136.154 169.26 136.154ZM169.736 134.922C170.306 134.922 170.777 134.777 171.15 134.488C171.524 134.189 171.71 133.806 171.71 133.34V132.836C171.206 132.64 170.646 132.542 170.03 132.542C169.48 132.542 169.05 132.649 168.742 132.864C168.444 133.078 168.294 133.382 168.294 133.774V133.802C168.294 134.147 168.43 134.422 168.7 134.628C168.971 134.824 169.316 134.922 169.736 134.922Z" fill="#0F0449"/>
<path d="M175.433 136V125.78H177.141V136H175.433Z" fill="#0F0449"/>
<path d="M179.341 136V125.78H181.049V131.884L184.115 128.608H186.173L183.233 131.618L186.271 136H184.283L182.099 132.794L181.049 133.886V136H179.341Z" fill="#0F0449"/>
<path d="M190.536 136.168C189.453 136.168 188.548 135.813 187.82 135.104C187.101 134.385 186.742 133.461 186.742 132.332V132.304C186.742 131.221 187.083 130.311 187.764 129.574C188.445 128.827 189.309 128.454 190.354 128.454C191.474 128.454 192.342 128.836 192.958 129.602C193.583 130.358 193.896 131.3 193.896 132.43C193.896 132.523 193.887 132.682 193.868 132.906H188.436C188.529 133.503 188.767 133.965 189.15 134.292C189.533 134.618 190.004 134.782 190.564 134.782C191.283 134.782 191.95 134.488 192.566 133.9L193.56 134.782C192.776 135.706 191.768 136.168 190.536 136.168ZM188.422 131.786H192.216C192.16 131.216 191.969 130.75 191.642 130.386C191.315 130.022 190.881 129.84 190.34 129.84C189.817 129.84 189.383 130.017 189.038 130.372C188.702 130.726 188.497 131.198 188.422 131.786Z" fill="#0F0449"/>
<path d="M195.583 136V128.608H197.291V130.274C197.814 129.014 198.686 128.412 199.909 128.468V130.26H199.811C199.036 130.26 198.42 130.512 197.963 131.016C197.515 131.51 197.291 132.234 197.291 133.186V136H195.583Z" fill="#0F0449"/>
<path opacity="0.75" d="M100 131C100 142.046 91.0457 151 80 151C68.9543 151 60 142.046 60 131C60 119.954 68.9543 111 80 111C91.0457 111 100 119.954 100 131Z" fill="#F1F1F9"/>
<path d="M231.938 65.0004H234.358V55.0004L238.738 61.5604H238.818L243.238 54.9604V65.0004H245.698V51.0004H243.078L238.818 57.6204L234.558 51.0004H231.938V65.0004Z" fill="#5C5C8A"/>
<path d="M252.062 65.2204C253.682 65.2204 254.782 64.5404 255.502 63.6804V65.0004H257.862V58.7404C257.862 57.3604 257.502 56.2604 256.722 55.4804C255.962 54.7004 254.802 54.3004 253.222 54.3004C251.542 54.3004 250.402 54.6604 249.222 55.1604L249.882 57.0604C250.842 56.6604 251.702 56.4004 252.902 56.4004C254.602 56.4004 255.522 57.1804 255.522 58.7004V58.9604C254.702 58.7004 253.882 58.5204 252.682 58.5204C250.102 58.5204 248.302 59.6204 248.302 61.9204V61.9604C248.302 64.1004 250.082 65.2204 252.062 65.2204ZM252.742 63.4604C251.562 63.4604 250.682 62.8804 250.682 61.8604V61.8204C250.682 60.7004 251.582 60.0604 253.162 60.0604C254.122 60.0604 254.942 60.2404 255.562 60.4804V61.2004C255.562 62.5604 254.342 63.4604 252.742 63.4604Z" fill="#5C5C8A"/>
<path d="M264.38 65.2004C266.58 65.2004 268.3 64.1004 268.3 61.8804V61.8404C268.3 59.9404 266.54 59.2404 265.02 58.7604C263.78 58.3804 262.64 58.0204 262.64 57.2604V57.2204C262.64 56.6404 263.18 56.1804 264.12 56.1804C265 56.1804 266.08 56.5604 267.1 57.1804L268.06 55.4604C266.94 54.7204 265.52 54.2604 264.18 54.2604C262.08 54.2604 260.42 55.4804 260.42 57.5004V57.5404C260.42 59.5404 262.18 60.2004 263.72 60.6204C264.96 61.0004 266.08 61.3004 266.08 62.1004V62.1404C266.08 62.8404 265.48 63.2804 264.44 63.2804C263.34 63.2804 262.16 62.8404 260.98 61.9804L259.9 63.6204C261.24 64.6804 262.86 65.2004 264.38 65.2004Z" fill="#5C5C8A"/>
<path d="M270.76 65.0004H273.2V61.9804L274.7 60.4204L277.82 65.0004H280.66L276.32 58.7404L280.52 54.4404H277.58L273.2 59.1204V50.4004H270.76V65.0004Z" fill="#5C5C8A"/>
<path d="M285.982 65.2004C288.182 65.2004 289.902 64.1004 289.902 61.8804V61.8404C289.902 59.9404 288.142 59.2404 286.622 58.7604C285.382 58.3804 284.242 58.0204 284.242 57.2604V57.2204C284.242 56.6404 284.782 56.1804 285.722 56.1804C286.602 56.1804 287.682 56.5604 288.702 57.1804L289.662 55.4604C288.542 54.7204 287.122 54.2604 285.782 54.2604C283.682 54.2604 282.022 55.4804 282.022 57.5004V57.5404C282.022 59.5404 283.782 60.2004 285.322 60.6204C286.562 61.0004 287.682 61.3004 287.682 62.1004V62.1404C287.682 62.8404 287.082 63.2804 286.042 63.2804C284.942 63.2804 283.762 62.8404 282.582 61.9804L281.502 63.6204C282.842 64.6804 284.462 65.2004 285.982 65.2004Z" fill="#5C5C8A"/>
<defs>
<filter id="filter0_ddd" x="0" y="0" width="520" height="456" filterUnits="userSpaceOnUse" color-interpolation-filters="sRGB">
<feFlood flood-opacity="0" result="BackgroundImageFix"/>
<feColorMatrix in="SourceAlpha" type="matrix" values="0 0 0 0 0 0 0 0 0 0 0 0 0 0 0 0 0 0 127 0"/>
<feOffset dy="10"/>
<feGaussianBlur stdDeviation="5"/>
<feColorMatrix type="matrix" values="0 0 0 0 0.0313726 0 0 0 0 0.109804 0 0 0 0 0.270588 0 0 0 0.05 0"/>
<feBlend mode="normal" in2="BackgroundImageFix" result="effect1_dropShadow"/>
<feColorMatrix in="SourceAlpha" type="matrix" values="0 0 0 0 0 0 0 0 0 0 0 0 0 0 0 0 0 0 127 0"/>
<feOffset dy="5"/>
<feGaussianBlur stdDeviation="10"/>
<feColorMatrix type="matrix" values="0 0 0 0 0.0313726 0 0 0 0 0.109804 0 0 0 0 0.270588 0 0 0 0.05 0"/>
<feBlend mode="normal" in2="effect1_dropShadow" result="effect2_dropShadow"/>
<feColorMatrix in="SourceAlpha" type="matrix" values="0 0 0 0 0 0 0 0 0 0 0 0 0 0 0 0 0 0 127 0"/>
<feOffset dy="5"/>
<feGaussianBlur stdDeviation="2.5"/>
<feColorMatrix type="matrix" values="0 0 0 0 0.0313726 0 0 0 0 0.109804 0 0 0 0 0.270588 0 0 0 0.05 0"/>
<feBlend mode="normal" in2="effect2_dropShadow" result="effect3_dropShadow"/>
<feBlend mode="normal" in="SourceGraphic" in2="effect3_dropShadow" result="shape"/>
</filter>
<filter id="filter1_ddd" x="0" y="321" width="520" height="140" filterUnits="userSpaceOnUse" color-interpolation-filters="sRGB">
<feFlood flood-opacity="0" result="BackgroundImageFix"/>
<feColorMatrix in="SourceAlpha" type="matrix" values="0 0 0 0 0 0 0 0 0 0 0 0 0 0 0 0 0 0 127 0"/>
<feOffset dy="20"/>
<feGaussianBlur stdDeviation="20"/>
<feColorMatrix type="matrix" values="0 0 0 0 0.0313726 0 0 0 0 0.109804 0 0 0 0 0.270588 0 0 0 0.25 0"/>
<feBlend mode="normal" in2="BackgroundImageFix" result="effect1_dropShadow"/>
<feColorMatrix in="SourceAlpha" type="matrix" values="0 0 0 0 0 0 0 0 0 0 0 0 0 0 0 0 0 0 127 0"/>
<feOffset dy="10"/>
<feGaussianBlur stdDeviation="10"/>
<feColorMatrix type="matrix" values="0 0 0 0 0.0313726 0 0 0 0 0.109804 0 0 0 0 0.270588 0 0 0 0.15 0"/>
<feBlend mode="normal" in2="effect1_dropShadow" result="effect2_dropShadow"/>
<feColorMatrix in="SourceAlpha" type="matrix" values="0 0 0 0 0 0 0 0 0 0 0 0 0 0 0 0 0 0 127 0"/>
<feOffset dy="5"/>
<feGaussianBlur stdDeviation="5"/>
<feColorMatrix type="matrix" values="0 0 0 0 0.0313726 0 0 0 0 0.109804 0 0 0 0 0.270588 0 0 0 0.25 0"/>
<feBlend mode="normal" in2="effect2_dropShadow" result="effect3_dropShadow"/>
<feBlend mode="normal" in="SourceGraphic" in2="effect3_dropShadow" result="shape"/>
</filter>
<filter id="filter2_ddd" x="20" y="246" width="480" height="100" filterUnits="userSpaceOnUse" color-interpolation-filters="sRGB">
<feFlood flood-opacity="0" result="BackgroundImageFix"/>
<feColorMatrix in="SourceAlpha" type="matrix" values="0 0 0 0 0 0 0 0 0 0 0 0 0 0 0 0 0 0 127 0"/>
<feOffset dy="10"/>
<feGaussianBlur stdDeviation="5"/>
<feColorMatrix type="matrix" values="0 0 0 0 0.0313726 0 0 0 0 0.109804 0 0 0 0 0.270588 0 0 0 0.05 0"/>
<feBlend mode="normal" in2="BackgroundImageFix" result="effect1_dropShadow"/>
<feColorMatrix in="SourceAlpha" type="matrix" values="0 0 0 0 0 0 0 0 0 0 0 0 0 0 0 0 0 0 127 0"/>
<feOffset dy="5"/>
<feGaussianBlur stdDeviation="10"/>
<feColorMatrix type="matrix" values="0 0 0 0 0.0313726 0 0 0 0 0.109804 0 0 0 0 0.270588 0 0 0 0.05 0"/>
<feBlend mode="normal" in2="effect1_dropShadow" result="effect2_dropShadow"/>
<feColorMatrix in="SourceAlpha" type="matrix" values="0 0 0 0 0 0 0 0 0 0 0 0 0 0 0 0 0 0 127 0"/>
<feOffset dy="5"/>
<feGaussianBlur stdDeviation="2.5"/>
<feColorMatrix type="matrix" values="0 0 0 0 0.0313726 0 0 0 0 0.109804 0 0 0 0 0.270588 0 0 0 0.05 0"/>
<feBlend mode="normal" in2="effect2_dropShadow" result="effect3_dropShadow"/>
<feBlend mode="normal" in="SourceGraphic" in2="effect3_dropShadow" result="shape"/>
</filter>
<filter id="filter3_ddd" x="20" y="166" width="480" height="100" filterUnits="userSpaceOnUse" color-interpolation-filters="sRGB">
<feFlood flood-opacity="0" result="BackgroundImageFix"/>
<feColorMatrix in="SourceAlpha" type="matrix" values="0 0 0 0 0 0 0 0 0 0 0 0 0 0 0 0 0 0 127 0"/>
<feOffset dy="10"/>
<feGaussianBlur stdDeviation="5"/>
<feColorMatrix type="matrix" values="0 0 0 0 0.0313726 0 0 0 0 0.109804 0 0 0 0 0.270588 0 0 0 0.05 0"/>
<feBlend mode="normal" in2="BackgroundImageFix" result="effect1_dropShadow"/>
<feColorMatrix in="SourceAlpha" type="matrix" values="0 0 0 0 0 0 0 0 0 0 0 0 0 0 0 0 0 0 127 0"/>
<feOffset dy="5"/>
<feGaussianBlur stdDeviation="10"/>
<feColorMatrix type="matrix" values="0 0 0 0 0.0313726 0 0 0 0 0.109804 0 0 0 0 0.270588 0 0 0 0.05 0"/>
<feBlend mode="normal" in2="effect1_dropShadow" result="effect2_dropShadow"/>
<feColorMatrix in="SourceAlpha" type="matrix" values="0 0 0 0 0 0 0 0 0 0 0 0 0 0 0 0 0 0 127 0"/>
<feOffset dy="5"/>
<feGaussianBlur stdDeviation="2.5"/>
<feColorMatrix type="matrix" values="0 0 0 0 0.0313726 0 0 0 0 0.109804 0 0 0 0 0.270588 0 0 0 0.05 0"/>
<feBlend mode="normal" in2="effect2_dropShadow" result="effect3_dropShadow"/>
<feBlend mode="normal" in="SourceGraphic" in2="effect3_dropShadow" result="shape"/>
</filter>
<filter id="filter4_ddd" x="20" y="86" width="480" height="100" filterUnits="userSpaceOnUse" color-interpolation-filters="sRGB">
<feFlood flood-opacity="0" result="BackgroundImageFix"/>
<feColorMatrix in="SourceAlpha" type="matrix" values="0 0 0 0 0 0 0 0 0 0 0 0 0 0 0 0 0 0 127 0"/>
<feOffset dy="10"/>
<feGaussianBlur stdDeviation="5"/>
<feColorMatrix type="matrix" values="0 0 0 0 0.0313726 0 0 0 0 0.109804 0 0 0 0 0.270588 0 0 0 0.05 0"/>
<feBlend mode="normal" in2="BackgroundImageFix" result="effect1_dropShadow"/>
<feColorMatrix in="SourceAlpha" type="matrix" values="0 0 0 0 0 0 0 0 0 0 0 0 0 0 0 0 0 0 127 0"/>
<feOffset dy="5"/>
<feGaussianBlur stdDeviation="10"/>
<feColorMatrix type="matrix" values="0 0 0 0 0.0313726 0 0 0 0 0.109804 0 0 0 0 0.270588 0 0 0 0.05 0"/>
<feBlend mode="normal" in2="effect1_dropShadow" result="effect2_dropShadow"/>
<feColorMatrix in="SourceAlpha" type="matrix" values="0 0 0 0 0 0 0 0 0 0 0 0 0 0 0 0 0 0 127 0"/>
<feOffset dy="5"/>
<feGaussianBlur stdDeviation="2.5"/>
<feColorMatrix type="matrix" values="0 0 0 0 0.0313726 0 0 0 0 0.109804 0 0 0 0 0.270588 0 0 0 0.05 0"/>
<feBlend mode="normal" in2="effect2_dropShadow" result="effect3_dropShadow"/>
<feBlend mode="normal" in="SourceGraphic" in2="effect3_dropShadow" result="shape"/>
</filter>
<linearGradient id="paint0_linear" x1="500" y1="15" x2="272.06" y2="540.362" gradientUnits="userSpaceOnUse">
<stop stop-color="#F1F1F9"/>
<stop offset="1" stop-color="white"/>
</linearGradient>
</defs>
</svg>
